<?xml version="1.0" encoding="UTF-8"?>
<svg xmlns="http://www.w3.org/2000/svg" xmlns:xlink="http://www.w3.org/1999/xlink" width="854" height="480" viewBox="0 0 854 480">
<defs>
<g>
<g id="glyph-0-0">
<path d="M 4.027344 -1.410156 C 3.976562 -1.402344 3.929688 -1.398438 3.890625 -1.390625 C 3.851562 -1.386719 3.804688 -1.371094 3.746094 -1.351562 C 3.679688 -1.332031 3.632812 -1.296875 3.613281 -1.246094 C 3.59375 -1.199219 3.582031 -1.148438 3.582031 -1.09375 L 3.582031 -0.691406 C 3.582031 -0.609375 3.582031 -0.542969 3.585938 -0.496094 C 3.585938 -0.445312 3.589844 -0.382812 3.589844 -0.308594 C 3.429688 -0.210938 3.1875 -0.121094 2.871094 -0.0351562 C 2.550781 0.0507812 2.257812 0.09375 1.992188 0.09375 C 1.742188 0.09375 1.507812 0.0585938 1.285156 -0.0195312 C 1.066406 -0.0976562 0.875 -0.210938 0.707031 -0.363281 C 0.542969 -0.515625 0.410156 -0.703125 0.316406 -0.929688 C 0.222656 -1.152344 0.171875 -1.410156 0.171875 -1.699219 C 0.171875 -1.972656 0.21875 -2.222656 0.308594 -2.449219 C 0.398438 -2.679688 0.527344 -2.878906 0.695312 -3.042969 C 0.863281 -3.207031 1.0625 -3.335938 1.300781 -3.425781 C 1.539062 -3.515625 1.804688 -3.558594 2.09375 -3.558594 C 2.292969 -3.558594 2.472656 -3.535156 2.640625 -3.484375 C 2.808594 -3.4375 2.949219 -3.386719 3.054688 -3.328125 L 3.207031 -3.464844 L 3.421875 -3.464844 L 3.441406 -2.199219 L 3.226562 -2.199219 C 3.105469 -2.578125 2.957031 -2.863281 2.78125 -3.046875 C 2.609375 -3.230469 2.390625 -3.324219 2.128906 -3.324219 C 1.816406 -3.324219 1.574219 -3.1875 1.40625 -2.914062 C 1.234375 -2.636719 1.148438 -2.261719 1.148438 -1.78125 C 1.148438 -1.269531 1.234375 -0.871094 1.398438 -0.582031 C 1.566406 -0.296875 1.804688 -0.152344 2.109375 -0.152344 C 2.253906 -0.152344 2.378906 -0.171875 2.492188 -0.214844 C 2.601562 -0.257812 2.691406 -0.308594 2.75 -0.367188 L 2.75 -1.070312 C 2.75 -1.128906 2.742188 -1.175781 2.71875 -1.21875 C 2.699219 -1.257812 2.65625 -1.292969 2.59375 -1.320312 C 2.542969 -1.34375 2.484375 -1.363281 2.410156 -1.375 C 2.335938 -1.390625 2.273438 -1.402344 2.226562 -1.410156 L 2.226562 -1.597656 L 4.027344 -1.597656 Z "/>
</g>
<g id="glyph-0-1">
<path d="M 3.324219 -0.0507812 L 2.160156 0.0195312 L 2.125 -0.015625 L 2.125 -0.335938 L 2.109375 -0.335938 C 2.054688 -0.285156 2 -0.234375 1.949219 -0.1875 C 1.894531 -0.140625 1.832031 -0.09375 1.757812 -0.0546875 C 1.675781 -0.0117188 1.597656 0.0195312 1.523438 0.0429688 C 1.449219 0.0625 1.339844 0.0742188 1.199219 0.0742188 C 0.953125 0.0742188 0.765625 0 0.636719 -0.148438 C 0.503906 -0.296875 0.4375 -0.507812 0.4375 -0.777344 L 0.4375 -1.875 C 0.4375 -1.9375 0.425781 -1.988281 0.402344 -2.03125 C 0.378906 -2.070312 0.347656 -2.105469 0.304688 -2.136719 C 0.273438 -2.160156 0.230469 -2.179688 0.179688 -2.1875 C 0.128906 -2.199219 0.0820312 -2.207031 0.0390625 -2.210938 L 0.0390625 -2.386719 L 1.21875 -2.453125 L 1.246094 -2.414062 L 1.246094 -0.789062 C 1.246094 -0.625 1.277344 -0.5 1.339844 -0.421875 C 1.40625 -0.339844 1.492188 -0.300781 1.605469 -0.300781 C 1.722656 -0.300781 1.824219 -0.332031 1.917969 -0.390625 C 2.007812 -0.449219 2.078125 -0.515625 2.117188 -0.582031 L 2.117188 -1.898438 C 2.117188 -1.953125 2.109375 -2.003906 2.085938 -2.046875 C 2.066406 -2.09375 2.035156 -2.128906 1.996094 -2.15625 C 1.964844 -2.175781 1.921875 -2.1875 1.867188 -2.195312 C 1.8125 -2.203125 1.757812 -2.207031 1.703125 -2.210938 L 1.703125 -2.386719 L 2.886719 -2.453125 L 2.925781 -2.414062 L 2.925781 -0.53125 C 2.925781 -0.472656 2.9375 -0.425781 2.957031 -0.382812 C 2.980469 -0.34375 3.015625 -0.3125 3.058594 -0.28125 C 3.089844 -0.265625 3.128906 -0.25 3.179688 -0.242188 C 3.226562 -0.234375 3.277344 -0.230469 3.324219 -0.230469 Z "/>
</g>
<g id="glyph-0-2">
<path d="M 2.933594 -0.0507812 C 2.859375 -0.0195312 2.777344 0.0078125 2.679688 0.0351562 C 2.582031 0.0585938 2.476562 0.0742188 2.371094 0.0742188 C 2.167969 0.0742188 2.023438 0.0429688 1.929688 -0.015625 C 1.835938 -0.0742188 1.769531 -0.160156 1.734375 -0.269531 L 1.722656 -0.269531 C 1.664062 -0.214844 1.613281 -0.167969 1.5625 -0.128906 C 1.507812 -0.0898438 1.453125 -0.0585938 1.394531 -0.03125 C 1.320312 0.0078125 1.246094 0.0351562 1.175781 0.0507812 C 1.105469 0.0703125 1.003906 0.078125 0.878906 0.078125 C 0.6875 0.078125 0.527344 0.0234375 0.394531 -0.0898438 C 0.257812 -0.199219 0.191406 -0.347656 0.191406 -0.53125 C 0.191406 -0.640625 0.207031 -0.730469 0.238281 -0.804688 C 0.265625 -0.878906 0.308594 -0.941406 0.363281 -1 C 0.410156 -1.050781 0.46875 -1.09375 0.53125 -1.128906 C 0.597656 -1.164062 0.667969 -1.195312 0.742188 -1.226562 C 0.890625 -1.277344 1.066406 -1.335938 1.269531 -1.390625 C 1.476562 -1.449219 1.625 -1.503906 1.722656 -1.546875 L 1.722656 -1.78125 C 1.722656 -1.824219 1.71875 -1.875 1.710938 -1.945312 C 1.703125 -2.011719 1.691406 -2.066406 1.671875 -2.113281 C 1.648438 -2.164062 1.609375 -2.207031 1.5625 -2.242188 C 1.511719 -2.28125 1.449219 -2.296875 1.371094 -2.296875 C 1.296875 -2.296875 1.238281 -2.289062 1.191406 -2.265625 C 1.140625 -2.246094 1.101562 -2.226562 1.074219 -2.203125 C 1.078125 -2.171875 1.09375 -2.121094 1.117188 -2.054688 C 1.136719 -1.988281 1.148438 -1.925781 1.148438 -1.863281 C 1.148438 -1.835938 1.140625 -1.800781 1.128906 -1.757812 C 1.113281 -1.71875 1.09375 -1.683594 1.0625 -1.660156 C 1.027344 -1.628906 0.984375 -1.601562 0.9375 -1.585938 C 0.890625 -1.566406 0.820312 -1.558594 0.722656 -1.558594 C 0.585938 -1.558594 0.484375 -1.589844 0.414062 -1.65625 C 0.34375 -1.722656 0.308594 -1.808594 0.308594 -1.914062 C 0.308594 -2.003906 0.34375 -2.085938 0.417969 -2.160156 C 0.488281 -2.230469 0.578125 -2.292969 0.679688 -2.339844 C 0.785156 -2.386719 0.902344 -2.425781 1.035156 -2.453125 C 1.167969 -2.480469 1.292969 -2.492188 1.40625 -2.492188 C 1.5625 -2.492188 1.710938 -2.484375 1.839844 -2.464844 C 1.972656 -2.445312 2.089844 -2.40625 2.195312 -2.347656 C 2.296875 -2.292969 2.378906 -2.210938 2.4375 -2.101562 C 2.496094 -1.992188 2.527344 -1.851562 2.527344 -1.675781 C 2.527344 -1.492188 2.523438 -1.273438 2.515625 -1.023438 C 2.507812 -0.769531 2.503906 -0.605469 2.503906 -0.523438 C 2.503906 -0.453125 2.515625 -0.394531 2.539062 -0.351562 C 2.558594 -0.308594 2.59375 -0.277344 2.640625 -0.257812 C 2.667969 -0.242188 2.710938 -0.234375 2.769531 -0.234375 C 2.828125 -0.230469 2.882812 -0.230469 2.933594 -0.230469 L 2.933594 -0.0507812 M 1.722656 -1.324219 C 1.628906 -1.292969 1.539062 -1.257812 1.449219 -1.214844 C 1.359375 -1.175781 1.285156 -1.136719 1.230469 -1.089844 C 1.167969 -1.046875 1.121094 -0.988281 1.085938 -0.914062 C 1.050781 -0.84375 1.035156 -0.761719 1.035156 -0.664062 C 1.035156 -0.539062 1.0625 -0.445312 1.121094 -0.386719 C 1.179688 -0.332031 1.25 -0.304688 1.335938 -0.304688 C 1.425781 -0.304688 1.5 -0.320312 1.558594 -0.359375 C 1.617188 -0.394531 1.667969 -0.441406 1.710938 -0.492188 Z "/>
</g>
<g id="glyph-0-3">
<path d="M 2.574219 -1.976562 C 2.574219 -1.851562 2.535156 -1.742188 2.457031 -1.648438 C 2.382812 -1.554688 2.28125 -1.507812 2.15625 -1.507812 C 2.035156 -1.507812 1.9375 -1.539062 1.855469 -1.597656 C 1.773438 -1.660156 1.730469 -1.746094 1.730469 -1.863281 C 1.730469 -1.921875 1.734375 -1.964844 1.742188 -1.996094 C 1.75 -2.027344 1.757812 -2.058594 1.765625 -2.085938 C 1.691406 -2.082031 1.609375 -2.054688 1.527344 -2.007812 C 1.445312 -1.960938 1.371094 -1.894531 1.308594 -1.8125 L 1.308594 -0.472656 C 1.308594 -0.417969 1.316406 -0.371094 1.335938 -0.332031 C 1.351562 -0.292969 1.382812 -0.265625 1.425781 -0.242188 C 1.460938 -0.226562 1.519531 -0.210938 1.601562 -0.199219 C 1.679688 -0.1875 1.738281 -0.179688 1.773438 -0.179688 L 1.773438 0 L 0.140625 0 L 0.140625 -0.179688 C 0.183594 -0.179688 0.222656 -0.1875 0.265625 -0.191406 C 0.304688 -0.199219 0.34375 -0.203125 0.371094 -0.214844 C 0.421875 -0.234375 0.460938 -0.261719 0.476562 -0.296875 C 0.5 -0.335938 0.507812 -0.382812 0.507812 -0.445312 L 0.507812 -1.867188 C 0.507812 -1.921875 0.492188 -1.976562 0.464844 -2.023438 C 0.4375 -2.070312 0.40625 -2.105469 0.367188 -2.132812 C 0.335938 -2.152344 0.300781 -2.167969 0.253906 -2.183594 C 0.210938 -2.195312 0.160156 -2.203125 0.109375 -2.210938 L 0.109375 -2.386719 L 1.273438 -2.453125 L 1.308594 -2.414062 L 1.308594 -2.0625 L 1.320312 -2.0625 C 1.429688 -2.191406 1.550781 -2.292969 1.675781 -2.367188 C 1.800781 -2.441406 1.933594 -2.476562 2.070312 -2.476562 C 2.222656 -2.476562 2.34375 -2.429688 2.433594 -2.335938 C 2.527344 -2.242188 2.574219 -2.125 2.574219 -1.976562 Z "/>
</g>
<g id="glyph-0-4">
<path d="M 3.296875 -0.0507812 L 2.09375 0.0195312 L 2.054688 -0.015625 L 2.054688 -0.238281 L 2.039062 -0.242188 C 1.957031 -0.15625 1.851562 -0.0820312 1.714844 -0.0195312 C 1.578125 0.046875 1.441406 0.078125 1.304688 0.078125 C 0.976562 0.078125 0.707031 -0.0429688 0.492188 -0.289062 C 0.28125 -0.53125 0.171875 -0.847656 0.171875 -1.234375 C 0.171875 -1.578125 0.292969 -1.875 0.53125 -2.117188 C 0.769531 -2.363281 1.058594 -2.488281 1.394531 -2.488281 C 1.527344 -2.488281 1.652344 -2.472656 1.769531 -2.441406 C 1.886719 -2.414062 1.980469 -2.378906 2.050781 -2.335938 L 2.050781 -3.132812 C 2.050781 -3.195312 2.039062 -3.25 2.015625 -3.304688 C 1.988281 -3.355469 1.957031 -3.398438 1.917969 -3.429688 C 1.867188 -3.464844 1.804688 -3.488281 1.726562 -3.503906 C 1.652344 -3.519531 1.574219 -3.53125 1.5 -3.539062 L 1.5 -3.714844 L 2.820312 -3.78125 L 2.855469 -3.742188 L 2.855469 -0.539062 C 2.855469 -0.476562 2.867188 -0.425781 2.886719 -0.382812 C 2.90625 -0.339844 2.941406 -0.308594 2.984375 -0.28125 C 3.019531 -0.265625 3.070312 -0.253906 3.132812 -0.242188 C 3.199219 -0.234375 3.253906 -0.230469 3.296875 -0.230469 L 3.296875 -0.0507812 M 2.050781 -0.484375 L 2.050781 -1.867188 C 2.039062 -1.902344 2.023438 -1.945312 2.003906 -1.988281 C 1.984375 -2.035156 1.953125 -2.078125 1.917969 -2.117188 C 1.886719 -2.152344 1.84375 -2.183594 1.789062 -2.210938 C 1.734375 -2.234375 1.671875 -2.25 1.605469 -2.25 C 1.441406 -2.25 1.308594 -2.15625 1.207031 -1.972656 C 1.101562 -1.789062 1.050781 -1.527344 1.050781 -1.195312 C 1.050781 -1.0625 1.058594 -0.945312 1.078125 -0.839844 C 1.097656 -0.734375 1.128906 -0.636719 1.175781 -0.550781 C 1.222656 -0.464844 1.285156 -0.398438 1.359375 -0.347656 C 1.433594 -0.300781 1.519531 -0.277344 1.625 -0.277344 C 1.722656 -0.277344 1.804688 -0.296875 1.871094 -0.332031 C 1.933594 -0.371094 1.996094 -0.421875 2.050781 -0.484375 Z "/>
</g>
<g id="glyph-0-5">
</g>
<g id="glyph-0-6">
<path d="M 3.390625 -2.472656 L 3.199219 -2.472656 C 3.148438 -2.621094 3.066406 -2.78125 2.957031 -2.949219 C 2.84375 -3.117188 2.742188 -3.210938 2.648438 -3.222656 C 2.597656 -3.230469 2.53125 -3.234375 2.457031 -3.238281 C 2.378906 -3.246094 2.3125 -3.246094 2.257812 -3.246094 L 2.144531 -3.246094 L 2.144531 -0.53125 C 2.144531 -0.472656 2.152344 -0.417969 2.175781 -0.375 C 2.195312 -0.328125 2.238281 -0.292969 2.300781 -0.269531 C 2.335938 -0.253906 2.394531 -0.238281 2.472656 -0.222656 C 2.554688 -0.207031 2.621094 -0.195312 2.675781 -0.191406 L 2.675781 0 L 0.746094 0 L 0.746094 -0.191406 C 0.792969 -0.195312 0.859375 -0.203125 0.945312 -0.210938 C 1.027344 -0.21875 1.085938 -0.230469 1.117188 -0.242188 C 1.179688 -0.269531 1.222656 -0.304688 1.246094 -0.347656 C 1.265625 -0.394531 1.277344 -0.445312 1.277344 -0.503906 L 1.277344 -3.246094 L 1.164062 -3.246094 C 1.105469 -3.246094 1.042969 -3.246094 0.964844 -3.238281 C 0.890625 -3.234375 0.824219 -3.230469 0.773438 -3.222656 C 0.679688 -3.210938 0.574219 -3.117188 0.464844 -2.949219 C 0.351562 -2.78125 0.273438 -2.621094 0.222656 -2.472656 L 0.03125 -2.472656 L 0.03125 -3.464844 L 3.390625 -3.464844 Z "/>
</g>
<g id="glyph-0-7">
<path d="M 2.632812 -2.132812 C 2.753906 -2.023438 2.847656 -1.886719 2.910156 -1.730469 C 2.972656 -1.574219 3.003906 -1.40625 3.003906 -1.222656 C 3.003906 -1.042969 2.972656 -0.871094 2.910156 -0.710938 C 2.847656 -0.550781 2.757812 -0.414062 2.636719 -0.300781 C 2.507812 -0.179688 2.355469 -0.0859375 2.175781 -0.0195312 C 2 0.046875 1.792969 0.078125 1.566406 0.078125 C 1.367188 0.078125 1.183594 0.0507812 1.015625 -0.0078125 C 0.851562 -0.0625 0.703125 -0.148438 0.574219 -0.265625 C 0.449219 -0.371094 0.351562 -0.507812 0.28125 -0.667969 C 0.210938 -0.828125 0.171875 -1.007812 0.171875 -1.207031 C 0.171875 -1.402344 0.203125 -1.574219 0.265625 -1.726562 C 0.328125 -1.878906 0.425781 -2.015625 0.550781 -2.132812 C 0.667969 -2.246094 0.816406 -2.335938 0.996094 -2.398438 C 1.171875 -2.460938 1.367188 -2.492188 1.585938 -2.492188 C 1.816406 -2.492188 2.015625 -2.460938 2.1875 -2.398438 C 2.363281 -2.335938 2.511719 -2.246094 2.632812 -2.132812 M 2.007812 -0.441406 C 2.046875 -0.53125 2.070312 -0.644531 2.089844 -0.773438 C 2.105469 -0.902344 2.113281 -1.054688 2.113281 -1.226562 C 2.113281 -1.34375 2.105469 -1.472656 2.089844 -1.617188 C 2.074219 -1.765625 2.050781 -1.878906 2.015625 -1.964844 C 1.976562 -2.066406 1.921875 -2.148438 1.855469 -2.207031 C 1.785156 -2.265625 1.699219 -2.296875 1.59375 -2.296875 C 1.476562 -2.296875 1.382812 -2.261719 1.316406 -2.199219 C 1.246094 -2.136719 1.191406 -2.054688 1.15625 -1.953125 C 1.121094 -1.859375 1.097656 -1.75 1.085938 -1.628906 C 1.070312 -1.503906 1.0625 -1.371094 1.0625 -1.238281 C 1.0625 -1.058594 1.070312 -0.914062 1.082031 -0.796875 C 1.09375 -0.679688 1.121094 -0.5625 1.164062 -0.445312 C 1.203125 -0.347656 1.253906 -0.265625 1.324219 -0.207031 C 1.394531 -0.148438 1.484375 -0.121094 1.59375 -0.121094 C 1.6875 -0.121094 1.773438 -0.148438 1.84375 -0.203125 C 1.914062 -0.257812 1.96875 -0.335938 2.007812 -0.441406 Z "/>
</g>
</g>
</defs>
<g fill="rgb(100%, 100%, 100%)" fill-opacity="1">
<use xlink:href="#glyph-0-0" x="30" y="24.584961"/>
<use xlink:href="#glyph-0-1" x="34" y="24.584961"/>
<use xlink:href="#glyph-0-2" x="37" y="24.584961"/>
<use xlink:href="#glyph-0-3" x="40" y="24.584961"/>
<use xlink:href="#glyph-0-4" x="43" y="24.584961"/>
<use xlink:href="#glyph-0-2" x="46" y="24.584961"/>
<use xlink:href="#glyph-0-3" x="49" y="24.584961"/>
<use xlink:href="#glyph-0-5" x="52" y="24.584961"/>
<use xlink:href="#glyph-0-6" x="53" y="24.584961"/>
<use xlink:href="#glyph-0-7" x="56" y="24.584961"/>
<use xlink:href="#glyph-0-4" x="59" y="24.584961"/>
<use xlink:href="#glyph-0-7" x="62" y="24.584961"/>
</g>
</svg>
