<?xml version="1.0" encoding="UTF-8"?>
<svg xmlns="http://www.w3.org/2000/svg" xmlns:xlink="http://www.w3.org/1999/xlink" width="854" height="480" viewBox="0 0 854 480">
<defs>
<g>
<g id="glyph-0-0">
<path d="M 2.875 -1.414062 C 3.027344 -1.316406 3.152344 -1.179688 3.253906 -1.011719 C 3.355469 -0.84375 3.40625 -0.636719 3.40625 -0.386719 C 3.40625 0.0507812 3.234375 0.40625 2.894531 0.683594 C 2.554688 0.960938 2.125 1.101562 1.597656 1.101562 C 1.1875 1.101562 0.847656 1.011719 0.574219 0.839844 C 0.304688 0.664062 0.167969 0.457031 0.167969 0.21875 C 0.167969 0.078125 0.210938 -0.0429688 0.304688 -0.140625 C 0.394531 -0.238281 0.515625 -0.285156 0.664062 -0.285156 C 0.824219 -0.285156 0.953125 -0.246094 1.050781 -0.160156 C 1.152344 -0.0742188 1.203125 0.0390625 1.203125 0.179688 C 1.203125 0.277344 1.183594 0.386719 1.152344 0.503906 C 1.117188 0.621094 1.089844 0.710938 1.066406 0.773438 C 1.117188 0.789062 1.171875 0.804688 1.234375 0.8125 C 1.300781 0.820312 1.359375 0.828125 1.414062 0.828125 C 1.527344 0.828125 1.640625 0.800781 1.75 0.75 C 1.859375 0.699219 1.953125 0.625 2.027344 0.527344 C 2.117188 0.417969 2.1875 0.285156 2.230469 0.132812 C 2.277344 -0.0195312 2.300781 -0.191406 2.300781 -0.386719 C 2.300781 -0.664062 2.226562 -0.894531 2.074219 -1.074219 C 1.925781 -1.253906 1.730469 -1.34375 1.492188 -1.34375 C 1.304688 -1.34375 1.148438 -1.308594 1.023438 -1.234375 C 0.898438 -1.160156 0.785156 -1.0625 0.6875 -0.941406 L 0.457031 -1.015625 L 0.746094 -3.214844 L 3.265625 -3.214844 L 3.265625 -2.390625 L 0.960938 -2.390625 L 0.839844 -1.40625 C 0.945312 -1.472656 1.085938 -1.539062 1.253906 -1.597656 C 1.421875 -1.660156 1.621094 -1.691406 1.851562 -1.691406 C 2.027344 -1.691406 2.203125 -1.671875 2.375 -1.632812 C 2.546875 -1.59375 2.714844 -1.523438 2.875 -1.414062 Z "/>
</g>
<g id="glyph-0-1">
<path d="M 1.59375 -0.496094 C 1.59375 -0.339844 1.535156 -0.203125 1.417969 -0.0859375 C 1.300781 0.0273438 1.164062 0.0859375 1.003906 0.0859375 C 0.84375 0.0859375 0.707031 0.03125 0.589844 -0.0859375 C 0.472656 -0.199219 0.414062 -0.335938 0.414062 -0.496094 C 0.414062 -0.65625 0.472656 -0.792969 0.589844 -0.910156 C 0.707031 -1.023438 0.84375 -1.082031 1.003906 -1.082031 C 1.164062 -1.082031 1.300781 -1.023438 1.417969 -0.90625 C 1.535156 -0.789062 1.59375 -0.652344 1.59375 -0.496094 Z "/>
</g>
</g>
</defs>
<g fill="rgb(8.627451%, 63.921569%, 29.019608%)" fill-opacity="1">
<use xlink:href="#glyph-0-0" x="30" y="25.603516"/>
<use xlink:href="#glyph-0-1" x="34" y="25.603516"/>
</g>
</svg>
