<?xml version="1.0" encoding="UTF-8"?>
<svg xmlns="http://www.w3.org/2000/svg" xmlns:xlink="http://www.w3.org/1999/xlink" width="854" height="480" viewBox="0 0 854 480">
<defs>
<g>
<g id="glyph-0-0">
<path d="M 1.976562 -0.949219 C 1.976562 -0.785156 1.945312 -0.644531 1.882812 -0.523438 C 1.820312 -0.40625 1.742188 -0.304688 1.644531 -0.230469 C 1.542969 -0.152344 1.433594 -0.09375 1.308594 -0.0585938 C 1.183594 -0.0195312 1.058594 0 0.925781 0 L 0.128906 0 L 0.128906 -0.0976562 C 0.152344 -0.0976562 0.1875 -0.0976562 0.230469 -0.105469 C 0.273438 -0.109375 0.300781 -0.113281 0.3125 -0.121094 C 0.339844 -0.132812 0.359375 -0.148438 0.371094 -0.171875 C 0.382812 -0.195312 0.390625 -0.222656 0.390625 -0.257812 L 0.390625 -1.644531 C 0.390625 -1.675781 0.386719 -1.703125 0.375 -1.726562 C 0.363281 -1.753906 0.34375 -1.773438 0.3125 -1.785156 C 0.285156 -1.800781 0.253906 -1.808594 0.222656 -1.816406 C 0.191406 -1.820312 0.160156 -1.828125 0.136719 -1.828125 L 0.136719 -1.925781 L 0.980469 -1.925781 C 1.09375 -1.925781 1.207031 -1.90625 1.320312 -1.871094 C 1.433594 -1.835938 1.53125 -1.785156 1.613281 -1.726562 C 1.726562 -1.644531 1.816406 -1.539062 1.878906 -1.410156 C 1.945312 -1.28125 1.976562 -1.125 1.976562 -0.949219 M 1.644531 -0.953125 C 1.644531 -1.082031 1.625 -1.199219 1.59375 -1.300781 C 1.558594 -1.40625 1.507812 -1.496094 1.441406 -1.574219 C 1.378906 -1.648438 1.300781 -1.707031 1.210938 -1.75 C 1.121094 -1.792969 1.019531 -1.8125 0.910156 -1.8125 C 0.871094 -1.8125 0.828125 -1.8125 0.78125 -1.8125 C 0.738281 -1.808594 0.703125 -1.808594 0.679688 -1.808594 L 0.679688 -0.328125 C 0.679688 -0.246094 0.703125 -0.191406 0.75 -0.160156 C 0.800781 -0.128906 0.871094 -0.109375 0.972656 -0.109375 C 1.085938 -0.109375 1.1875 -0.132812 1.273438 -0.171875 C 1.359375 -0.210938 1.429688 -0.269531 1.480469 -0.339844 C 1.539062 -0.417969 1.578125 -0.503906 1.605469 -0.605469 C 1.628906 -0.703125 1.644531 -0.820312 1.644531 -0.953125 Z "/>
</g>
<g id="glyph-0-1">
<path d="M 1.402344 -0.683594 C 1.402344 -0.589844 1.386719 -0.496094 1.359375 -0.40625 C 1.328125 -0.3125 1.285156 -0.238281 1.230469 -0.171875 C 1.167969 -0.101562 1.09375 -0.046875 1.011719 -0.0117188 C 0.929688 0.0234375 0.839844 0.0390625 0.734375 0.0390625 C 0.652344 0.0390625 0.570312 0.0234375 0.492188 -0.0078125 C 0.414062 -0.0390625 0.347656 -0.0859375 0.289062 -0.148438 C 0.230469 -0.207031 0.183594 -0.28125 0.148438 -0.371094 C 0.113281 -0.457031 0.09375 -0.554688 0.09375 -0.664062 C 0.09375 -0.871094 0.15625 -1.042969 0.277344 -1.175781 C 0.398438 -1.308594 0.558594 -1.375 0.757812 -1.375 C 0.945312 -1.375 1.097656 -1.3125 1.21875 -1.1875 C 1.339844 -1.058594 1.402344 -0.890625 1.402344 -0.683594 M 1.121094 -0.679688 C 1.121094 -0.746094 1.113281 -0.820312 1.101562 -0.894531 C 1.085938 -0.96875 1.066406 -1.035156 1.039062 -1.085938 C 1.011719 -1.140625 0.972656 -1.1875 0.925781 -1.222656 C 0.878906 -1.253906 0.820312 -1.273438 0.753906 -1.273438 C 0.683594 -1.273438 0.625 -1.253906 0.574219 -1.21875 C 0.523438 -1.1875 0.484375 -1.140625 0.453125 -1.078125 C 0.425781 -1.023438 0.40625 -0.960938 0.394531 -0.890625 C 0.382812 -0.820312 0.375 -0.753906 0.375 -0.6875 C 0.375 -0.597656 0.382812 -0.519531 0.398438 -0.445312 C 0.410156 -0.371094 0.433594 -0.304688 0.464844 -0.25 C 0.496094 -0.191406 0.535156 -0.144531 0.582031 -0.113281 C 0.625 -0.078125 0.683594 -0.0625 0.753906 -0.0625 C 0.867188 -0.0625 0.957031 -0.117188 1.023438 -0.226562 C 1.089844 -0.335938 1.121094 -0.488281 1.121094 -0.679688 Z "/>
</g>
<g id="glyph-0-2">
<path d="M 2.386719 0 L 1.734375 0 L 1.734375 -0.0898438 C 1.753906 -0.0898438 1.777344 -0.09375 1.796875 -0.09375 C 1.820312 -0.0976562 1.835938 -0.101562 1.855469 -0.105469 C 1.878906 -0.113281 1.898438 -0.128906 1.910156 -0.148438 C 1.921875 -0.167969 1.929688 -0.195312 1.929688 -0.226562 L 1.929688 -0.917969 C 1.929688 -1.011719 1.90625 -1.085938 1.863281 -1.136719 C 1.820312 -1.1875 1.765625 -1.210938 1.703125 -1.210938 C 1.660156 -1.210938 1.617188 -1.207031 1.578125 -1.191406 C 1.539062 -1.179688 1.503906 -1.160156 1.472656 -1.136719 C 1.445312 -1.113281 1.421875 -1.09375 1.40625 -1.070312 C 1.386719 -1.046875 1.375 -1.027344 1.367188 -1.011719 L 1.367188 -0.242188 C 1.367188 -0.210938 1.371094 -0.183594 1.382812 -0.164062 C 1.394531 -0.144531 1.410156 -0.128906 1.4375 -0.117188 C 1.457031 -0.109375 1.476562 -0.101562 1.492188 -0.0976562 C 1.511719 -0.09375 1.53125 -0.0898438 1.558594 -0.0898438 L 1.558594 0 L 0.921875 0 L 0.921875 -0.0898438 C 0.941406 -0.0898438 0.964844 -0.09375 0.984375 -0.09375 C 1 -0.0976562 1.019531 -0.101562 1.035156 -0.105469 C 1.0625 -0.113281 1.082031 -0.128906 1.09375 -0.148438 C 1.105469 -0.167969 1.109375 -0.195312 1.109375 -0.226562 L 1.109375 -0.917969 C 1.109375 -1.011719 1.089844 -1.085938 1.046875 -1.136719 C 1.003906 -1.1875 0.949219 -1.210938 0.886719 -1.210938 C 0.839844 -1.210938 0.800781 -1.207031 0.761719 -1.191406 C 0.722656 -1.175781 0.683594 -1.15625 0.652344 -1.132812 C 0.625 -1.113281 0.605469 -1.089844 0.585938 -1.066406 C 0.566406 -1.042969 0.554688 -1.023438 0.546875 -1.011719 L 0.546875 -0.242188 C 0.546875 -0.214844 0.550781 -0.1875 0.5625 -0.167969 C 0.578125 -0.144531 0.597656 -0.128906 0.621094 -0.121094 C 0.640625 -0.109375 0.660156 -0.105469 0.679688 -0.0976562 C 0.699219 -0.09375 0.722656 -0.0898438 0.746094 -0.0898438 L 0.746094 0 L 0.0976562 0 L 0.0976562 -0.0898438 C 0.117188 -0.0898438 0.136719 -0.09375 0.160156 -0.09375 C 0.183594 -0.0976562 0.203125 -0.101562 0.21875 -0.105469 C 0.242188 -0.113281 0.261719 -0.128906 0.273438 -0.148438 C 0.285156 -0.167969 0.292969 -0.195312 0.292969 -0.226562 L 0.292969 -1.058594 C 0.292969 -1.085938 0.285156 -1.113281 0.273438 -1.136719 C 0.261719 -1.160156 0.242188 -1.179688 0.21875 -1.195312 C 0.199219 -1.207031 0.179688 -1.214844 0.15625 -1.222656 C 0.128906 -1.226562 0.101562 -1.230469 0.0742188 -1.234375 L 0.0742188 -1.324219 L 0.523438 -1.351562 L 0.542969 -1.335938 L 0.542969 -1.144531 L 0.550781 -1.144531 C 0.574219 -1.164062 0.601562 -1.191406 0.632812 -1.222656 C 0.667969 -1.253906 0.699219 -1.277344 0.726562 -1.296875 C 0.757812 -1.320312 0.796875 -1.335938 0.84375 -1.351562 C 0.890625 -1.367188 0.941406 -1.375 1 -1.375 C 1.085938 -1.375 1.160156 -1.351562 1.222656 -1.304688 C 1.285156 -1.257812 1.328125 -1.199219 1.355469 -1.136719 C 1.386719 -1.167969 1.417969 -1.195312 1.441406 -1.21875 C 1.46875 -1.242188 1.5 -1.269531 1.539062 -1.296875 C 1.574219 -1.320312 1.613281 -1.335938 1.660156 -1.351562 C 1.707031 -1.367188 1.757812 -1.375 1.816406 -1.375 C 1.929688 -1.375 2.019531 -1.335938 2.085938 -1.261719 C 2.152344 -1.1875 2.183594 -1.074219 2.183594 -0.921875 L 2.183594 -0.242188 C 2.183594 -0.210938 2.1875 -0.183594 2.199219 -0.164062 C 2.210938 -0.144531 2.230469 -0.128906 2.253906 -0.117188 C 2.277344 -0.109375 2.296875 -0.101562 2.316406 -0.0976562 C 2.335938 -0.09375 2.359375 -0.0898438 2.386719 -0.0898438 Z "/>
</g>
</g>
</defs>
<g fill="rgb(41.960784%, 44.705882%, 50.196078%)" fill-opacity="1">
<use xlink:href="#glyph-0-0" x="30" y="22.546875"/>
<use xlink:href="#glyph-0-1" x="32" y="22.546875"/>
<use xlink:href="#glyph-0-2" x="33" y="22.546875"/>
</g>
</svg>
