<?xml version="1.0" encoding="UTF-8"?>
<svg xmlns="http://www.w3.org/2000/svg" xmlns:xlink="http://www.w3.org/1999/xlink" width="854" height="480" viewBox="0 0 854 480">
<defs>
<g>
<g id="glyph-0-0">
<path d="M 2.65625 -0.0429688 L 1.859375 0.0078125 L 1.828125 -0.0234375 L 1.828125 -0.234375 L 1.808594 -0.238281 C 1.726562 -0.152344 1.628906 -0.078125 1.511719 -0.0195312 C 1.394531 0.0351562 1.273438 0.0664062 1.148438 0.0664062 C 1.019531 0.0664062 0.894531 0.0351562 0.773438 -0.0234375 C 0.65625 -0.078125 0.550781 -0.160156 0.460938 -0.265625 C 0.371094 -0.371094 0.296875 -0.5 0.246094 -0.648438 C 0.191406 -0.796875 0.167969 -0.960938 0.167969 -1.140625 C 0.167969 -1.304688 0.195312 -1.460938 0.25 -1.609375 C 0.308594 -1.757812 0.386719 -1.886719 0.484375 -1.996094 C 0.578125 -2.101562 0.695312 -2.183594 0.832031 -2.242188 C 0.964844 -2.304688 1.105469 -2.335938 1.246094 -2.335938 C 1.351562 -2.335938 1.457031 -2.324219 1.558594 -2.296875 C 1.660156 -2.269531 1.746094 -2.234375 1.820312 -2.191406 L 1.820312 -2.984375 C 1.820312 -3.050781 1.8125 -3.109375 1.789062 -3.164062 C 1.769531 -3.214844 1.738281 -3.253906 1.699219 -3.285156 C 1.65625 -3.3125 1.597656 -3.332031 1.527344 -3.347656 C 1.453125 -3.359375 1.375 -3.371094 1.289062 -3.375 L 1.289062 -3.519531 L 2.21875 -3.570312 L 2.253906 -3.535156 L 2.253906 -0.46875 C 2.253906 -0.417969 2.265625 -0.371094 2.285156 -0.332031 C 2.308594 -0.296875 2.335938 -0.261719 2.378906 -0.238281 C 2.40625 -0.21875 2.449219 -0.207031 2.503906 -0.203125 C 2.558594 -0.199219 2.609375 -0.195312 2.65625 -0.195312 L 2.65625 -0.0429688 M 1.820312 -0.441406 L 1.820312 -1.769531 C 1.808594 -1.8125 1.789062 -1.855469 1.761719 -1.898438 C 1.734375 -1.945312 1.699219 -1.988281 1.660156 -2.027344 C 1.613281 -2.066406 1.5625 -2.097656 1.5 -2.121094 C 1.441406 -2.148438 1.371094 -2.160156 1.292969 -2.160156 C 1.199219 -2.160156 1.117188 -2.136719 1.039062 -2.089844 C 0.960938 -2.042969 0.890625 -1.972656 0.832031 -1.882812 C 0.773438 -1.796875 0.730469 -1.6875 0.699219 -1.554688 C 0.664062 -1.421875 0.648438 -1.273438 0.648438 -1.113281 C 0.648438 -0.984375 0.660156 -0.867188 0.683594 -0.761719 C 0.710938 -0.65625 0.75 -0.558594 0.808594 -0.46875 C 0.863281 -0.382812 0.929688 -0.3125 1.015625 -0.261719 C 1.097656 -0.207031 1.199219 -0.183594 1.3125 -0.183594 C 1.4375 -0.183594 1.539062 -0.210938 1.617188 -0.261719 C 1.699219 -0.316406 1.765625 -0.375 1.820312 -0.441406 Z "/>
</g>
<g id="glyph-0-1">
<path d="M 1.269531 0 L 0.171875 0 L 0.171875 -0.152344 C 0.207031 -0.15625 0.242188 -0.160156 0.28125 -0.160156 C 0.316406 -0.164062 0.351562 -0.171875 0.378906 -0.179688 C 0.421875 -0.195312 0.453125 -0.21875 0.472656 -0.253906 C 0.496094 -0.285156 0.503906 -0.332031 0.503906 -0.386719 L 0.503906 -1.789062 C 0.503906 -1.839844 0.492188 -1.882812 0.472656 -1.925781 C 0.449219 -1.964844 0.417969 -2 0.378906 -2.027344 C 0.347656 -2.046875 0.308594 -2.0625 0.25 -2.074219 C 0.195312 -2.085938 0.144531 -2.09375 0.0976562 -2.097656 L 0.0976562 -2.25 L 0.902344 -2.300781 L 0.933594 -2.269531 L 0.933594 -0.414062 C 0.933594 -0.359375 0.945312 -0.316406 0.964844 -0.28125 C 0.984375 -0.246094 1.019531 -0.21875 1.0625 -0.203125 C 1.097656 -0.1875 1.128906 -0.179688 1.160156 -0.167969 C 1.191406 -0.160156 1.230469 -0.15625 1.269531 -0.152344 L 1.269531 0 M 1.179688 -3.367188 C 1.179688 -3.308594 1.167969 -3.261719 1.140625 -3.222656 C 1.113281 -3.1875 1.074219 -3.148438 1.023438 -3.105469 C 0.945312 -3.042969 0.84375 -2.964844 0.71875 -2.871094 C 0.597656 -2.777344 0.464844 -2.671875 0.320312 -2.558594 L 0.234375 -2.632812 C 0.371094 -2.839844 0.46875 -2.980469 0.523438 -3.066406 C 0.578125 -3.148438 0.636719 -3.242188 0.699219 -3.34375 C 0.746094 -3.421875 0.792969 -3.476562 0.835938 -3.503906 C 0.882812 -3.53125 0.933594 -3.546875 0.992188 -3.546875 C 1.046875 -3.546875 1.09375 -3.527344 1.128906 -3.488281 C 1.164062 -3.453125 1.179688 -3.410156 1.179688 -3.367188 Z "/>
</g>
<g id="glyph-0-2">
<path d="M 2.320312 -0.0429688 C 2.246094 -0.015625 2.183594 0.00390625 2.128906 0.0234375 C 2.074219 0.0390625 2.011719 0.046875 1.945312 0.046875 C 1.824219 0.046875 1.726562 0.0195312 1.65625 -0.0390625 C 1.585938 -0.09375 1.539062 -0.175781 1.519531 -0.285156 L 1.503906 -0.285156 C 1.40625 -0.171875 1.296875 -0.0898438 1.183594 -0.03125 C 1.070312 0.0273438 0.929688 0.0585938 0.769531 0.0585938 C 0.597656 0.0585938 0.460938 0.00390625 0.347656 -0.0976562 C 0.238281 -0.203125 0.183594 -0.339844 0.183594 -0.507812 C 0.183594 -0.597656 0.195312 -0.675781 0.222656 -0.746094 C 0.246094 -0.8125 0.28125 -0.875 0.332031 -0.929688 C 0.371094 -0.976562 0.421875 -1.019531 0.484375 -1.054688 C 0.546875 -1.089844 0.605469 -1.121094 0.660156 -1.140625 C 0.730469 -1.167969 0.871094 -1.214844 1.082031 -1.285156 C 1.292969 -1.359375 1.4375 -1.414062 1.511719 -1.453125 L 1.511719 -1.679688 C 1.511719 -1.699219 1.507812 -1.738281 1.496094 -1.796875 C 1.488281 -1.851562 1.472656 -1.90625 1.445312 -1.957031 C 1.414062 -2.015625 1.371094 -2.0625 1.3125 -2.105469 C 1.257812 -2.148438 1.175781 -2.171875 1.074219 -2.171875 C 1.003906 -2.171875 0.9375 -2.15625 0.878906 -2.132812 C 0.816406 -2.109375 0.773438 -2.085938 0.75 -2.058594 C 0.75 -2.027344 0.757812 -1.984375 0.769531 -1.921875 C 0.785156 -1.863281 0.792969 -1.808594 0.792969 -1.757812 C 0.792969 -1.703125 0.769531 -1.652344 0.71875 -1.609375 C 0.671875 -1.566406 0.605469 -1.542969 0.519531 -1.542969 C 0.441406 -1.542969 0.386719 -1.570312 0.347656 -1.625 C 0.3125 -1.679688 0.296875 -1.742188 0.296875 -1.808594 C 0.296875 -1.878906 0.320312 -1.945312 0.371094 -2.011719 C 0.421875 -2.074219 0.484375 -2.132812 0.566406 -2.183594 C 0.632812 -2.226562 0.71875 -2.261719 0.816406 -2.292969 C 0.914062 -2.324219 1.011719 -2.339844 1.105469 -2.339844 C 1.234375 -2.339844 1.347656 -2.328125 1.441406 -2.3125 C 1.539062 -2.292969 1.625 -2.257812 1.703125 -2.199219 C 1.78125 -2.140625 1.84375 -2.0625 1.882812 -1.964844 C 1.921875 -1.867188 1.945312 -1.742188 1.945312 -1.589844 C 1.945312 -1.367188 1.941406 -1.175781 1.9375 -1.003906 C 1.933594 -0.835938 1.929688 -0.648438 1.929688 -0.449219 C 1.929688 -0.386719 1.941406 -0.339844 1.960938 -0.304688 C 1.980469 -0.269531 2.015625 -0.238281 2.058594 -0.214844 C 2.078125 -0.199219 2.117188 -0.191406 2.167969 -0.191406 C 2.214844 -0.191406 2.265625 -0.1875 2.320312 -0.1875 L 2.320312 -0.0429688 M 1.515625 -1.257812 C 1.382812 -1.21875 1.269531 -1.183594 1.171875 -1.144531 C 1.074219 -1.109375 0.980469 -1.0625 0.898438 -1.007812 C 0.820312 -0.953125 0.757812 -0.894531 0.714844 -0.820312 C 0.671875 -0.75 0.648438 -0.664062 0.648438 -0.566406 C 0.648438 -0.4375 0.679688 -0.34375 0.75 -0.285156 C 0.816406 -0.222656 0.898438 -0.195312 1.003906 -0.195312 C 1.113281 -0.195312 1.207031 -0.21875 1.292969 -0.273438 C 1.375 -0.328125 1.445312 -0.390625 1.5 -0.460938 Z "/>
</g>
<g id="glyph-0-3">
</g>
<g id="glyph-1-0">
<path d="M 3.0625 -1.585938 L 0.386719 -1.585938 L 0.386719 -1.808594 L 3.0625 -1.808594 L 2.75 -2.230469 L 2.75 -2.289062 L 4.335938 -1.695312 L 2.75 -1.105469 L 2.75 -1.164062 Z "/>
</g>
</g>
</defs>
<g fill="rgb(97.647059%, 65.882353%, 14.509804%)" fill-opacity="1">
<use xlink:href="#glyph-0-0" x="30" y="24.331055"/>
<use xlink:href="#glyph-0-1" x="33" y="24.331055"/>
<use xlink:href="#glyph-0-2" x="34" y="24.331055"/>
<use xlink:href="#glyph-0-3" x="36" y="24.331055"/>
<use xlink:href="#glyph-0-2" x="37" y="24.331055"/>
<use xlink:href="#glyph-0-3" x="39" y="24.331055"/>
<use xlink:href="#glyph-0-0" x="40" y="24.331055"/>
<use xlink:href="#glyph-0-1" x="43" y="24.331055"/>
<use xlink:href="#glyph-0-2" x="44" y="24.331055"/>
<use xlink:href="#glyph-0-3" x="46" y="24.331055"/>
</g>
<g fill="rgb(97.647059%, 65.882353%, 14.509804%)" fill-opacity="1">
<use xlink:href="#glyph-1-0" x="47" y="24.331055"/>
</g>
</svg>
