<?xml version="1.0" encoding="UTF-8"?>
<svg xmlns="http://www.w3.org/2000/svg" xmlns:xlink="http://www.w3.org/1999/xlink" width="854" height="480" viewBox="0 0 854 480">
<defs>
<g>
<g id="glyph-0-0">
<path d="M 2.449219 0 L 1.597656 0 L 1.597656 -0.0976562 C 1.628906 -0.0976562 1.667969 -0.101562 1.71875 -0.105469 C 1.765625 -0.109375 1.800781 -0.117188 1.816406 -0.128906 C 1.84375 -0.144531 1.867188 -0.164062 1.878906 -0.1875 C 1.890625 -0.210938 1.898438 -0.238281 1.898438 -0.269531 L 1.898438 -1.671875 L 1.878906 -1.671875 L 1.222656 -0.03125 L 1.152344 -0.03125 L 0.527344 -1.703125 L 0.511719 -1.703125 L 0.511719 -0.554688 C 0.511719 -0.445312 0.519531 -0.359375 0.53125 -0.300781 C 0.546875 -0.246094 0.566406 -0.203125 0.597656 -0.175781 C 0.617188 -0.160156 0.65625 -0.140625 0.71875 -0.125 C 0.78125 -0.105469 0.824219 -0.0976562 0.84375 -0.0976562 L 0.84375 0 L 0.0664062 0 L 0.0664062 -0.0976562 C 0.105469 -0.101562 0.148438 -0.105469 0.191406 -0.117188 C 0.238281 -0.125 0.273438 -0.140625 0.296875 -0.160156 C 0.328125 -0.1875 0.351562 -0.226562 0.363281 -0.277344 C 0.375 -0.332031 0.378906 -0.417969 0.378906 -0.542969 L 0.378906 -1.527344 C 0.378906 -1.582031 0.371094 -1.628906 0.359375 -1.664062 C 0.347656 -1.703125 0.328125 -1.730469 0.300781 -1.753906 C 0.273438 -1.777344 0.238281 -1.796875 0.199219 -1.808594 C 0.15625 -1.820312 0.117188 -1.828125 0.078125 -1.828125 L 0.078125 -1.925781 L 0.734375 -1.925781 L 1.285156 -0.480469 L 1.753906 -1.6875 C 1.773438 -1.734375 1.785156 -1.777344 1.800781 -1.828125 C 1.8125 -1.875 1.816406 -1.90625 1.820312 -1.925781 L 2.445312 -1.925781 L 2.445312 -1.828125 C 2.421875 -1.828125 2.390625 -1.824219 2.347656 -1.816406 C 2.308594 -1.808594 2.28125 -1.800781 2.261719 -1.796875 C 2.234375 -1.785156 2.210938 -1.765625 2.199219 -1.742188 C 2.191406 -1.714844 2.183594 -1.6875 2.183594 -1.660156 L 2.183594 -0.269531 C 2.183594 -0.238281 2.191406 -0.214844 2.199219 -0.191406 C 2.210938 -0.167969 2.234375 -0.152344 2.261719 -0.132812 C 2.28125 -0.125 2.308594 -0.117188 2.351562 -0.109375 C 2.390625 -0.101562 2.425781 -0.0976562 2.449219 -0.0976562 Z "/>
</g>
<g id="glyph-0-1">
<path d="M 1.457031 -0.625 C 1.457031 -0.53125 1.441406 -0.441406 1.40625 -0.359375 C 1.375 -0.277344 1.328125 -0.207031 1.269531 -0.148438 C 1.203125 -0.0859375 1.132812 -0.0351562 1.050781 -0.00390625 C 0.972656 0.0273438 0.886719 0.0429688 0.800781 0.0429688 C 0.699219 0.0429688 0.609375 0.0234375 0.527344 -0.0117188 C 0.449219 -0.0507812 0.378906 -0.101562 0.320312 -0.167969 C 0.261719 -0.238281 0.21875 -0.320312 0.1875 -0.421875 C 0.15625 -0.519531 0.140625 -0.632812 0.140625 -0.757812 C 0.140625 -1.078125 0.234375 -1.351562 0.429688 -1.570312 C 0.621094 -1.792969 0.878906 -1.925781 1.199219 -1.96875 L 1.222656 -1.847656 L 1.101562 -1.828125 C 0.90625 -1.761719 0.753906 -1.664062 0.648438 -1.53125 C 0.539062 -1.398438 0.472656 -1.234375 0.4375 -1.042969 C 0.515625 -1.113281 0.59375 -1.160156 0.671875 -1.1875 C 0.746094 -1.214844 0.824219 -1.230469 0.910156 -1.230469 C 1.0625 -1.230469 1.191406 -1.171875 1.296875 -1.054688 C 1.402344 -0.941406 1.457031 -0.796875 1.457031 -0.625 M 1.164062 -0.589844 C 1.164062 -0.734375 1.128906 -0.851562 1.0625 -0.941406 C 0.996094 -1.03125 0.90625 -1.074219 0.792969 -1.074219 C 0.722656 -1.074219 0.660156 -1.0625 0.601562 -1.035156 C 0.542969 -1.011719 0.488281 -0.96875 0.433594 -0.910156 C 0.433594 -0.898438 0.433594 -0.871094 0.429688 -0.832031 C 0.429688 -0.792969 0.425781 -0.761719 0.425781 -0.742188 C 0.425781 -0.527344 0.460938 -0.363281 0.53125 -0.242188 C 0.601562 -0.125 0.691406 -0.0625 0.804688 -0.0625 C 0.910156 -0.0625 1 -0.109375 1.066406 -0.203125 C 1.128906 -0.296875 1.164062 -0.425781 1.164062 -0.589844 Z "/>
</g>
</g>
</defs>
<g fill="rgb(41.960784%, 44.705882%, 50.196078%)" fill-opacity="1">
<use xlink:href="#glyph-0-0" x="30" y="22.546875"/>
<use xlink:href="#glyph-0-1" x="33" y="22.546875"/>
</g>
</svg>
