<?xml version="1.0" encoding="UTF-8"?>
<svg xmlns="http://www.w3.org/2000/svg" xmlns:xlink="http://www.w3.org/1999/xlink" width="854" height="480" viewBox="0 0 854 480">
<defs>
<g>
<g id="glyph-0-0">
<path d="M 3.960938 -3.152344 L 3.734375 -3.152344 C 3.675781 -3.3125 3.574219 -3.476562 3.433594 -3.640625 C 3.292969 -3.804688 3.152344 -3.902344 3.011719 -3.933594 C 2.953125 -3.945312 2.871094 -3.953125 2.765625 -3.957031 C 2.65625 -3.960938 2.570312 -3.960938 2.5 -3.960938 L 1.886719 -3.960938 L 1.886719 -2.332031 L 2.320312 -2.332031 C 2.429688 -2.332031 2.53125 -2.34375 2.621094 -2.367188 C 2.710938 -2.394531 2.789062 -2.445312 2.863281 -2.519531 C 2.910156 -2.5625 2.957031 -2.644531 3.003906 -2.761719 C 3.050781 -2.875 3.082031 -2.976562 3.09375 -3.0625 L 3.320312 -3.0625 L 3.320312 -1.296875 L 3.09375 -1.296875 C 3.082031 -1.378906 3.050781 -1.484375 3.003906 -1.609375 C 2.953125 -1.734375 2.90625 -1.824219 2.863281 -1.871094 C 2.796875 -1.941406 2.722656 -1.992188 2.632812 -2.019531 C 2.542969 -2.046875 2.4375 -2.058594 2.320312 -2.058594 L 1.886719 -2.058594 L 1.886719 -0.839844 C 1.886719 -0.710938 1.894531 -0.609375 1.914062 -0.535156 C 1.933594 -0.460938 1.96875 -0.402344 2.019531 -0.363281 C 2.070312 -0.328125 2.136719 -0.300781 2.222656 -0.289062 C 2.3125 -0.277344 2.429688 -0.273438 2.578125 -0.273438 C 2.648438 -0.273438 2.730469 -0.273438 2.828125 -0.273438 C 2.925781 -0.277344 3.011719 -0.28125 3.085938 -0.292969 C 3.167969 -0.300781 3.246094 -0.316406 3.320312 -0.335938 C 3.390625 -0.355469 3.445312 -0.386719 3.480469 -0.421875 C 3.578125 -0.519531 3.683594 -0.667969 3.804688 -0.871094 C 3.921875 -1.070312 4.003906 -1.21875 4.039062 -1.320312 L 4.257812 -1.320312 L 4.175781 0 L 0.207031 0 L 0.207031 -0.234375 C 0.261719 -0.238281 0.335938 -0.246094 0.433594 -0.257812 C 0.527344 -0.269531 0.597656 -0.28125 0.636719 -0.296875 C 0.710938 -0.332031 0.761719 -0.371094 0.789062 -0.417969 C 0.8125 -0.46875 0.828125 -0.53125 0.828125 -0.605469 L 0.828125 -3.59375 C 0.828125 -3.664062 0.816406 -3.722656 0.792969 -3.769531 C 0.773438 -3.816406 0.71875 -3.859375 0.636719 -3.898438 C 0.582031 -3.921875 0.511719 -3.941406 0.417969 -3.960938 C 0.324219 -3.980469 0.253906 -3.996094 0.207031 -4 L 0.207031 -4.234375 L 3.960938 -4.234375 Z "/>
</g>
<g id="glyph-0-1">
<path d="M 3.800781 -1.46875 L 2.390625 -1.46875 L 2.390625 -0.0585938 L 1.902344 -0.0585938 L 1.902344 -1.46875 L 0.488281 -1.46875 L 0.488281 -1.957031 L 1.902344 -1.957031 L 1.902344 -3.367188 L 2.390625 -3.367188 L 2.390625 -1.957031 L 3.800781 -1.957031 Z "/>
</g>
<g id="glyph-0-2">
<path d="M 2.824219 0 L 0.359375 0 L 0.359375 -0.226562 C 0.421875 -0.230469 0.515625 -0.242188 0.644531 -0.257812 C 0.777344 -0.273438 0.867188 -0.289062 0.914062 -0.304688 C 0.972656 -0.324219 1.019531 -0.359375 1.054688 -0.40625 C 1.085938 -0.453125 1.105469 -0.519531 1.105469 -0.601562 L 1.105469 -2.496094 L 0.347656 -2.496094 L 0.347656 -2.777344 L 0.511719 -2.777344 C 0.6875 -2.777344 0.835938 -2.796875 0.960938 -2.835938 C 1.089844 -2.871094 1.195312 -2.917969 1.277344 -2.972656 C 1.363281 -3.027344 1.433594 -3.085938 1.488281 -3.144531 C 1.542969 -3.203125 1.585938 -3.257812 1.617188 -3.304688 L 2.140625 -3.304688 C 2.136719 -3.171875 2.128906 -3.023438 2.125 -2.847656 C 2.117188 -2.675781 2.117188 -2.519531 2.117188 -2.382812 L 2.117188 -0.636719 C 2.117188 -0.5625 2.132812 -0.5 2.160156 -0.449219 C 2.191406 -0.394531 2.238281 -0.355469 2.292969 -0.328125 C 2.347656 -0.304688 2.433594 -0.28125 2.554688 -0.261719 C 2.675781 -0.242188 2.765625 -0.230469 2.824219 -0.226562 Z "/>
</g>
</g>
</defs>
<g fill="rgb(16.078431%, 71.372549%, 96.470588%)" fill-opacity="1">
<use xlink:href="#glyph-0-0" x="30" y="25.603516"/>
<use xlink:href="#glyph-0-1" x="34" y="25.603516"/>
<use xlink:href="#glyph-0-2" x="38" y="25.603516"/>
</g>
</svg>
