<?xml version="1.0" encoding="UTF-8"?>
<svg xmlns="http://www.w3.org/2000/svg" xmlns:xlink="http://www.w3.org/1999/xlink" width="854" height="480" viewBox="0 0 854 480">
<defs>
<g>
<g id="glyph-0-0">
<path d="M 1.332031 -0.882812 C 1.371094 -0.835938 1.402344 -0.789062 1.421875 -0.734375 C 1.441406 -0.679688 1.449219 -0.617188 1.449219 -0.546875 C 1.449219 -0.375 1.386719 -0.238281 1.261719 -0.125 C 1.136719 -0.015625 0.980469 0.0390625 0.792969 0.0390625 C 0.707031 0.0390625 0.621094 0.0273438 0.535156 0 C 0.449219 -0.0273438 0.375 -0.0585938 0.3125 -0.0976562 L 0.253906 0 L 0.144531 0 L 0.128906 -0.65625 L 0.238281 -0.65625 C 0.261719 -0.578125 0.285156 -0.503906 0.316406 -0.4375 C 0.347656 -0.371094 0.386719 -0.3125 0.4375 -0.253906 C 0.484375 -0.199219 0.539062 -0.15625 0.601562 -0.125 C 0.664062 -0.09375 0.738281 -0.078125 0.820312 -0.078125 C 0.882812 -0.078125 0.9375 -0.0859375 0.984375 -0.101562 C 1.03125 -0.121094 1.066406 -0.140625 1.097656 -0.171875 C 1.125 -0.203125 1.148438 -0.238281 1.160156 -0.277344 C 1.175781 -0.316406 1.183594 -0.363281 1.183594 -0.417969 C 1.183594 -0.492188 1.160156 -0.566406 1.117188 -0.632812 C 1.074219 -0.699219 1.007812 -0.75 0.921875 -0.785156 C 0.863281 -0.808594 0.796875 -0.832031 0.722656 -0.859375 C 0.644531 -0.890625 0.578125 -0.917969 0.523438 -0.941406 C 0.417969 -0.992188 0.332031 -1.054688 0.273438 -1.132812 C 0.210938 -1.210938 0.183594 -1.316406 0.183594 -1.441406 C 0.183594 -1.515625 0.195312 -1.585938 0.226562 -1.648438 C 0.257812 -1.710938 0.296875 -1.765625 0.355469 -1.816406 C 0.40625 -1.863281 0.46875 -1.902344 0.539062 -1.929688 C 0.609375 -1.953125 0.6875 -1.96875 0.761719 -1.96875 C 0.851562 -1.96875 0.929688 -1.953125 1 -1.925781 C 1.070312 -1.898438 1.136719 -1.867188 1.195312 -1.832031 L 1.25 -1.925781 L 1.359375 -1.925781 L 1.367188 -1.285156 L 1.257812 -1.285156 C 1.238281 -1.359375 1.214844 -1.429688 1.191406 -1.496094 C 1.167969 -1.5625 1.132812 -1.625 1.09375 -1.675781 C 1.054688 -1.730469 1.007812 -1.773438 0.953125 -1.804688 C 0.894531 -1.835938 0.828125 -1.851562 0.746094 -1.851562 C 0.660156 -1.851562 0.585938 -1.820312 0.527344 -1.765625 C 0.464844 -1.710938 0.433594 -1.644531 0.433594 -1.566406 C 0.433594 -1.480469 0.453125 -1.414062 0.492188 -1.359375 C 0.53125 -1.304688 0.589844 -1.257812 0.664062 -1.222656 C 0.730469 -1.191406 0.792969 -1.164062 0.859375 -1.140625 C 0.921875 -1.117188 0.984375 -1.09375 1.042969 -1.066406 C 1.097656 -1.042969 1.148438 -1.015625 1.199219 -0.988281 C 1.25 -0.957031 1.292969 -0.921875 1.332031 -0.882812 Z "/>
</g>
<g id="glyph-0-1">
<path d="M 1.363281 -0.0234375 C 1.320312 -0.0078125 1.285156 0.00390625 1.253906 0.0117188 C 1.21875 0.0234375 1.183594 0.0273438 1.144531 0.0273438 C 1.074219 0.0273438 1.015625 0.0117188 0.972656 -0.0234375 C 0.933594 -0.0546875 0.90625 -0.105469 0.894531 -0.167969 L 0.886719 -0.167969 C 0.828125 -0.101562 0.765625 -0.0507812 0.695312 -0.0195312 C 0.628906 0.015625 0.546875 0.0351562 0.453125 0.0351562 C 0.351562 0.0351562 0.269531 0.00390625 0.207031 -0.0585938 C 0.140625 -0.121094 0.109375 -0.199219 0.109375 -0.300781 C 0.109375 -0.351562 0.117188 -0.398438 0.128906 -0.4375 C 0.144531 -0.480469 0.167969 -0.515625 0.195312 -0.546875 C 0.21875 -0.574219 0.246094 -0.597656 0.285156 -0.621094 C 0.320312 -0.640625 0.355469 -0.660156 0.390625 -0.671875 C 0.429688 -0.6875 0.511719 -0.714844 0.636719 -0.757812 C 0.761719 -0.796875 0.84375 -0.832031 0.886719 -0.855469 L 0.886719 -0.988281 C 0.886719 -1 0.886719 -1.023438 0.878906 -1.054688 C 0.875 -1.089844 0.863281 -1.121094 0.847656 -1.152344 C 0.832031 -1.183594 0.804688 -1.214844 0.773438 -1.238281 C 0.738281 -1.265625 0.691406 -1.277344 0.632812 -1.277344 C 0.589844 -1.277344 0.550781 -1.269531 0.515625 -1.253906 C 0.480469 -1.242188 0.457031 -1.226562 0.441406 -1.210938 C 0.441406 -1.191406 0.445312 -1.167969 0.453125 -1.132812 C 0.460938 -1.097656 0.464844 -1.0625 0.464844 -1.035156 C 0.464844 -1 0.453125 -0.972656 0.421875 -0.945312 C 0.394531 -0.921875 0.355469 -0.90625 0.304688 -0.90625 C 0.261719 -0.90625 0.226562 -0.921875 0.207031 -0.957031 C 0.183594 -0.988281 0.171875 -1.023438 0.171875 -1.0625 C 0.171875 -1.105469 0.1875 -1.144531 0.21875 -1.183594 C 0.246094 -1.21875 0.285156 -1.253906 0.332031 -1.285156 C 0.371094 -1.308594 0.421875 -1.332031 0.480469 -1.347656 C 0.539062 -1.367188 0.59375 -1.375 0.648438 -1.375 C 0.726562 -1.375 0.792969 -1.371094 0.847656 -1.359375 C 0.90625 -1.347656 0.957031 -1.328125 1.003906 -1.292969 C 1.046875 -1.257812 1.082031 -1.214844 1.105469 -1.15625 C 1.132812 -1.097656 1.144531 -1.023438 1.144531 -0.933594 C 1.144531 -0.804688 1.140625 -0.691406 1.140625 -0.589844 C 1.136719 -0.492188 1.136719 -0.382812 1.136719 -0.261719 C 1.136719 -0.226562 1.140625 -0.199219 1.152344 -0.179688 C 1.164062 -0.160156 1.183594 -0.140625 1.210938 -0.125 C 1.222656 -0.117188 1.246094 -0.113281 1.273438 -0.113281 C 1.304688 -0.113281 1.332031 -0.109375 1.363281 -0.109375 L 1.363281 -0.0234375 M 0.890625 -0.742188 C 0.8125 -0.71875 0.746094 -0.695312 0.6875 -0.675781 C 0.632812 -0.652344 0.578125 -0.625 0.527344 -0.59375 C 0.480469 -0.5625 0.445312 -0.523438 0.421875 -0.484375 C 0.394531 -0.441406 0.382812 -0.390625 0.382812 -0.332031 C 0.382812 -0.257812 0.402344 -0.203125 0.441406 -0.167969 C 0.480469 -0.132812 0.53125 -0.113281 0.589844 -0.113281 C 0.652344 -0.113281 0.710938 -0.128906 0.757812 -0.160156 C 0.808594 -0.191406 0.847656 -0.230469 0.882812 -0.273438 Z "/>
</g>
<g id="glyph-0-2">
<path d="M 1.457031 -0.671875 C 1.457031 -0.46875 1.390625 -0.300781 1.265625 -0.164062 C 1.140625 -0.0273438 0.992188 0.0390625 0.824219 0.0390625 C 0.75 0.0390625 0.679688 0.03125 0.609375 0.0078125 C 0.539062 -0.015625 0.46875 -0.046875 0.40625 -0.0859375 L 0.308594 0.0703125 L 0.222656 0.0546875 C 0.226562 -0.015625 0.230469 -0.09375 0.234375 -0.1875 C 0.234375 -0.28125 0.234375 -0.375 0.234375 -0.460938 L 0.234375 -1.785156 C 0.234375 -1.816406 0.230469 -1.847656 0.214844 -1.878906 C 0.199219 -1.910156 0.183594 -1.929688 0.160156 -1.945312 C 0.144531 -1.957031 0.117188 -1.964844 0.0742188 -1.972656 C 0.0351562 -1.976562 0.00390625 -1.980469 -0.0234375 -1.984375 L -0.0234375 -2.070312 L 0.46875 -2.097656 L 0.488281 -2.078125 L 0.488281 -1.199219 L 0.496094 -1.195312 C 0.554688 -1.253906 0.613281 -1.300781 0.679688 -1.328125 C 0.746094 -1.359375 0.8125 -1.375 0.878906 -1.375 C 1.042969 -1.375 1.179688 -1.308594 1.289062 -1.179688 C 1.398438 -1.046875 1.457031 -0.878906 1.457031 -0.671875 M 1.171875 -0.660156 C 1.171875 -0.726562 1.164062 -0.796875 1.148438 -0.863281 C 1.136719 -0.933594 1.113281 -0.996094 1.082031 -1.046875 C 1.050781 -1.097656 1.011719 -1.140625 0.960938 -1.175781 C 0.910156 -1.207031 0.851562 -1.222656 0.78125 -1.222656 C 0.71875 -1.222656 0.664062 -1.210938 0.617188 -1.1875 C 0.570312 -1.160156 0.527344 -1.128906 0.488281 -1.085938 L 0.488281 -0.304688 C 0.492188 -0.285156 0.503906 -0.257812 0.519531 -0.230469 C 0.535156 -0.203125 0.558594 -0.175781 0.585938 -0.148438 C 0.613281 -0.121094 0.640625 -0.101562 0.675781 -0.0859375 C 0.710938 -0.0703125 0.753906 -0.0625 0.804688 -0.0625 C 0.914062 -0.0625 1.003906 -0.117188 1.070312 -0.222656 C 1.136719 -0.328125 1.171875 -0.476562 1.171875 -0.660156 Z "/>
</g>
</g>
</defs>
<g fill="rgb(41.960784%, 44.705882%, 50.196078%)" fill-opacity="1">
<use xlink:href="#glyph-0-0" x="30" y="22.546875"/>
<use xlink:href="#glyph-0-1" x="32" y="22.546875"/>
<use xlink:href="#glyph-0-2" x="33" y="22.546875"/>
</g>
</svg>
