<?xml version="1.0" encoding="UTF-8"?>
<svg xmlns="http://www.w3.org/2000/svg" xmlns:xlink="http://www.w3.org/1999/xlink" width="854" height="480" viewBox="0 0 854 480">
<defs>
<g>
<g id="glyph-0-0">
<path d="M 1.597656 -1.058594 C 1.644531 -1.003906 1.679688 -0.945312 1.703125 -0.882812 C 1.726562 -0.816406 1.738281 -0.742188 1.738281 -0.65625 C 1.738281 -0.453125 1.664062 -0.285156 1.511719 -0.152344 C 1.363281 -0.0195312 1.175781 0.046875 0.953125 0.046875 C 0.847656 0.046875 0.746094 0.03125 0.644531 0 C 0.539062 -0.03125 0.449219 -0.0703125 0.375 -0.117188 L 0.304688 0 L 0.175781 0 L 0.152344 -0.789062 L 0.285156 -0.789062 C 0.3125 -0.691406 0.34375 -0.605469 0.378906 -0.523438 C 0.417969 -0.445312 0.464844 -0.371094 0.523438 -0.304688 C 0.582031 -0.242188 0.644531 -0.1875 0.722656 -0.152344 C 0.796875 -0.113281 0.886719 -0.09375 0.984375 -0.09375 C 1.058594 -0.09375 1.125 -0.105469 1.179688 -0.125 C 1.238281 -0.144531 1.28125 -0.171875 1.316406 -0.207031 C 1.351562 -0.242188 1.378906 -0.285156 1.394531 -0.332031 C 1.410156 -0.382812 1.417969 -0.4375 1.417969 -0.5 C 1.417969 -0.59375 1.394531 -0.679688 1.339844 -0.757812 C 1.289062 -0.839844 1.210938 -0.898438 1.109375 -0.941406 C 1.039062 -0.96875 0.957031 -1 0.867188 -1.035156 C 0.773438 -1.066406 0.695312 -1.101562 0.628906 -1.128906 C 0.5 -1.1875 0.398438 -1.265625 0.328125 -1.359375 C 0.253906 -1.453125 0.21875 -1.578125 0.21875 -1.730469 C 0.21875 -1.820312 0.234375 -1.902344 0.273438 -1.976562 C 0.308594 -2.054688 0.359375 -2.121094 0.425781 -2.179688 C 0.488281 -2.238281 0.5625 -2.28125 0.648438 -2.3125 C 0.734375 -2.34375 0.824219 -2.363281 0.917969 -2.363281 C 1.023438 -2.363281 1.117188 -2.34375 1.203125 -2.3125 C 1.285156 -2.28125 1.363281 -2.242188 1.433594 -2.199219 L 1.5 -2.308594 L 1.628906 -2.308594 L 1.640625 -1.542969 L 1.511719 -1.542969 C 1.488281 -1.628906 1.460938 -1.714844 1.429688 -1.796875 C 1.398438 -1.875 1.359375 -1.949219 1.3125 -2.011719 C 1.265625 -2.078125 1.210938 -2.125 1.140625 -2.164062 C 1.074219 -2.203125 0.992188 -2.21875 0.894531 -2.21875 C 0.792969 -2.21875 0.703125 -2.1875 0.632812 -2.121094 C 0.558594 -2.054688 0.523438 -1.972656 0.523438 -1.878906 C 0.523438 -1.777344 0.546875 -1.695312 0.59375 -1.628906 C 0.640625 -1.5625 0.707031 -1.511719 0.796875 -1.46875 C 0.875 -1.429688 0.953125 -1.398438 1.03125 -1.371094 C 1.105469 -1.34375 1.179688 -1.3125 1.25 -1.28125 C 1.316406 -1.253906 1.378906 -1.21875 1.441406 -1.183594 C 1.5 -1.148438 1.550781 -1.105469 1.597656 -1.058594 Z "/>
</g>
<g id="glyph-0-1">
<path d="M 1.542969 -0.378906 C 1.476562 -0.25 1.386719 -0.148438 1.273438 -0.0703125 C 1.160156 0.00390625 1.03125 0.0429688 0.882812 0.0429688 C 0.753906 0.0429688 0.640625 0.0195312 0.542969 -0.0273438 C 0.449219 -0.0703125 0.367188 -0.132812 0.304688 -0.210938 C 0.242188 -0.289062 0.195312 -0.378906 0.164062 -0.484375 C 0.132812 -0.589844 0.117188 -0.699219 0.117188 -0.816406 C 0.117188 -0.917969 0.132812 -1.023438 0.167969 -1.121094 C 0.199219 -1.222656 0.25 -1.3125 0.3125 -1.394531 C 0.375 -1.46875 0.449219 -1.53125 0.542969 -1.578125 C 0.632812 -1.625 0.738281 -1.648438 0.851562 -1.648438 C 0.96875 -1.648438 1.070312 -1.632812 1.152344 -1.59375 C 1.234375 -1.558594 1.304688 -1.507812 1.355469 -1.445312 C 1.40625 -1.382812 1.441406 -1.3125 1.46875 -1.230469 C 1.492188 -1.144531 1.503906 -1.058594 1.503906 -0.960938 L 1.503906 -0.851562 L 0.441406 -0.851562 C 0.441406 -0.746094 0.449219 -0.652344 0.472656 -0.566406 C 0.492188 -0.480469 0.523438 -0.402344 0.566406 -0.339844 C 0.609375 -0.277344 0.664062 -0.226562 0.730469 -0.191406 C 0.800781 -0.152344 0.882812 -0.136719 0.976562 -0.136719 C 1.074219 -0.136719 1.15625 -0.15625 1.226562 -0.203125 C 1.296875 -0.25 1.363281 -0.328125 1.429688 -0.449219 L 1.542969 -0.378906 M 1.183594 -0.988281 C 1.183594 -1.050781 1.179688 -1.113281 1.167969 -1.183594 C 1.15625 -1.253906 1.140625 -1.3125 1.117188 -1.359375 C 1.09375 -1.40625 1.058594 -1.449219 1.015625 -1.480469 C 0.972656 -1.511719 0.917969 -1.527344 0.847656 -1.527344 C 0.734375 -1.527344 0.640625 -1.480469 0.5625 -1.382812 C 0.488281 -1.289062 0.449219 -1.160156 0.441406 -0.988281 Z "/>
</g>
<g id="glyph-0-2">
<path d="M 1.582031 -1.414062 C 1.648438 -1.339844 1.699219 -1.25 1.734375 -1.148438 C 1.769531 -1.050781 1.785156 -0.933594 1.785156 -0.804688 C 1.785156 -0.679688 1.765625 -0.5625 1.722656 -0.457031 C 1.679688 -0.351562 1.625 -0.265625 1.554688 -0.191406 C 1.480469 -0.117188 1.402344 -0.0585938 1.3125 -0.0195312 C 1.222656 0.0234375 1.128906 0.0429688 1.027344 0.0429688 C 0.933594 0.0429688 0.851562 0.03125 0.789062 0.0078125 C 0.730469 -0.0117188 0.679688 -0.0390625 0.640625 -0.0664062 L 0.625 -0.0664062 L 0.625 0.417969 C 0.625 0.457031 0.632812 0.488281 0.648438 0.515625 C 0.664062 0.539062 0.6875 0.558594 0.71875 0.570312 C 0.746094 0.582031 0.78125 0.589844 0.832031 0.601562 C 0.878906 0.609375 0.917969 0.613281 0.949219 0.617188 L 0.949219 0.722656 L 0.0546875 0.722656 L 0.0546875 0.617188 C 0.0859375 0.613281 0.121094 0.609375 0.152344 0.605469 C 0.183594 0.605469 0.210938 0.597656 0.234375 0.589844 C 0.269531 0.578125 0.292969 0.5625 0.304688 0.535156 C 0.316406 0.507812 0.324219 0.476562 0.324219 0.4375 L 0.324219 -1.269531 C 0.324219 -1.300781 0.316406 -1.332031 0.300781 -1.363281 C 0.28125 -1.394531 0.261719 -1.417969 0.234375 -1.4375 C 0.214844 -1.449219 0.1875 -1.460938 0.15625 -1.46875 C 0.121094 -1.472656 0.0859375 -1.480469 0.0546875 -1.480469 L 0.0546875 -1.589844 L 0.601562 -1.625 L 0.625 -1.605469 L 0.625 -1.425781 L 0.636719 -1.421875 C 0.691406 -1.484375 0.761719 -1.539062 0.847656 -1.582031 C 0.929688 -1.628906 1.011719 -1.648438 1.09375 -1.648438 C 1.195312 -1.648438 1.285156 -1.628906 1.371094 -1.585938 C 1.453125 -1.542969 1.523438 -1.484375 1.582031 -1.414062 M 1.316406 -0.261719 C 1.363281 -0.328125 1.394531 -0.40625 1.414062 -0.496094 C 1.433594 -0.582031 1.445312 -0.683594 1.445312 -0.792969 C 1.445312 -0.871094 1.4375 -0.953125 1.417969 -1.039062 C 1.402344 -1.121094 1.375 -1.195312 1.335938 -1.257812 C 1.300781 -1.320312 1.253906 -1.371094 1.191406 -1.410156 C 1.132812 -1.449219 1.0625 -1.46875 0.976562 -1.46875 C 0.898438 -1.46875 0.828125 -1.449219 0.773438 -1.414062 C 0.714844 -1.378906 0.667969 -1.335938 0.625 -1.289062 L 0.625 -0.339844 C 0.636719 -0.3125 0.652344 -0.28125 0.675781 -0.25 C 0.695312 -0.21875 0.722656 -0.191406 0.75 -0.167969 C 0.78125 -0.140625 0.820312 -0.117188 0.859375 -0.101562 C 0.898438 -0.0859375 0.945312 -0.078125 1 -0.078125 C 1.0625 -0.078125 1.121094 -0.09375 1.175781 -0.125 C 1.234375 -0.15625 1.28125 -0.203125 1.316406 -0.261719 Z "/>
</g>
</g>
</defs>
<g fill="rgb(41.960784%, 44.705882%, 50.196078%)" fill-opacity="1">
<use xlink:href="#glyph-0-0" x="30" y="23.056641"/>
<use xlink:href="#glyph-0-1" x="32" y="23.056641"/>
<use xlink:href="#glyph-0-2" x="34" y="23.056641"/>
</g>
</svg>
