<?xml version="1.0" encoding="UTF-8"?>
<svg xmlns="http://www.w3.org/2000/svg" xmlns:xlink="http://www.w3.org/1999/xlink" width="854" height="480" viewBox="0 0 854 480">
<defs>
<g>
<g id="glyph-0-0">
<path d="M 2.410156 -2.175781 C 2.410156 -2.023438 2.378906 -1.890625 2.320312 -1.773438 C 2.261719 -1.660156 2.179688 -1.5625 2.074219 -1.488281 C 1.972656 -1.410156 1.859375 -1.355469 1.734375 -1.320312 C 1.613281 -1.285156 1.480469 -1.265625 1.34375 -1.265625 L 1.019531 -1.265625 L 1.019531 -0.394531 C 1.019531 -0.34375 1.027344 -0.304688 1.042969 -0.265625 C 1.058594 -0.230469 1.089844 -0.203125 1.140625 -0.183594 C 1.164062 -0.175781 1.207031 -0.167969 1.269531 -0.160156 C 1.332031 -0.152344 1.386719 -0.144531 1.4375 -0.144531 L 1.4375 0 L 0.199219 0 L 0.199219 -0.144531 C 0.230469 -0.148438 0.277344 -0.152344 0.339844 -0.160156 C 0.402344 -0.164062 0.445312 -0.175781 0.46875 -0.183594 C 0.511719 -0.203125 0.539062 -0.230469 0.558594 -0.261719 C 0.578125 -0.296875 0.585938 -0.339844 0.585938 -0.394531 L 0.585938 -2.476562 C 0.585938 -2.523438 0.578125 -2.566406 0.566406 -2.605469 C 0.550781 -2.640625 0.519531 -2.671875 0.46875 -2.691406 C 0.417969 -2.707031 0.367188 -2.71875 0.316406 -2.726562 C 0.265625 -2.734375 0.222656 -2.738281 0.183594 -2.742188 L 0.183594 -2.886719 L 1.503906 -2.886719 C 1.773438 -2.886719 1.988281 -2.820312 2.15625 -2.691406 C 2.324219 -2.5625 2.410156 -2.390625 2.410156 -2.175781 M 1.789062 -1.683594 C 1.835938 -1.746094 1.867188 -1.816406 1.882812 -1.886719 C 1.898438 -1.953125 1.902344 -2.015625 1.902344 -2.074219 C 1.902344 -2.152344 1.894531 -2.230469 1.875 -2.308594 C 1.859375 -2.390625 1.828125 -2.460938 1.78125 -2.519531 C 1.734375 -2.582031 1.671875 -2.632812 1.59375 -2.667969 C 1.519531 -2.703125 1.421875 -2.71875 1.304688 -2.71875 L 1.019531 -2.71875 L 1.019531 -1.445312 L 1.226562 -1.445312 C 1.375 -1.445312 1.492188 -1.46875 1.582031 -1.511719 C 1.675781 -1.558594 1.746094 -1.613281 1.789062 -1.683594 Z "/>
</g>
<g id="glyph-0-1">
<path d="M 1.644531 0 L 0.273438 0 L 0.273438 -0.144531 C 0.316406 -0.148438 0.378906 -0.152344 0.464844 -0.160156 C 0.550781 -0.171875 0.609375 -0.179688 0.644531 -0.1875 C 0.683594 -0.203125 0.71875 -0.226562 0.738281 -0.253906 C 0.761719 -0.285156 0.773438 -0.332031 0.773438 -0.394531 L 0.773438 -1.820312 L 0.265625 -1.820312 L 0.265625 -1.992188 L 0.378906 -1.992188 C 0.523438 -1.992188 0.65625 -2.019531 0.773438 -2.074219 C 0.886719 -2.128906 0.972656 -2.1875 1.019531 -2.25 L 1.191406 -2.25 C 1.1875 -2.160156 1.183594 -2.058594 1.179688 -1.9375 C 1.175781 -1.820312 1.171875 -1.714844 1.171875 -1.621094 L 1.171875 -0.414062 C 1.171875 -0.367188 1.183594 -0.324219 1.203125 -0.289062 C 1.222656 -0.25 1.253906 -0.222656 1.292969 -0.207031 C 1.328125 -0.191406 1.386719 -0.175781 1.46875 -0.164062 C 1.546875 -0.152344 1.605469 -0.144531 1.644531 -0.144531 Z "/>
</g>
</g>
</defs>
<g fill="rgb(41.960784%, 44.705882%, 50.196078%)" fill-opacity="1">
<use xlink:href="#glyph-0-0" x="30" y="23.820312"/>
<use xlink:href="#glyph-0-1" x="33" y="23.820312"/>
</g>
</svg>
