<?xml version="1.0" encoding="UTF-8"?>
<svg xmlns="http://www.w3.org/2000/svg" xmlns:xlink="http://www.w3.org/1999/xlink" width="854" height="480" viewBox="0 0 854 480">
<defs>
<g>
<g id="glyph-0-0">
<path d="M 2.527344 0.925781 L 0.550781 0.925781 L 0.550781 -4.53125 L 2.527344 -4.53125 L 2.527344 -4.234375 L 1.492188 -4.234375 L 1.492188 0.625 L 2.527344 0.625 Z "/>
</g>
<g id="glyph-0-1">
<path d="M 3.800781 -1.46875 L 2.390625 -1.46875 L 2.390625 -0.0585938 L 1.902344 -0.0585938 L 1.902344 -1.46875 L 0.488281 -1.46875 L 0.488281 -1.957031 L 1.902344 -1.957031 L 1.902344 -3.367188 L 2.390625 -3.367188 L 2.390625 -1.957031 L 3.800781 -1.957031 Z "/>
</g>
<g id="glyph-0-2">
<path d="M 2.179688 0.925781 L 0.207031 0.925781 L 0.207031 0.625 L 1.242188 0.625 L 1.242188 -4.234375 L 0.207031 -4.234375 L 0.207031 -4.53125 L 2.179688 -4.53125 Z "/>
</g>
</g>
</defs>
<g fill="rgb(8.627451%, 63.921569%, 29.019608%)" fill-opacity="1">
<use xlink:href="#glyph-0-0" x="30" y="25.603516"/>
<use xlink:href="#glyph-0-1" x="33" y="25.603516"/>
<use xlink:href="#glyph-0-2" x="37" y="25.603516"/>
</g>
</svg>
