<?xml version="1.0" encoding="UTF-8"?>
<svg xmlns="http://www.w3.org/2000/svg" xmlns:xlink="http://www.w3.org/1999/xlink" width="854" height="480" viewBox="0 0 854 480">
<defs>
<g>
<g id="glyph-0-0">
<path d="M 1.65625 -0.945312 C 1.699219 -0.902344 1.734375 -0.851562 1.757812 -0.796875 C 1.78125 -0.738281 1.796875 -0.671875 1.796875 -0.59375 C 1.796875 -0.421875 1.730469 -0.28125 1.601562 -0.164062 C 1.46875 -0.0507812 1.304688 0.015625 1.109375 0.0273438 L 1.109375 0.488281 L 0.976562 0.488281 L 0.976562 0.03125 C 0.761719 0.0273438 0.585938 -0.0234375 0.453125 -0.121094 C 0.320312 -0.222656 0.253906 -0.34375 0.253906 -0.488281 C 0.253906 -0.550781 0.265625 -0.601562 0.292969 -0.636719 C 0.324219 -0.667969 0.363281 -0.6875 0.414062 -0.6875 C 0.472656 -0.6875 0.515625 -0.671875 0.546875 -0.644531 C 0.582031 -0.613281 0.597656 -0.582031 0.597656 -0.542969 C 0.597656 -0.511719 0.585938 -0.46875 0.566406 -0.410156 C 0.546875 -0.351562 0.53125 -0.308594 0.527344 -0.289062 C 0.558594 -0.230469 0.613281 -0.1875 0.691406 -0.152344 C 0.769531 -0.117188 0.863281 -0.0976562 0.976562 -0.0976562 L 0.976562 -0.921875 C 0.925781 -0.9375 0.886719 -0.953125 0.851562 -0.964844 C 0.816406 -0.980469 0.769531 -1 0.710938 -1.023438 C 0.585938 -1.074219 0.488281 -1.140625 0.417969 -1.222656 C 0.347656 -1.304688 0.3125 -1.414062 0.3125 -1.546875 C 0.3125 -1.703125 0.378906 -1.835938 0.507812 -1.941406 C 0.636719 -2.050781 0.792969 -2.105469 0.976562 -2.109375 L 0.976562 -2.480469 L 1.109375 -2.480469 L 1.109375 -2.109375 C 1.214844 -2.105469 1.3125 -2.089844 1.394531 -2.0625 C 1.476562 -2.03125 1.542969 -1.996094 1.59375 -1.953125 C 1.648438 -1.90625 1.6875 -1.859375 1.714844 -1.808594 C 1.738281 -1.757812 1.753906 -1.707031 1.753906 -1.65625 C 1.753906 -1.609375 1.742188 -1.566406 1.71875 -1.53125 C 1.695312 -1.5 1.660156 -1.480469 1.605469 -1.480469 C 1.554688 -1.480469 1.507812 -1.496094 1.472656 -1.523438 C 1.4375 -1.550781 1.421875 -1.578125 1.421875 -1.613281 C 1.421875 -1.652344 1.425781 -1.691406 1.433594 -1.734375 C 1.441406 -1.773438 1.449219 -1.808594 1.457031 -1.835938 C 1.453125 -1.84375 1.441406 -1.855469 1.425781 -1.871094 C 1.40625 -1.890625 1.382812 -1.90625 1.359375 -1.917969 C 1.332031 -1.933594 1.296875 -1.949219 1.25 -1.960938 C 1.207031 -1.972656 1.160156 -1.976562 1.109375 -1.976562 L 1.109375 -1.222656 C 1.152344 -1.207031 1.1875 -1.195312 1.214844 -1.183594 C 1.242188 -1.171875 1.277344 -1.15625 1.320312 -1.140625 C 1.390625 -1.113281 1.449219 -1.085938 1.507812 -1.054688 C 1.5625 -1.023438 1.613281 -0.988281 1.65625 -0.945312 M 0.976562 -1.261719 L 0.976562 -1.976562 C 0.871094 -1.976562 0.78125 -1.949219 0.710938 -1.886719 C 0.636719 -1.828125 0.601562 -1.753906 0.601562 -1.667969 C 0.601562 -1.574219 0.625 -1.5 0.667969 -1.441406 C 0.714844 -1.386719 0.78125 -1.339844 0.871094 -1.300781 C 0.882812 -1.296875 0.898438 -1.289062 0.917969 -1.28125 C 0.9375 -1.273438 0.957031 -1.269531 0.976562 -1.261719 M 1.488281 -0.460938 C 1.488281 -0.550781 1.464844 -0.628906 1.421875 -0.695312 C 1.375 -0.761719 1.296875 -0.8125 1.183594 -0.859375 C 1.171875 -0.863281 1.15625 -0.867188 1.144531 -0.871094 C 1.132812 -0.875 1.121094 -0.882812 1.109375 -0.886719 L 1.109375 -0.0976562 C 1.234375 -0.105469 1.332031 -0.144531 1.394531 -0.207031 C 1.457031 -0.273438 1.488281 -0.355469 1.488281 -0.460938 Z "/>
</g>
<g id="glyph-0-1">
<path d="M 1.371094 -0.761719 C 1.445312 -0.707031 1.503906 -0.632812 1.550781 -0.546875 C 1.597656 -0.457031 1.621094 -0.34375 1.621094 -0.210938 C 1.621094 0.0234375 1.542969 0.214844 1.382812 0.367188 C 1.222656 0.519531 1.019531 0.59375 0.773438 0.59375 C 0.585938 0.59375 0.425781 0.550781 0.292969 0.457031 C 0.160156 0.367188 0.0976562 0.265625 0.0976562 0.144531 C 0.0976562 0.0898438 0.109375 0.0429688 0.136719 0 C 0.164062 -0.0429688 0.207031 -0.0625 0.261719 -0.0625 C 0.328125 -0.0625 0.375 -0.0429688 0.410156 -0.0117188 C 0.445312 0.0234375 0.460938 0.0625 0.460938 0.101562 C 0.460938 0.136719 0.457031 0.179688 0.445312 0.230469 C 0.433594 0.28125 0.421875 0.320312 0.417969 0.347656 C 0.425781 0.355469 0.4375 0.363281 0.457031 0.378906 C 0.476562 0.390625 0.5 0.402344 0.527344 0.414062 C 0.558594 0.425781 0.589844 0.4375 0.632812 0.445312 C 0.671875 0.457031 0.71875 0.460938 0.773438 0.460938 C 0.84375 0.460938 0.910156 0.445312 0.972656 0.417969 C 1.035156 0.390625 1.085938 0.347656 1.128906 0.292969 C 1.175781 0.230469 1.210938 0.164062 1.234375 0.0859375 C 1.257812 0.0078125 1.269531 -0.0898438 1.269531 -0.210938 C 1.269531 -0.363281 1.226562 -0.488281 1.140625 -0.589844 C 1.054688 -0.691406 0.941406 -0.742188 0.804688 -0.742188 C 0.71875 -0.742188 0.636719 -0.722656 0.5625 -0.691406 C 0.484375 -0.660156 0.417969 -0.605469 0.359375 -0.527344 L 0.25 -0.570312 L 0.386719 -1.746094 L 1.550781 -1.746094 L 1.550781 -1.457031 L 0.519531 -1.457031 L 0.433594 -0.765625 C 0.484375 -0.800781 0.546875 -0.835938 0.628906 -0.871094 C 0.707031 -0.902344 0.792969 -0.921875 0.890625 -0.921875 C 0.96875 -0.921875 1.050781 -0.910156 1.136719 -0.882812 C 1.222656 -0.859375 1.300781 -0.820312 1.371094 -0.761719 Z "/>
</g>
<g id="glyph-0-2">
<path d="M 0.675781 -0.1875 C 0.675781 -0.125 0.652344 -0.0742188 0.609375 -0.03125 C 0.566406 0.0117188 0.511719 0.03125 0.453125 0.03125 C 0.390625 0.03125 0.339844 0.0117188 0.296875 -0.03125 C 0.25 -0.0742188 0.230469 -0.125 0.230469 -0.1875 C 0.230469 -0.246094 0.25 -0.300781 0.296875 -0.34375 C 0.339844 -0.386719 0.390625 -0.410156 0.453125 -0.410156 C 0.511719 -0.410156 0.566406 -0.386719 0.609375 -0.34375 C 0.652344 -0.300781 0.675781 -0.246094 0.675781 -0.1875 Z "/>
</g>
<g id="glyph-0-3">
<path d="M 1.75 -0.75 C 1.75 -0.636719 1.730469 -0.53125 1.6875 -0.433594 C 1.648438 -0.332031 1.59375 -0.25 1.523438 -0.179688 C 1.445312 -0.101562 1.359375 -0.0429688 1.261719 -0.00390625 C 1.167969 0.03125 1.066406 0.0507812 0.960938 0.0507812 C 0.839844 0.0507812 0.730469 0.03125 0.632812 -0.015625 C 0.539062 -0.0585938 0.453125 -0.121094 0.386719 -0.203125 C 0.316406 -0.285156 0.261719 -0.386719 0.222656 -0.503906 C 0.1875 -0.625 0.167969 -0.757812 0.167969 -0.90625 C 0.167969 -1.292969 0.28125 -1.621094 0.511719 -1.886719 C 0.742188 -2.152344 1.054688 -2.3125 1.441406 -2.363281 L 1.46875 -2.21875 L 1.324219 -2.191406 C 1.085938 -2.117188 0.90625 -2 0.777344 -1.835938 C 0.648438 -1.675781 0.566406 -1.480469 0.527344 -1.253906 C 0.621094 -1.335938 0.710938 -1.390625 0.804688 -1.425781 C 0.894531 -1.460938 0.992188 -1.476562 1.09375 -1.476562 C 1.273438 -1.476562 1.429688 -1.40625 1.558594 -1.269531 C 1.683594 -1.128906 1.75 -0.957031 1.75 -0.75 M 1.394531 -0.707031 C 1.394531 -0.882812 1.355469 -1.023438 1.273438 -1.128906 C 1.195312 -1.234375 1.085938 -1.289062 0.949219 -1.289062 C 0.867188 -1.289062 0.792969 -1.273438 0.722656 -1.242188 C 0.652344 -1.214844 0.585938 -1.164062 0.519531 -1.089844 C 0.519531 -1.078125 0.519531 -1.046875 0.515625 -1 C 0.515625 -0.953125 0.511719 -0.914062 0.511719 -0.886719 C 0.511719 -0.632812 0.554688 -0.4375 0.636719 -0.292969 C 0.71875 -0.148438 0.828125 -0.078125 0.964844 -0.078125 C 1.09375 -0.078125 1.199219 -0.132812 1.277344 -0.246094 C 1.355469 -0.355469 1.394531 -0.511719 1.394531 -0.707031 Z "/>
</g>
<g id="glyph-0-4">
<path d="M 2.9375 0 L 1.917969 0 L 1.917969 -0.117188 C 1.957031 -0.117188 2.003906 -0.121094 2.0625 -0.125 C 2.121094 -0.132812 2.160156 -0.144531 2.179688 -0.15625 C 2.214844 -0.175781 2.238281 -0.199219 2.253906 -0.226562 C 2.269531 -0.253906 2.277344 -0.285156 2.277344 -0.324219 L 2.277344 -2.003906 L 2.253906 -2.003906 L 1.464844 -0.0390625 L 1.386719 -0.0390625 L 0.632812 -2.046875 L 0.613281 -2.046875 L 0.613281 -0.667969 C 0.613281 -0.535156 0.621094 -0.433594 0.640625 -0.363281 C 0.65625 -0.292969 0.679688 -0.242188 0.714844 -0.214844 C 0.738281 -0.191406 0.789062 -0.167969 0.863281 -0.148438 C 0.9375 -0.128906 0.988281 -0.117188 1.011719 -0.117188 L 1.011719 0 L 0.078125 0 L 0.078125 -0.117188 C 0.125 -0.121094 0.179688 -0.128906 0.230469 -0.140625 C 0.285156 -0.152344 0.328125 -0.167969 0.355469 -0.195312 C 0.394531 -0.222656 0.421875 -0.269531 0.433594 -0.332031 C 0.449219 -0.398438 0.457031 -0.5 0.457031 -0.648438 L 0.457031 -1.832031 C 0.457031 -1.898438 0.449219 -1.957031 0.429688 -2 C 0.414062 -2.042969 0.390625 -2.078125 0.359375 -2.105469 C 0.328125 -2.132812 0.285156 -2.15625 0.238281 -2.167969 C 0.1875 -2.183594 0.140625 -2.191406 0.09375 -2.195312 L 0.09375 -2.308594 L 0.878906 -2.308594 L 1.542969 -0.574219 L 2.105469 -2.027344 C 2.128906 -2.078125 2.144531 -2.136719 2.160156 -2.191406 C 2.175781 -2.25 2.183594 -2.289062 2.183594 -2.308594 L 2.9375 -2.308594 L 2.9375 -2.195312 C 2.90625 -2.191406 2.867188 -2.1875 2.820312 -2.179688 C 2.773438 -2.171875 2.738281 -2.164062 2.714844 -2.15625 C 2.679688 -2.140625 2.65625 -2.121094 2.640625 -2.089844 C 2.628906 -2.058594 2.621094 -2.027344 2.621094 -1.992188 L 2.621094 -0.324219 C 2.621094 -0.289062 2.628906 -0.253906 2.640625 -0.230469 C 2.65625 -0.203125 2.679688 -0.179688 2.714844 -0.160156 C 2.734375 -0.148438 2.769531 -0.140625 2.820312 -0.132812 C 2.871094 -0.121094 2.910156 -0.117188 2.9375 -0.117188 Z "/>
</g>
</g>
</defs>
<g fill="rgb(17.647059%, 41.568627%, 62.352941%)" fill-opacity="1">
<use xlink:href="#glyph-0-0" x="30" y="23.056641"/>
<use xlink:href="#glyph-0-1" x="32" y="23.056641"/>
<use xlink:href="#glyph-0-2" x="34" y="23.056641"/>
<use xlink:href="#glyph-0-3" x="35" y="23.056641"/>
<use xlink:href="#glyph-0-4" x="37" y="23.056641"/>
</g>
</svg>
