<?xml version="1.0" encoding="UTF-8"?>
<svg xmlns="http://www.w3.org/2000/svg" xmlns:xlink="http://www.w3.org/1999/xlink" width="854" height="480" viewBox="0 0 854 480">
<defs>
<g>
<g id="glyph-0-0">
<path d="M 5.089844 -7.5625 C 5.089844 -7.257812 4.976562 -6.996094 4.746094 -6.777344 C 4.519531 -6.554688 4.25 -6.445312 3.9375 -6.445312 C 3.632812 -6.445312 3.363281 -6.554688 3.136719 -6.777344 C 2.90625 -6.996094 2.792969 -7.257812 2.792969 -7.5625 C 2.792969 -7.863281 2.90625 -8.125 3.136719 -8.339844 C 3.363281 -8.558594 3.632812 -8.664062 3.9375 -8.664062 C 4.25 -8.664062 4.519531 -8.558594 4.746094 -8.339844 C 4.976562 -8.125 5.089844 -7.863281 5.089844 -7.5625 M 6.238281 -1.46875 C 6.238281 -1.011719 5.976562 -0.621094 5.453125 -0.304688 C 4.933594 0.015625 4.304688 0.171875 3.570312 0.171875 C 2.695312 0.171875 1.988281 -0.0546875 1.449219 -0.511719 C 0.914062 -0.972656 0.644531 -1.566406 0.644531 -2.304688 C 0.644531 -3.074219 0.90625 -3.710938 1.429688 -4.214844 C 1.953125 -4.714844 2.699219 -5.011719 3.664062 -5.101562 L 3.699219 -5.914062 L 4.230469 -5.914062 L 4.230469 -3.59375 C 3.675781 -3.542969 3.226562 -3.363281 2.890625 -3.054688 C 2.554688 -2.75 2.386719 -2.316406 2.386719 -1.753906 C 2.386719 -1.316406 2.503906 -0.96875 2.734375 -0.710938 C 2.964844 -0.453125 3.269531 -0.324219 3.652344 -0.324219 C 3.808594 -0.324219 3.957031 -0.339844 4.101562 -0.378906 C 4.242188 -0.417969 4.363281 -0.46875 4.457031 -0.53125 C 4.414062 -0.664062 4.367188 -0.820312 4.316406 -1.007812 C 4.261719 -1.195312 4.238281 -1.386719 4.238281 -1.582031 C 4.238281 -1.859375 4.328125 -2.074219 4.507812 -2.230469 C 4.691406 -2.382812 4.941406 -2.457031 5.265625 -2.457031 C 5.566406 -2.457031 5.804688 -2.363281 5.976562 -2.171875 C 6.148438 -1.980469 6.238281 -1.746094 6.238281 -1.46875 Z "/>
</g>
<g id="glyph-0-1">
<path d="M 8.234375 -7.527344 C 8.652344 -7.144531 8.984375 -6.683594 9.230469 -6.140625 C 9.472656 -5.601562 9.597656 -4.984375 9.597656 -4.292969 C 9.597656 -3.308594 9.351562 -2.445312 8.859375 -1.699219 C 8.367188 -0.957031 7.671875 -0.421875 6.773438 -0.09375 C 6.785156 0.378906 6.929688 0.789062 7.203125 1.132812 C 7.476562 1.480469 7.800781 1.652344 8.175781 1.652344 C 8.40625 1.652344 8.609375 1.640625 8.78125 1.613281 C 8.957031 1.582031 9.109375 1.550781 9.25 1.515625 L 9.25 2.042969 C 9.023438 2.136719 8.6875 2.234375 8.242188 2.332031 C 7.796875 2.429688 7.328125 2.476562 6.839844 2.476562 C 6.171875 2.476562 5.621094 2.277344 5.1875 1.878906 C 4.757812 1.476562 4.515625 0.917969 4.464844 0.203125 C 3.898438 0.148438 3.375 0.0078125 2.886719 -0.214844 C 2.402344 -0.4375 1.976562 -0.738281 1.605469 -1.117188 C 1.242188 -1.488281 0.957031 -1.933594 0.742188 -2.445312 C 0.53125 -2.960938 0.421875 -3.523438 0.421875 -4.140625 C 0.421875 -4.835938 0.542969 -5.460938 0.777344 -6.023438 C 1.015625 -6.585938 1.339844 -7.070312 1.753906 -7.472656 C 2.164062 -7.867188 2.652344 -8.167969 3.214844 -8.382812 C 3.777344 -8.59375 4.375 -8.703125 5.011719 -8.703125 C 5.644531 -8.703125 6.238281 -8.597656 6.792969 -8.390625 C 7.351562 -8.183594 7.832031 -7.894531 8.234375 -7.527344 M 6.703125 -1.46875 C 6.882812 -1.832031 7.011719 -2.242188 7.089844 -2.699219 C 7.167969 -3.15625 7.210938 -3.675781 7.210938 -4.253906 C 7.210938 -4.742188 7.175781 -5.21875 7.105469 -5.683594 C 7.035156 -6.148438 6.917969 -6.558594 6.75 -6.921875 C 6.578125 -7.285156 6.351562 -7.574219 6.070312 -7.792969 C 5.785156 -8.011719 5.433594 -8.121094 5.011719 -8.121094 C 4.292969 -8.121094 3.746094 -7.78125 3.371094 -7.097656 C 2.996094 -6.414062 2.8125 -5.449219 2.8125 -4.203125 C 2.8125 -3.675781 2.851562 -3.175781 2.933594 -2.707031 C 3.015625 -2.234375 3.144531 -1.824219 3.316406 -1.476562 C 3.496094 -1.121094 3.722656 -0.84375 4 -0.648438 C 4.273438 -0.449219 4.613281 -0.351562 5.011719 -0.351562 C 5.40625 -0.351562 5.746094 -0.453125 6.027344 -0.652344 C 6.308594 -0.851562 6.535156 -1.121094 6.703125 -1.46875 Z "/>
</g>
<g id="glyph-0-2">
<path d="M 8.128906 -0.125 L 5.28125 0.046875 L 5.191406 -0.0351562 L 5.191406 -0.816406 L 5.15625 -0.816406 C 5.019531 -0.695312 4.890625 -0.574219 4.761719 -0.457031 C 4.632812 -0.339844 4.476562 -0.234375 4.296875 -0.136719 C 4.097656 -0.03125 3.902344 0.0507812 3.722656 0.101562 C 3.542969 0.152344 3.277344 0.179688 2.933594 0.179688 C 2.332031 0.179688 1.875 -0.00390625 1.554688 -0.363281 C 1.234375 -0.726562 1.074219 -1.238281 1.074219 -1.898438 L 1.074219 -4.582031 C 1.074219 -4.738281 1.042969 -4.863281 0.984375 -4.960938 C 0.925781 -5.058594 0.847656 -5.148438 0.746094 -5.222656 C 0.667969 -5.28125 0.566406 -5.324219 0.441406 -5.351562 C 0.3125 -5.375 0.199219 -5.394531 0.09375 -5.402344 L 0.09375 -5.835938 L 2.976562 -5.992188 L 3.042969 -5.902344 L 3.042969 -1.933594 C 3.042969 -1.523438 3.121094 -1.222656 3.28125 -1.027344 C 3.4375 -0.832031 3.652344 -0.734375 3.925781 -0.734375 C 4.210938 -0.734375 4.464844 -0.808594 4.6875 -0.953125 C 4.914062 -1.101562 5.078125 -1.257812 5.179688 -1.425781 L 5.179688 -4.644531 C 5.179688 -4.777344 5.15625 -4.898438 5.101562 -5.007812 C 5.050781 -5.113281 4.976562 -5.203125 4.875 -5.269531 C 4.804688 -5.316406 4.703125 -5.347656 4.570312 -5.367188 C 4.433594 -5.382812 4.300781 -5.394531 4.160156 -5.402344 L 4.160156 -5.835938 L 7.058594 -5.992188 L 7.148438 -5.902344 L 7.148438 -1.296875 C 7.148438 -1.15625 7.175781 -1.039062 7.234375 -0.941406 C 7.289062 -0.84375 7.371094 -0.761719 7.476562 -0.691406 C 7.550781 -0.644531 7.648438 -0.613281 7.769531 -0.59375 C 7.890625 -0.574219 8.011719 -0.566406 8.128906 -0.5625 Z "/>
</g>
<g id="glyph-0-3">
<path d="M 6.761719 -1.425781 C 6.621094 -1.199219 6.453125 -0.984375 6.257812 -0.785156 C 6.0625 -0.582031 5.835938 -0.410156 5.585938 -0.269531 C 5.320312 -0.117188 5.050781 -0.00390625 4.777344 0.0742188 C 4.503906 0.152344 4.191406 0.191406 3.835938 0.191406 C 3.25 0.191406 2.742188 0.109375 2.3125 -0.0585938 C 1.886719 -0.226562 1.53125 -0.453125 1.253906 -0.734375 C 0.976562 -1.015625 0.765625 -1.351562 0.628906 -1.734375 C 0.492188 -2.117188 0.421875 -2.535156 0.421875 -2.984375 C 0.421875 -3.390625 0.5 -3.777344 0.648438 -4.152344 C 0.796875 -4.523438 1.007812 -4.855469 1.28125 -5.144531 C 1.554688 -5.425781 1.894531 -5.65625 2.308594 -5.832031 C 2.71875 -6.007812 3.179688 -6.09375 3.6875 -6.09375 C 4.246094 -6.09375 4.703125 -6.027344 5.0625 -5.890625 C 5.417969 -5.753906 5.714844 -5.566406 5.949219 -5.328125 C 6.175781 -5.101562 6.34375 -4.835938 6.445312 -4.527344 C 6.550781 -4.21875 6.601562 -3.894531 6.601562 -3.558594 L 6.601562 -3.167969 L 2.566406 -3.167969 C 2.566406 -2.351562 2.722656 -1.734375 3.039062 -1.308594 C 3.351562 -0.882812 3.851562 -0.667969 4.535156 -0.667969 C 4.910156 -0.667969 5.246094 -0.769531 5.542969 -0.976562 C 5.84375 -1.179688 6.097656 -1.441406 6.308594 -1.753906 L 6.761719 -1.425781 M 4.480469 -3.695312 C 4.480469 -3.933594 4.46875 -4.175781 4.445312 -4.429688 C 4.421875 -4.679688 4.378906 -4.882812 4.320312 -5.042969 C 4.253906 -5.230469 4.160156 -5.371094 4.042969 -5.464844 C 3.925781 -5.5625 3.777344 -5.609375 3.597656 -5.609375 C 3.292969 -5.609375 3.046875 -5.453125 2.863281 -5.144531 C 2.683594 -4.835938 2.582031 -4.34375 2.566406 -3.671875 L 4.480469 -3.695312 M 5.269531 -8.714844 C 5.269531 -8.535156 5.230469 -8.390625 5.148438 -8.28125 C 5.066406 -8.171875 4.9375 -8.058594 4.757812 -7.945312 C 4.5625 -7.816406 4.253906 -7.636719 3.832031 -7.402344 C 3.410156 -7.171875 2.933594 -6.894531 2.398438 -6.570312 L 2.148438 -6.796875 C 2.5 -7.261719 2.769531 -7.632812 2.960938 -7.910156 C 3.152344 -8.1875 3.316406 -8.421875 3.457031 -8.617188 C 3.625 -8.859375 3.789062 -9.023438 3.945312 -9.109375 C 4.101562 -9.195312 4.292969 -9.238281 4.523438 -9.238281 C 4.714844 -9.238281 4.886719 -9.1875 5.039062 -9.082031 C 5.191406 -8.980469 5.269531 -8.855469 5.269531 -8.714844 Z "/>
</g>
<g id="glyph-0-4">
</g>
<g id="glyph-0-5">
<path d="M 6.761719 -1.425781 C 6.621094 -1.199219 6.453125 -0.984375 6.257812 -0.785156 C 6.0625 -0.582031 5.835938 -0.410156 5.585938 -0.269531 C 5.320312 -0.117188 5.050781 -0.00390625 4.777344 0.0742188 C 4.503906 0.152344 4.191406 0.191406 3.835938 0.191406 C 3.25 0.191406 2.742188 0.109375 2.3125 -0.0585938 C 1.886719 -0.226562 1.53125 -0.453125 1.253906 -0.734375 C 0.976562 -1.015625 0.765625 -1.351562 0.628906 -1.734375 C 0.492188 -2.117188 0.421875 -2.535156 0.421875 -2.984375 C 0.421875 -3.390625 0.5 -3.777344 0.648438 -4.152344 C 0.796875 -4.523438 1.007812 -4.855469 1.28125 -5.144531 C 1.554688 -5.425781 1.894531 -5.65625 2.308594 -5.832031 C 2.71875 -6.007812 3.179688 -6.09375 3.6875 -6.09375 C 4.246094 -6.09375 4.703125 -6.027344 5.0625 -5.890625 C 5.417969 -5.753906 5.714844 -5.566406 5.949219 -5.328125 C 6.175781 -5.101562 6.34375 -4.835938 6.445312 -4.527344 C 6.550781 -4.21875 6.601562 -3.894531 6.601562 -3.558594 L 6.601562 -3.167969 L 2.566406 -3.167969 C 2.566406 -2.351562 2.722656 -1.734375 3.039062 -1.308594 C 3.351562 -0.882812 3.851562 -0.667969 4.535156 -0.667969 C 4.910156 -0.667969 5.246094 -0.769531 5.542969 -0.976562 C 5.84375 -1.179688 6.097656 -1.441406 6.308594 -1.753906 L 6.761719 -1.425781 M 4.480469 -3.695312 C 4.480469 -3.933594 4.46875 -4.175781 4.445312 -4.429688 C 4.421875 -4.679688 4.378906 -4.882812 4.320312 -5.042969 C 4.253906 -5.230469 4.160156 -5.371094 4.042969 -5.464844 C 3.925781 -5.5625 3.777344 -5.609375 3.597656 -5.609375 C 3.292969 -5.609375 3.046875 -5.453125 2.863281 -5.144531 C 2.683594 -4.835938 2.582031 -4.34375 2.566406 -3.671875 Z "/>
</g>
<g id="glyph-0-6">
<path d="M 3.109375 0.203125 C 2.722656 0.203125 2.347656 0.144531 1.976562 0.03125 C 1.609375 -0.0820312 1.324219 -0.199219 1.121094 -0.328125 L 0.941406 0.078125 L 0.476562 0.078125 L 0.398438 -2.148438 L 0.835938 -2.148438 C 0.894531 -1.96875 0.996094 -1.765625 1.132812 -1.542969 C 1.273438 -1.316406 1.433594 -1.117188 1.613281 -0.9375 C 1.796875 -0.757812 2.011719 -0.605469 2.253906 -0.484375 C 2.492188 -0.359375 2.75 -0.296875 3.027344 -0.296875 C 3.386719 -0.296875 3.65625 -0.367188 3.835938 -0.511719 C 4.011719 -0.652344 4.101562 -0.871094 4.101562 -1.164062 C 4.101562 -1.324219 4.058594 -1.453125 3.980469 -1.558594 C 3.902344 -1.660156 3.792969 -1.75 3.652344 -1.828125 C 3.496094 -1.90625 3.328125 -1.972656 3.140625 -2.027344 C 2.957031 -2.085938 2.730469 -2.152344 2.457031 -2.230469 C 2.1875 -2.3125 1.957031 -2.390625 1.761719 -2.472656 C 1.570312 -2.554688 1.371094 -2.683594 1.164062 -2.859375 C 0.984375 -3.015625 0.839844 -3.199219 0.734375 -3.417969 C 0.625 -3.636719 0.574219 -3.898438 0.574219 -4.203125 C 0.574219 -4.761719 0.808594 -5.214844 1.28125 -5.5625 C 1.75 -5.910156 2.371094 -6.082031 3.132812 -6.082031 C 3.496094 -6.082031 3.828125 -6.042969 4.132812 -5.972656 C 4.4375 -5.898438 4.691406 -5.816406 4.898438 -5.730469 L 5.023438 -6.082031 L 5.480469 -6.082031 L 5.574219 -4.046875 L 5.15625 -4.046875 C 5.015625 -4.460938 4.777344 -4.816406 4.441406 -5.117188 C 4.101562 -5.417969 3.738281 -5.566406 3.347656 -5.566406 C 3.042969 -5.566406 2.800781 -5.503906 2.625 -5.378906 C 2.449219 -5.25 2.363281 -5.074219 2.363281 -4.847656 C 2.363281 -4.542969 2.492188 -4.324219 2.746094 -4.191406 C 3.003906 -4.054688 3.363281 -3.925781 3.824219 -3.808594 C 4.535156 -3.625 5.054688 -3.375 5.382812 -3.058594 C 5.714844 -2.742188 5.878906 -2.339844 5.878906 -1.851562 C 5.878906 -1.199219 5.621094 -0.691406 5.113281 -0.335938 C 4.601562 0.0234375 3.933594 0.203125 3.109375 0.203125 Z "/>
</g>
<g id="glyph-0-7">
<path d="M 3.992188 0 L 0.234375 0 L 0.234375 -0.4375 C 0.335938 -0.445312 0.4375 -0.453125 0.535156 -0.464844 C 0.632812 -0.476562 0.722656 -0.496094 0.796875 -0.523438 C 0.925781 -0.574219 1.011719 -0.640625 1.058594 -0.730469 C 1.105469 -0.820312 1.128906 -0.9375 1.128906 -1.085938 L 1.128906 -7.699219 C 1.128906 -7.851562 1.097656 -7.992188 1.035156 -8.121094 C 0.972656 -8.25 0.890625 -8.347656 0.789062 -8.414062 C 0.707031 -8.464844 0.585938 -8.515625 0.425781 -8.5625 C 0.265625 -8.613281 0.125 -8.640625 0 -8.648438 L 0 -9.082031 L 3.007812 -9.238281 L 3.097656 -9.144531 L 3.097656 -1.164062 C 3.097656 -1.015625 3.125 -0.898438 3.175781 -0.804688 C 3.226562 -0.714844 3.3125 -0.640625 3.429688 -0.589844 C 3.507812 -0.554688 3.59375 -0.523438 3.679688 -0.496094 C 3.769531 -0.46875 3.871094 -0.449219 3.992188 -0.4375 Z "/>
</g>
<g id="glyph-0-8">
<path d="M 8.058594 -0.125 L 5.113281 0.046875 L 5.023438 -0.0351562 L 5.023438 -0.585938 L 4.984375 -0.597656 C 4.789062 -0.386719 4.527344 -0.203125 4.195312 -0.0429688 C 3.863281 0.113281 3.527344 0.191406 3.1875 0.191406 C 2.386719 0.191406 1.726562 -0.109375 1.203125 -0.703125 C 0.683594 -1.300781 0.421875 -2.074219 0.421875 -3.019531 C 0.421875 -3.859375 0.714844 -4.578125 1.296875 -5.179688 C 1.878906 -5.78125 2.582031 -6.082031 3.410156 -6.082031 C 3.734375 -6.082031 4.042969 -6.042969 4.328125 -5.972656 C 4.613281 -5.898438 4.84375 -5.8125 5.011719 -5.710938 L 5.011719 -7.664062 C 5.011719 -7.808594 4.984375 -7.949219 4.921875 -8.078125 C 4.863281 -8.207031 4.785156 -8.308594 4.683594 -8.378906 C 4.5625 -8.464844 4.40625 -8.53125 4.222656 -8.566406 C 4.039062 -8.605469 3.851562 -8.632812 3.664062 -8.648438 L 3.664062 -9.082031 L 6.894531 -9.238281 L 6.984375 -9.144531 L 6.984375 -1.320312 C 6.984375 -1.167969 7.007812 -1.039062 7.058594 -0.9375 C 7.105469 -0.832031 7.1875 -0.753906 7.296875 -0.691406 C 7.378906 -0.648438 7.503906 -0.617188 7.664062 -0.597656 C 7.824219 -0.578125 7.953125 -0.566406 8.058594 -0.5625 L 8.058594 -0.125 M 5.011719 -1.1875 L 5.011719 -4.558594 C 4.984375 -4.652344 4.945312 -4.753906 4.898438 -4.863281 C 4.847656 -4.976562 4.777344 -5.082031 4.691406 -5.179688 C 4.613281 -5.265625 4.507812 -5.335938 4.375 -5.402344 C 4.242188 -5.464844 4.089844 -5.496094 3.921875 -5.496094 C 3.527344 -5.496094 3.203125 -5.273438 2.949219 -4.820312 C 2.691406 -4.371094 2.566406 -3.738281 2.566406 -2.917969 C 2.566406 -2.597656 2.589844 -2.308594 2.632812 -2.050781 C 2.679688 -1.792969 2.761719 -1.558594 2.875 -1.347656 C 2.992188 -1.136719 3.140625 -0.972656 3.320312 -0.851562 C 3.5 -0.734375 3.71875 -0.675781 3.972656 -0.675781 C 4.214844 -0.675781 4.414062 -0.722656 4.574219 -0.816406 C 4.730469 -0.90625 4.878906 -1.03125 5.011719 -1.1875 Z "/>
</g>
<g id="glyph-0-9">
<path d="M 12.199219 0 L 8.652344 0 L 8.652344 -0.4375 C 8.742188 -0.449219 8.832031 -0.457031 8.925781 -0.464844 C 9.019531 -0.472656 9.097656 -0.492188 9.164062 -0.523438 C 9.25 -0.566406 9.304688 -0.632812 9.328125 -0.726562 C 9.351562 -0.820312 9.363281 -0.9375 9.363281 -1.085938 L 9.363281 -3.875 C 9.363281 -4.28125 9.292969 -4.589844 9.144531 -4.796875 C 9 -5 8.792969 -5.101562 8.519531 -5.101562 C 8.347656 -5.101562 8.195312 -5.074219 8.0625 -5.023438 C 7.929688 -4.96875 7.804688 -4.902344 7.695312 -4.820312 C 7.578125 -4.738281 7.488281 -4.65625 7.425781 -4.570312 C 7.359375 -4.488281 7.308594 -4.417969 7.261719 -4.355469 L 7.261719 -1.152344 C 7.261719 -1.007812 7.28125 -0.890625 7.3125 -0.800781 C 7.347656 -0.714844 7.410156 -0.640625 7.5 -0.589844 C 7.5625 -0.554688 7.636719 -0.523438 7.714844 -0.496094 C 7.796875 -0.46875 7.882812 -0.449219 7.972656 -0.4375 L 7.972656 0 L 4.582031 0 L 4.582031 -0.4375 C 4.660156 -0.445312 4.75 -0.453125 4.855469 -0.464844 C 4.960938 -0.476562 5.042969 -0.496094 5.09375 -0.523438 C 5.175781 -0.570312 5.230469 -0.632812 5.253906 -0.714844 C 5.28125 -0.800781 5.292969 -0.921875 5.292969 -1.085938 L 5.292969 -3.875 C 5.292969 -4.28125 5.222656 -4.589844 5.074219 -4.796875 C 4.929688 -5 4.722656 -5.101562 4.449219 -5.101562 C 4.277344 -5.101562 4.125 -5.074219 3.992188 -5.023438 C 3.859375 -4.96875 3.734375 -4.902344 3.625 -4.820312 C 3.507812 -4.738281 3.417969 -4.65625 3.355469 -4.570312 C 3.289062 -4.488281 3.238281 -4.417969 3.191406 -4.355469 L 3.191406 -1.152344 C 3.191406 -1.011719 3.210938 -0.898438 3.246094 -0.804688 C 3.28125 -0.714844 3.347656 -0.640625 3.4375 -0.589844 C 3.5 -0.554688 3.574219 -0.523438 3.65625 -0.496094 C 3.738281 -0.46875 3.824219 -0.449219 3.914062 -0.4375 L 3.914062 0 L 0.339844 0 L 0.339844 -0.4375 C 0.445312 -0.445312 0.546875 -0.453125 0.644531 -0.464844 C 0.742188 -0.476562 0.828125 -0.496094 0.902344 -0.523438 C 1.027344 -0.574219 1.117188 -0.640625 1.164062 -0.730469 C 1.210938 -0.820312 1.234375 -0.9375 1.234375 -1.085938 L 1.234375 -4.558594 C 1.234375 -4.6875 1.203125 -4.8125 1.132812 -4.933594 C 1.066406 -5.054688 0.984375 -5.148438 0.890625 -5.214844 C 0.816406 -5.265625 0.726562 -5.304688 0.617188 -5.335938 C 0.507812 -5.367188 0.386719 -5.390625 0.257812 -5.402344 L 0.257812 -5.835938 L 3.101562 -5.992188 L 3.191406 -5.902344 L 3.191406 -5.0625 L 3.21875 -5.0625 C 3.328125 -5.160156 3.460938 -5.277344 3.613281 -5.417969 C 3.765625 -5.554688 3.910156 -5.664062 4.046875 -5.746094 C 4.195312 -5.84375 4.382812 -5.921875 4.613281 -5.984375 C 4.84375 -6.050781 5.097656 -6.082031 5.371094 -6.082031 C 5.824219 -6.082031 6.203125 -5.984375 6.507812 -5.785156 C 6.8125 -5.589844 7.027344 -5.328125 7.15625 -5 L 7.210938 -5 C 7.324219 -5.109375 7.464844 -5.234375 7.632812 -5.378906 C 7.800781 -5.527344 7.953125 -5.640625 8.09375 -5.730469 C 8.246094 -5.828125 8.445312 -5.914062 8.6875 -5.980469 C 8.925781 -6.046875 9.183594 -6.082031 9.460938 -6.082031 C 10.058594 -6.082031 10.523438 -5.90625 10.847656 -5.550781 C 11.171875 -5.195312 11.332031 -4.691406 11.332031 -4.039062 L 11.332031 -1.140625 C 11.332031 -0.992188 11.355469 -0.875 11.398438 -0.785156 C 11.441406 -0.695312 11.523438 -0.625 11.636719 -0.578125 C 11.703125 -0.550781 11.78125 -0.523438 11.875 -0.496094 C 11.96875 -0.46875 12.074219 -0.449219 12.199219 -0.4375 Z "/>
</g>
<g id="glyph-0-10">
<path d="M 7.167969 -0.125 C 6.992188 -0.0507812 6.785156 0.0195312 6.546875 0.0820312 C 6.308594 0.148438 6.058594 0.179688 5.792969 0.179688 C 5.304688 0.179688 4.945312 0.105469 4.714844 -0.0390625 C 4.484375 -0.183594 4.328125 -0.390625 4.242188 -0.664062 L 4.207031 -0.664062 C 4.070312 -0.527344 3.941406 -0.410156 3.816406 -0.316406 C 3.691406 -0.222656 3.554688 -0.140625 3.414062 -0.0703125 C 3.226562 0.015625 3.042969 0.0820312 2.871094 0.125 C 2.699219 0.167969 2.457031 0.191406 2.144531 0.191406 C 1.683594 0.191406 1.289062 0.0546875 0.960938 -0.21875 C 0.636719 -0.492188 0.472656 -0.851562 0.472656 -1.304688 C 0.472656 -1.5625 0.507812 -1.78125 0.578125 -1.964844 C 0.652344 -2.144531 0.753906 -2.304688 0.882812 -2.445312 C 1.003906 -2.574219 1.140625 -2.679688 1.300781 -2.761719 C 1.457031 -2.84375 1.628906 -2.921875 1.816406 -2.996094 C 2.175781 -3.125 2.605469 -3.261719 3.109375 -3.402344 C 3.609375 -3.546875 3.976562 -3.671875 4.207031 -3.785156 L 4.207031 -4.355469 C 4.207031 -4.457031 4.199219 -4.585938 4.183594 -4.75 C 4.167969 -4.914062 4.132812 -5.050781 4.082031 -5.164062 C 4.027344 -5.289062 3.9375 -5.398438 3.820312 -5.484375 C 3.699219 -5.570312 3.542969 -5.617188 3.347656 -5.617188 C 3.171875 -5.617188 3.027344 -5.589844 2.910156 -5.542969 C 2.792969 -5.492188 2.695312 -5.441406 2.625 -5.390625 C 2.636719 -5.308594 2.671875 -5.1875 2.726562 -5.023438 C 2.78125 -4.863281 2.8125 -4.703125 2.8125 -4.554688 C 2.8125 -4.484375 2.792969 -4.402344 2.757812 -4.300781 C 2.722656 -4.199219 2.667969 -4.117188 2.601562 -4.058594 C 2.507812 -3.980469 2.40625 -3.917969 2.292969 -3.875 C 2.179688 -3.828125 2.003906 -3.808594 1.769531 -3.808594 C 1.433594 -3.808594 1.179688 -3.886719 1.007812 -4.050781 C 0.835938 -4.210938 0.753906 -4.421875 0.753906 -4.679688 C 0.753906 -4.902344 0.839844 -5.101562 1.015625 -5.277344 C 1.195312 -5.457031 1.410156 -5.601562 1.664062 -5.71875 C 1.914062 -5.835938 2.203125 -5.929688 2.53125 -5.996094 C 2.855469 -6.0625 3.160156 -6.09375 3.4375 -6.09375 C 3.824219 -6.09375 4.175781 -6.070312 4.5 -6.023438 C 4.820312 -5.980469 5.113281 -5.882812 5.371094 -5.742188 C 5.617188 -5.601562 5.8125 -5.398438 5.960938 -5.136719 C 6.105469 -4.871094 6.175781 -4.527344 6.175781 -4.101562 C 6.175781 -3.652344 6.167969 -3.117188 6.148438 -2.5 C 6.132812 -1.882812 6.125 -1.476562 6.125 -1.28125 C 6.125 -1.105469 6.148438 -0.960938 6.203125 -0.859375 C 6.257812 -0.757812 6.339844 -0.679688 6.453125 -0.625 C 6.519531 -0.59375 6.625 -0.574219 6.769531 -0.570312 C 6.917969 -0.5625 7.046875 -0.5625 7.167969 -0.5625 L 7.167969 -0.125 M 4.207031 -3.234375 C 3.984375 -3.160156 3.761719 -3.070312 3.542969 -2.972656 C 3.324219 -2.875 3.144531 -2.773438 3.003906 -2.667969 C 2.855469 -2.554688 2.738281 -2.414062 2.65625 -2.238281 C 2.574219 -2.066406 2.53125 -1.859375 2.53125 -1.625 C 2.53125 -1.3125 2.601562 -1.089844 2.742188 -0.949219 C 2.886719 -0.808594 3.058594 -0.738281 3.265625 -0.738281 C 3.488281 -0.738281 3.667969 -0.785156 3.808594 -0.875 C 3.949219 -0.964844 4.074219 -1.074219 4.183594 -1.207031 Z "/>
</g>
<g id="glyph-0-11">
<path d="M 6.289062 -4.828125 C 6.289062 -4.527344 6.195312 -4.261719 6.011719 -4.03125 C 5.824219 -3.800781 5.578125 -3.6875 5.269531 -3.6875 C 4.980469 -3.6875 4.734375 -3.761719 4.53125 -3.90625 C 4.332031 -4.054688 4.230469 -4.269531 4.230469 -4.554688 C 4.230469 -4.695312 4.242188 -4.800781 4.261719 -4.878906 C 4.28125 -4.957031 4.300781 -5.03125 4.316406 -5.097656 C 4.132812 -5.089844 3.9375 -5.027344 3.734375 -4.90625 C 3.53125 -4.789062 3.355469 -4.632812 3.199219 -4.433594 L 3.199219 -1.15625 C 3.199219 -1.019531 3.222656 -0.902344 3.265625 -0.8125 C 3.308594 -0.71875 3.382812 -0.648438 3.484375 -0.597656 C 3.574219 -0.554688 3.714844 -0.515625 3.910156 -0.488281 C 4.109375 -0.457031 4.25 -0.441406 4.339844 -0.4375 L 4.339844 0 L 0.347656 0 L 0.347656 -0.4375 C 0.445312 -0.445312 0.546875 -0.453125 0.648438 -0.46875 C 0.75 -0.480469 0.835938 -0.5 0.90625 -0.523438 C 1.035156 -0.570312 1.121094 -0.636719 1.167969 -0.726562 C 1.21875 -0.820312 1.242188 -0.9375 1.242188 -1.085938 L 1.242188 -4.558594 C 1.242188 -4.703125 1.207031 -4.832031 1.140625 -4.945312 C 1.074219 -5.058594 0.992188 -5.148438 0.894531 -5.214844 C 0.824219 -5.265625 0.734375 -5.304688 0.625 -5.335938 C 0.515625 -5.367188 0.394531 -5.390625 0.261719 -5.402344 L 0.261719 -5.835938 L 3.109375 -5.992188 L 3.199219 -5.902344 L 3.199219 -5.035156 L 3.222656 -5.035156 C 3.496094 -5.355469 3.789062 -5.605469 4.097656 -5.785156 C 4.40625 -5.96875 4.726562 -6.058594 5.0625 -6.058594 C 5.429688 -6.058594 5.726562 -5.941406 5.953125 -5.714844 C 6.179688 -5.484375 6.289062 -5.191406 6.289062 -4.828125 Z "/>
</g>
<g id="glyph-0-12">
<path d="M 8.085938 2.648438 L 3.902344 2.648438 L 3.902344 2.207031 C 4.015625 2.199219 4.148438 2.1875 4.304688 2.167969 C 4.464844 2.152344 4.585938 2.125 4.671875 2.09375 C 4.796875 2.054688 4.882812 1.984375 4.9375 1.878906 C 4.988281 1.777344 5.011719 1.652344 5.011719 1.511719 L 5.011719 -0.574219 L 4.964844 -0.585938 C 4.898438 -0.519531 4.808594 -0.445312 4.699219 -0.351562 C 4.589844 -0.261719 4.457031 -0.179688 4.304688 -0.109375 C 4.132812 -0.0234375 3.96875 0.0390625 3.8125 0.0859375 C 3.65625 0.132812 3.449219 0.15625 3.1875 0.15625 C 2.363281 0.15625 1.695312 -0.132812 1.1875 -0.703125 C 0.679688 -1.277344 0.421875 -2.050781 0.421875 -3.019531 C 0.421875 -3.898438 0.726562 -4.628906 1.335938 -5.210938 C 1.945312 -5.792969 2.714844 -6.082031 3.644531 -6.082031 C 4.113281 -6.082031 4.539062 -6.027344 4.914062 -5.921875 C 5.292969 -5.816406 5.644531 -5.679688 5.972656 -5.507812 L 6.75 -6.273438 L 7.078125 -6.195312 C 7.066406 -5.945312 7.046875 -5.617188 7.019531 -5.214844 C 6.996094 -4.808594 6.984375 -4.472656 6.984375 -4.207031 L 6.984375 1.410156 C 6.984375 1.554688 7.007812 1.683594 7.0625 1.789062 C 7.117188 1.894531 7.203125 1.972656 7.324219 2.023438 C 7.410156 2.0625 7.53125 2.101562 7.679688 2.136719 C 7.832031 2.171875 7.96875 2.195312 8.085938 2.207031 L 8.085938 2.648438 M 5.011719 -1.1875 L 5.011719 -4.558594 C 4.984375 -4.660156 4.945312 -4.765625 4.898438 -4.882812 C 4.847656 -4.996094 4.777344 -5.109375 4.6875 -5.214844 C 4.597656 -5.316406 4.492188 -5.398438 4.359375 -5.460938 C 4.230469 -5.523438 4.078125 -5.554688 3.894531 -5.554688 C 3.496094 -5.554688 3.175781 -5.324219 2.933594 -4.859375 C 2.6875 -4.390625 2.566406 -3.75 2.566406 -2.929688 C 2.566406 -2.597656 2.59375 -2.300781 2.644531 -2.042969 C 2.695312 -1.789062 2.773438 -1.5625 2.875 -1.371094 C 2.996094 -1.160156 3.136719 -1 3.304688 -0.882812 C 3.472656 -0.769531 3.695312 -0.710938 3.972656 -0.710938 C 4.226562 -0.710938 4.433594 -0.753906 4.589844 -0.839844 C 4.75 -0.925781 4.890625 -1.039062 5.011719 -1.1875 Z "/>
</g>
<g id="glyph-0-13">
<path d="M 6.0625 -6.1875 C 6.0625 -5.390625 5.789062 -4.742188 5.238281 -4.242188 C 4.691406 -3.746094 3.957031 -3.460938 3.042969 -3.390625 L 3.007812 -2.578125 L 2.476562 -2.578125 L 2.476562 -4.898438 C 3.054688 -4.949219 3.503906 -5.128906 3.832031 -5.445312 C 4.15625 -5.761719 4.320312 -6.191406 4.320312 -6.738281 C 4.320312 -7.171875 4.207031 -7.519531 3.976562 -7.78125 C 3.75 -8.039062 3.441406 -8.171875 3.054688 -8.171875 C 2.890625 -8.171875 2.746094 -8.152344 2.621094 -8.121094 C 2.492188 -8.085938 2.371094 -8.03125 2.25 -7.960938 C 2.289062 -7.835938 2.335938 -7.671875 2.390625 -7.46875 C 2.445312 -7.269531 2.472656 -7.082031 2.472656 -6.910156 C 2.472656 -6.632812 2.378906 -6.417969 2.199219 -6.261719 C 2.019531 -6.109375 1.765625 -6.035156 1.445312 -6.035156 C 1.140625 -6.035156 0.902344 -6.128906 0.730469 -6.320312 C 0.558594 -6.511719 0.472656 -6.746094 0.472656 -7.023438 C 0.472656 -7.480469 0.730469 -7.871094 1.253906 -8.1875 C 1.773438 -8.507812 2.402344 -8.664062 3.140625 -8.664062 C 4.011719 -8.664062 4.714844 -8.4375 5.253906 -7.984375 C 5.792969 -7.53125 6.0625 -6.933594 6.0625 -6.1875 M 3.914062 -0.929688 C 3.914062 -0.628906 3.800781 -0.367188 3.570312 -0.152344 C 3.34375 0.0664062 3.074219 0.171875 2.769531 0.171875 C 2.457031 0.171875 2.1875 0.0664062 1.960938 -0.152344 C 1.730469 -0.367188 1.617188 -0.628906 1.617188 -0.929688 C 1.617188 -1.234375 1.730469 -1.496094 1.960938 -1.714844 C 2.1875 -1.9375 2.457031 -2.046875 2.769531 -2.046875 C 3.074219 -2.046875 3.34375 -1.9375 3.570312 -1.714844 C 3.800781 -1.496094 3.914062 -1.234375 3.914062 -0.929688 Z "/>
</g>
</g>
</defs>
<g fill="rgb(39.215686%, 70.980392%, 96.470588%)" fill-opacity="1">
<use xlink:href="#glyph-0-0" x="30" y="31.208008"/>
<use xlink:href="#glyph-0-1" x="37" y="31.208008"/>
<use xlink:href="#glyph-0-2" x="47" y="31.208008"/>
<use xlink:href="#glyph-0-3" x="55" y="31.208008"/>
<use xlink:href="#glyph-0-4" x="62" y="31.208008"/>
<use xlink:href="#glyph-0-5" x="65" y="31.208008"/>
<use xlink:href="#glyph-0-6" x="72" y="31.208008"/>
<use xlink:href="#glyph-0-4" x="78" y="31.208008"/>
<use xlink:href="#glyph-0-5" x="81" y="31.208008"/>
<use xlink:href="#glyph-0-7" x="88" y="31.208008"/>
<use xlink:href="#glyph-0-4" x="92" y="31.208008"/>
<use xlink:href="#glyph-0-8" x="95" y="31.208008"/>
<use xlink:href="#glyph-0-5" x="103" y="31.208008"/>
<use xlink:href="#glyph-0-6" x="110" y="31.208008"/>
<use xlink:href="#glyph-0-9" x="116" y="31.208008"/>
<use xlink:href="#glyph-0-10" x="128" y="31.208008"/>
<use xlink:href="#glyph-0-11" x="135" y="31.208008"/>
<use xlink:href="#glyph-0-12" x="141" y="31.208008"/>
<use xlink:href="#glyph-0-2" x="149" y="31.208008"/>
<use xlink:href="#glyph-0-5" x="157" y="31.208008"/>
<use xlink:href="#glyph-0-13" x="164" y="31.208008"/>
</g>
</svg>
