<?xml version="1.0" encoding="UTF-8"?>
<svg xmlns="http://www.w3.org/2000/svg" xmlns:xlink="http://www.w3.org/1999/xlink" width="854" height="480" viewBox="0 0 854 480">
<defs>
<g>
<g id="glyph-0-0">
<path d="M 3.601562 -2.867188 L 3.394531 -2.867188 C 3.339844 -3.011719 3.25 -3.160156 3.121094 -3.3125 C 2.992188 -3.460938 2.867188 -3.546875 2.738281 -3.574219 C 2.6875 -3.589844 2.609375 -3.597656 2.511719 -3.597656 C 2.417969 -3.601562 2.335938 -3.601562 2.273438 -3.601562 L 1.714844 -3.601562 L 1.714844 -2.117188 L 2.109375 -2.117188 C 2.210938 -2.117188 2.300781 -2.128906 2.382812 -2.152344 C 2.464844 -2.175781 2.539062 -2.222656 2.605469 -2.289062 C 2.644531 -2.332031 2.6875 -2.40625 2.730469 -2.507812 C 2.773438 -2.613281 2.800781 -2.707031 2.8125 -2.785156 L 3.019531 -2.785156 L 3.019531 -1.175781 L 2.8125 -1.175781 C 2.800781 -1.253906 2.773438 -1.347656 2.730469 -1.464844 C 2.6875 -1.578125 2.644531 -1.65625 2.605469 -1.699219 C 2.542969 -1.765625 2.472656 -1.8125 2.394531 -1.835938 C 2.3125 -1.859375 2.21875 -1.871094 2.109375 -1.871094 L 1.714844 -1.871094 L 1.714844 -0.761719 C 1.714844 -0.648438 1.722656 -0.554688 1.742188 -0.488281 C 1.757812 -0.417969 1.789062 -0.367188 1.835938 -0.332031 C 1.882812 -0.296875 1.945312 -0.273438 2.023438 -0.261719 C 2.101562 -0.253906 2.207031 -0.246094 2.34375 -0.246094 C 2.40625 -0.246094 2.484375 -0.246094 2.570312 -0.25 C 2.660156 -0.25 2.738281 -0.257812 2.804688 -0.265625 C 2.882812 -0.273438 2.953125 -0.289062 3.019531 -0.304688 C 3.085938 -0.324219 3.132812 -0.351562 3.164062 -0.386719 C 3.253906 -0.472656 3.351562 -0.609375 3.457031 -0.789062 C 3.566406 -0.972656 3.640625 -1.109375 3.671875 -1.199219 L 3.871094 -1.199219 L 3.796875 0 L 0.1875 0 L 0.1875 -0.210938 C 0.238281 -0.214844 0.304688 -0.222656 0.394531 -0.234375 C 0.480469 -0.246094 0.542969 -0.257812 0.578125 -0.269531 C 0.648438 -0.300781 0.691406 -0.335938 0.714844 -0.382812 C 0.738281 -0.425781 0.75 -0.480469 0.75 -0.550781 L 0.75 -3.265625 C 0.75 -3.332031 0.742188 -3.386719 0.722656 -3.425781 C 0.703125 -3.46875 0.652344 -3.507812 0.578125 -3.542969 C 0.53125 -3.566406 0.464844 -3.585938 0.378906 -3.601562 C 0.292969 -3.621094 0.230469 -3.632812 0.1875 -3.636719 L 0.1875 -3.847656 L 3.601562 -3.847656 Z "/>
</g>
<g id="glyph-0-1">
<path d="M 3.457031 -1.335938 L 2.171875 -1.335938 L 2.171875 -0.0507812 L 1.726562 -0.0507812 L 1.726562 -1.335938 L 0.445312 -1.335938 L 0.445312 -1.78125 L 1.726562 -1.78125 L 1.726562 -3.0625 L 2.171875 -3.0625 L 2.171875 -1.78125 L 3.457031 -1.78125 Z "/>
</g>
<g id="glyph-0-2">
<path d="M 3.238281 0 L 0.296875 0 L 0.296875 -0.492188 C 0.425781 -0.621094 0.566406 -0.738281 0.722656 -0.847656 C 0.875 -0.957031 1.03125 -1.050781 1.1875 -1.132812 C 1.355469 -1.222656 1.496094 -1.300781 1.609375 -1.371094 C 1.726562 -1.441406 1.816406 -1.515625 1.878906 -1.589844 C 1.945312 -1.660156 1.992188 -1.738281 2.019531 -1.820312 C 2.046875 -1.902344 2.0625 -1.996094 2.0625 -2.101562 C 2.0625 -2.328125 2.007812 -2.496094 1.898438 -2.601562 C 1.789062 -2.707031 1.644531 -2.757812 1.464844 -2.757812 C 1.410156 -2.757812 1.355469 -2.753906 1.308594 -2.746094 C 1.257812 -2.738281 1.203125 -2.722656 1.148438 -2.703125 C 1.175781 -2.621094 1.203125 -2.535156 1.230469 -2.449219 C 1.253906 -2.363281 1.265625 -2.265625 1.265625 -2.160156 C 1.265625 -2.03125 1.222656 -1.929688 1.128906 -1.851562 C 1.035156 -1.777344 0.917969 -1.738281 0.777344 -1.738281 C 0.640625 -1.738281 0.53125 -1.785156 0.453125 -1.871094 C 0.371094 -1.960938 0.332031 -2.066406 0.332031 -2.195312 C 0.332031 -2.414062 0.460938 -2.605469 0.714844 -2.765625 C 0.972656 -2.929688 1.285156 -3.007812 1.65625 -3.007812 C 2.082031 -3.007812 2.425781 -2.933594 2.691406 -2.789062 C 2.953125 -2.640625 3.085938 -2.40625 3.085938 -2.082031 C 3.085938 -1.914062 3.050781 -1.777344 2.980469 -1.675781 C 2.910156 -1.570312 2.808594 -1.480469 2.671875 -1.402344 C 2.550781 -1.332031 2.417969 -1.273438 2.269531 -1.230469 C 2.121094 -1.183594 1.964844 -1.140625 1.796875 -1.097656 C 1.617188 -1.054688 1.460938 -1.003906 1.328125 -0.953125 C 1.195312 -0.902344 1.078125 -0.84375 0.972656 -0.773438 L 0.972656 -0.742188 L 3.238281 -0.742188 Z "/>
</g>
</g>
</defs>
<g fill="rgb(5.098039%, 6.666667%, 9.019608%)" fill-opacity="1">
<use xlink:href="#glyph-0-0" x="30" y="25.094727"/>
<use xlink:href="#glyph-0-1" x="34" y="25.094727"/>
<use xlink:href="#glyph-0-2" x="38" y="25.094727"/>
</g>
</svg>
