<?xml version="1.0" encoding="UTF-8"?>
<svg xmlns="http://www.w3.org/2000/svg" xmlns:xlink="http://www.w3.org/1999/xlink" width="854" height="480" viewBox="0 0 854 480">
<defs>
<g>
<g id="glyph-0-0">
<path d="M 2.066406 -0.875 L 1.273438 -0.875 L 1.273438 -0.0820312 L 1.050781 -0.0820312 L 1.050781 -0.875 L 0.253906 -0.875 L 0.253906 -1.097656 L 1.050781 -1.097656 L 1.050781 -1.890625 L 1.273438 -1.890625 L 1.273438 -1.097656 L 2.066406 -1.097656 Z "/>
</g>
<g id="glyph-0-1">
<path d="M 1.425781 0 L 0.238281 0 L 0.238281 -0.125 C 0.273438 -0.128906 0.328125 -0.132812 0.402344 -0.140625 C 0.476562 -0.148438 0.527344 -0.15625 0.558594 -0.164062 C 0.59375 -0.175781 0.621094 -0.195312 0.640625 -0.222656 C 0.660156 -0.246094 0.671875 -0.289062 0.671875 -0.339844 L 0.671875 -1.578125 L 0.230469 -1.578125 L 0.230469 -1.726562 L 0.328125 -1.726562 C 0.453125 -1.726562 0.570312 -1.75 0.667969 -1.796875 C 0.769531 -1.84375 0.839844 -1.894531 0.886719 -1.949219 L 1.03125 -1.949219 C 1.027344 -1.871094 1.023438 -1.78125 1.019531 -1.679688 C 1.015625 -1.578125 1.015625 -1.484375 1.015625 -1.40625 L 1.015625 -0.359375 C 1.015625 -0.320312 1.023438 -0.28125 1.042969 -0.25 C 1.0625 -0.21875 1.085938 -0.191406 1.121094 -0.179688 C 1.152344 -0.164062 1.203125 -0.152344 1.269531 -0.144531 C 1.339844 -0.132812 1.390625 -0.125 1.425781 -0.125 Z "/>
</g>
<g id="glyph-0-2">
<path d="M 1.339844 -0.316406 C 1.382812 -0.394531 1.410156 -0.480469 1.429688 -0.570312 C 1.445312 -0.660156 1.457031 -0.761719 1.457031 -0.875 C 1.457031 -0.964844 1.449219 -1.0625 1.429688 -1.160156 C 1.414062 -1.257812 1.386719 -1.339844 1.355469 -1.402344 C 1.316406 -1.476562 1.265625 -1.53125 1.207031 -1.570312 C 1.148438 -1.613281 1.074219 -1.632812 0.976562 -1.632812 C 0.882812 -1.632812 0.804688 -1.609375 0.742188 -1.566406 C 0.679688 -1.519531 0.628906 -1.460938 0.589844 -1.390625 C 0.554688 -1.324219 0.53125 -1.246094 0.511719 -1.160156 C 0.496094 -1.070312 0.488281 -0.980469 0.488281 -0.886719 C 0.488281 -0.78125 0.496094 -0.679688 0.515625 -0.582031 C 0.535156 -0.484375 0.5625 -0.398438 0.601562 -0.324219 C 0.644531 -0.246094 0.691406 -0.1875 0.753906 -0.144531 C 0.8125 -0.101562 0.890625 -0.0820312 0.976562 -0.0820312 C 1.058594 -0.0820312 1.128906 -0.101562 1.191406 -0.144531 C 1.253906 -0.1875 1.300781 -0.246094 1.339844 -0.316406 M 1.335938 -1.738281 L 2.03125 -1.738281 L 2.03125 -1.523438 L 1.527344 -1.523438 L 1.527344 -1.511719 C 1.625 -1.433594 1.695312 -1.335938 1.746094 -1.226562 C 1.796875 -1.117188 1.820312 -0.996094 1.820312 -0.863281 C 1.820312 -0.746094 1.800781 -0.628906 1.765625 -0.519531 C 1.726562 -0.40625 1.671875 -0.308594 1.597656 -0.226562 C 1.523438 -0.140625 1.433594 -0.0703125 1.328125 -0.0234375 C 1.222656 0.0273438 1.097656 0.0546875 0.957031 0.0546875 C 0.84375 0.0546875 0.738281 0.03125 0.640625 -0.0078125 C 0.539062 -0.0507812 0.453125 -0.113281 0.375 -0.191406 C 0.296875 -0.269531 0.238281 -0.367188 0.191406 -0.480469 C 0.144531 -0.59375 0.125 -0.722656 0.125 -0.863281 C 0.125 -1.003906 0.144531 -1.128906 0.183594 -1.238281 C 0.222656 -1.347656 0.28125 -1.445312 0.355469 -1.53125 C 0.429688 -1.609375 0.519531 -1.671875 0.628906 -1.71875 C 0.734375 -1.765625 0.855469 -1.789062 0.980469 -1.789062 C 1.050781 -1.789062 1.109375 -1.785156 1.160156 -1.773438 C 1.214844 -1.765625 1.269531 -1.753906 1.335938 -1.738281 Z "/>
</g>
</g>
</defs>
<g fill="rgb(54.509804%, 60.392157%, 69.019608%)" fill-opacity="1">
<use xlink:href="#glyph-0-0" x="30" y="23.310547"/>
<use xlink:href="#glyph-0-1" x="32" y="23.310547"/>
<use xlink:href="#glyph-0-2" x="34" y="23.310547"/>
</g>
</svg>
