<?xml version="1.0" encoding="UTF-8"?>
<svg xmlns="http://www.w3.org/2000/svg" xmlns:xlink="http://www.w3.org/1999/xlink" width="854" height="480" viewBox="0 0 854 480">
<defs>
<g>
<g id="glyph-0-0">
<path d="M 1.847656 -0.628906 L 1.800781 0 L 0.144531 0 L 0.144531 -0.105469 C 0.171875 -0.109375 0.203125 -0.113281 0.25 -0.117188 C 0.296875 -0.121094 0.328125 -0.128906 0.34375 -0.136719 C 0.375 -0.148438 0.394531 -0.167969 0.410156 -0.191406 C 0.421875 -0.21875 0.429688 -0.25 0.429688 -0.289062 L 0.429688 -1.804688 C 0.429688 -1.835938 0.425781 -1.867188 0.414062 -1.894531 C 0.402344 -1.917969 0.378906 -1.941406 0.34375 -1.957031 C 0.320312 -1.96875 0.289062 -1.980469 0.25 -1.992188 C 0.207031 -2.003906 0.171875 -2.007812 0.144531 -2.011719 L 0.144531 -2.117188 L 1.039062 -2.117188 L 1.039062 -2.011719 C 1.011719 -2.011719 0.976562 -2.003906 0.933594 -1.996094 C 0.886719 -1.988281 0.855469 -1.980469 0.835938 -1.972656 C 0.800781 -1.960938 0.777344 -1.941406 0.765625 -1.910156 C 0.753906 -1.882812 0.746094 -1.851562 0.746094 -1.820312 L 0.746094 -0.398438 C 0.746094 -0.332031 0.75 -0.28125 0.757812 -0.242188 C 0.765625 -0.207031 0.777344 -0.179688 0.804688 -0.160156 C 0.824219 -0.140625 0.859375 -0.128906 0.90625 -0.125 C 0.949219 -0.117188 1.015625 -0.117188 1.09375 -0.117188 C 1.132812 -0.117188 1.171875 -0.117188 1.210938 -0.121094 C 1.25 -0.121094 1.289062 -0.125 1.324219 -0.132812 C 1.359375 -0.136719 1.390625 -0.144531 1.417969 -0.15625 C 1.449219 -0.167969 1.472656 -0.179688 1.484375 -0.195312 C 1.527344 -0.242188 1.574219 -0.3125 1.628906 -0.402344 C 1.679688 -0.496094 1.71875 -0.570312 1.738281 -0.628906 Z "/>
</g>
<g id="glyph-0-1">
<path d="M 0.820312 0 L 0.109375 0 L 0.109375 -0.0976562 C 0.132812 -0.101562 0.15625 -0.101562 0.179688 -0.105469 C 0.207031 -0.105469 0.226562 -0.109375 0.246094 -0.117188 C 0.273438 -0.125 0.292969 -0.140625 0.308594 -0.164062 C 0.320312 -0.1875 0.328125 -0.214844 0.328125 -0.25 L 0.328125 -1.15625 C 0.328125 -1.191406 0.320312 -1.21875 0.304688 -1.246094 C 0.289062 -1.273438 0.269531 -1.292969 0.246094 -1.3125 C 0.226562 -1.324219 0.199219 -1.332031 0.164062 -1.34375 C 0.125 -1.351562 0.09375 -1.355469 0.0625 -1.359375 L 0.0625 -1.457031 L 0.582031 -1.488281 L 0.605469 -1.46875 L 0.605469 -0.269531 C 0.605469 -0.234375 0.609375 -0.203125 0.625 -0.183594 C 0.636719 -0.160156 0.660156 -0.140625 0.6875 -0.132812 C 0.710938 -0.121094 0.730469 -0.113281 0.75 -0.109375 C 0.773438 -0.105469 0.796875 -0.101562 0.820312 -0.0976562 L 0.820312 0 M 0.632812 -2.070312 C 0.632812 -2.011719 0.617188 -1.964844 0.578125 -1.921875 C 0.539062 -1.878906 0.496094 -1.859375 0.441406 -1.859375 C 0.390625 -1.859375 0.34375 -1.878906 0.308594 -1.917969 C 0.269531 -1.957031 0.253906 -2.003906 0.253906 -2.054688 C 0.253906 -2.109375 0.269531 -2.160156 0.308594 -2.199219 C 0.34375 -2.242188 0.390625 -2.261719 0.441406 -2.261719 C 0.496094 -2.261719 0.542969 -2.242188 0.578125 -2.203125 C 0.617188 -2.164062 0.632812 -2.121094 0.632812 -2.070312 Z "/>
</g>
<g id="glyph-0-2">
<path d="M 2.625 0 L 1.910156 0 L 1.910156 -0.0976562 C 1.929688 -0.101562 1.953125 -0.101562 1.976562 -0.105469 C 2 -0.105469 2.023438 -0.109375 2.039062 -0.117188 C 2.066406 -0.125 2.089844 -0.140625 2.101562 -0.164062 C 2.113281 -0.1875 2.121094 -0.214844 2.121094 -0.25 L 2.121094 -1.011719 C 2.121094 -1.113281 2.097656 -1.195312 2.050781 -1.25 C 2.003906 -1.304688 1.945312 -1.335938 1.875 -1.335938 C 1.824219 -1.335938 1.78125 -1.328125 1.738281 -1.3125 C 1.695312 -1.296875 1.65625 -1.277344 1.617188 -1.25 C 1.589844 -1.226562 1.566406 -1.203125 1.546875 -1.179688 C 1.527344 -1.152344 1.511719 -1.132812 1.503906 -1.113281 L 1.503906 -0.265625 C 1.503906 -0.230469 1.507812 -0.203125 1.519531 -0.179688 C 1.53125 -0.15625 1.554688 -0.140625 1.582031 -0.128906 C 1.605469 -0.121094 1.625 -0.113281 1.644531 -0.109375 C 1.660156 -0.105469 1.6875 -0.101562 1.714844 -0.0976562 L 1.714844 0 L 1.015625 0 L 1.015625 -0.0976562 C 1.039062 -0.101562 1.058594 -0.101562 1.082031 -0.105469 C 1.101562 -0.105469 1.121094 -0.109375 1.140625 -0.117188 C 1.167969 -0.125 1.1875 -0.140625 1.203125 -0.164062 C 1.214844 -0.1875 1.222656 -0.214844 1.222656 -0.25 L 1.222656 -1.011719 C 1.222656 -1.113281 1.199219 -1.195312 1.152344 -1.25 C 1.105469 -1.304688 1.042969 -1.335938 0.972656 -1.335938 C 0.925781 -1.335938 0.878906 -1.328125 0.835938 -1.3125 C 0.792969 -1.296875 0.753906 -1.273438 0.71875 -1.246094 C 0.6875 -1.226562 0.664062 -1.199219 0.644531 -1.171875 C 0.625 -1.144531 0.609375 -1.125 0.601562 -1.113281 L 0.601562 -0.269531 C 0.601562 -0.234375 0.605469 -0.207031 0.621094 -0.183594 C 0.632812 -0.160156 0.65625 -0.144531 0.683594 -0.132812 C 0.703125 -0.121094 0.726562 -0.113281 0.746094 -0.109375 C 0.769531 -0.105469 0.792969 -0.101562 0.820312 -0.0976562 L 0.820312 0 L 0.105469 0 L 0.105469 -0.0976562 C 0.128906 -0.101562 0.152344 -0.101562 0.175781 -0.105469 C 0.203125 -0.105469 0.222656 -0.109375 0.242188 -0.117188 C 0.269531 -0.125 0.289062 -0.140625 0.300781 -0.164062 C 0.316406 -0.1875 0.324219 -0.214844 0.324219 -0.25 L 0.324219 -1.164062 C 0.324219 -1.195312 0.316406 -1.222656 0.300781 -1.25 C 0.285156 -1.273438 0.265625 -1.296875 0.242188 -1.316406 C 0.222656 -1.328125 0.199219 -1.335938 0.171875 -1.34375 C 0.140625 -1.351562 0.113281 -1.355469 0.0820312 -1.359375 L 0.0820312 -1.457031 L 0.574219 -1.488281 L 0.597656 -1.46875 L 0.597656 -1.257812 L 0.605469 -1.257812 C 0.632812 -1.28125 0.664062 -1.3125 0.699219 -1.347656 C 0.734375 -1.378906 0.765625 -1.40625 0.796875 -1.429688 C 0.832031 -1.453125 0.875 -1.472656 0.929688 -1.488281 C 0.980469 -1.503906 1.039062 -1.511719 1.097656 -1.511719 C 1.195312 -1.511719 1.277344 -1.484375 1.34375 -1.433594 C 1.414062 -1.382812 1.460938 -1.320312 1.492188 -1.25 C 1.527344 -1.285156 1.558594 -1.3125 1.585938 -1.339844 C 1.613281 -1.367188 1.648438 -1.394531 1.695312 -1.425781 C 1.734375 -1.449219 1.777344 -1.472656 1.828125 -1.488281 C 1.878906 -1.503906 1.9375 -1.511719 2 -1.511719 C 2.121094 -1.511719 2.222656 -1.472656 2.292969 -1.390625 C 2.367188 -1.308594 2.402344 -1.183594 2.402344 -1.011719 L 2.402344 -0.265625 C 2.402344 -0.230469 2.410156 -0.203125 2.421875 -0.179688 C 2.433594 -0.15625 2.453125 -0.140625 2.480469 -0.128906 C 2.503906 -0.121094 2.527344 -0.113281 2.550781 -0.109375 C 2.570312 -0.105469 2.597656 -0.101562 2.625 -0.0976562 Z "/>
</g>
<g id="glyph-0-3">
<path d="M 1.542969 -0.75 C 1.542969 -0.648438 1.527344 -0.546875 1.492188 -0.445312 C 1.460938 -0.34375 1.414062 -0.261719 1.351562 -0.191406 C 1.285156 -0.113281 1.203125 -0.0507812 1.113281 -0.0117188 C 1.023438 0.0234375 0.921875 0.0429688 0.808594 0.0429688 C 0.714844 0.0429688 0.625 0.0273438 0.542969 -0.0078125 C 0.457031 -0.0429688 0.382812 -0.09375 0.316406 -0.164062 C 0.25 -0.230469 0.199219 -0.3125 0.160156 -0.40625 C 0.125 -0.503906 0.105469 -0.609375 0.105469 -0.730469 C 0.105469 -0.960938 0.171875 -1.148438 0.304688 -1.292969 C 0.4375 -1.441406 0.613281 -1.511719 0.832031 -1.511719 C 1.039062 -1.511719 1.207031 -1.445312 1.34375 -1.304688 C 1.476562 -1.167969 1.542969 -0.980469 1.542969 -0.75 M 1.234375 -0.746094 C 1.234375 -0.820312 1.226562 -0.902344 1.210938 -0.984375 C 1.195312 -1.066406 1.175781 -1.136719 1.144531 -1.195312 C 1.113281 -1.257812 1.070312 -1.304688 1.019531 -1.34375 C 0.96875 -1.382812 0.902344 -1.398438 0.828125 -1.398438 C 0.753906 -1.398438 0.6875 -1.378906 0.632812 -1.34375 C 0.578125 -1.304688 0.535156 -1.253906 0.5 -1.1875 C 0.46875 -1.128906 0.445312 -1.058594 0.433594 -0.980469 C 0.417969 -0.902344 0.414062 -0.828125 0.414062 -0.753906 C 0.414062 -0.660156 0.421875 -0.570312 0.4375 -0.488281 C 0.453125 -0.410156 0.476562 -0.335938 0.511719 -0.273438 C 0.542969 -0.210938 0.585938 -0.160156 0.636719 -0.125 C 0.691406 -0.0859375 0.753906 -0.0703125 0.828125 -0.0703125 C 0.953125 -0.0703125 1.050781 -0.128906 1.125 -0.25 C 1.199219 -0.371094 1.234375 -0.535156 1.234375 -0.746094 Z "/>
</g>
<g id="glyph-0-4">
</g>
<g id="glyph-1-0">
<path d="M 0.726562 0.542969 C 0.632812 0.542969 0.546875 0.53125 0.46875 0.507812 C 0.390625 0.484375 0.324219 0.453125 0.269531 0.414062 C 0.214844 0.375 0.171875 0.328125 0.140625 0.277344 C 0.109375 0.226562 0.09375 0.171875 0.09375 0.117188 C 0.09375 0.0703125 0.109375 0.0234375 0.132812 -0.015625 C 0.15625 -0.0546875 0.195312 -0.0742188 0.246094 -0.0742188 C 0.304688 -0.0742188 0.351562 -0.0585938 0.382812 -0.0273438 C 0.414062 0 0.429688 0.0351562 0.429688 0.0703125 C 0.429688 0.101562 0.425781 0.144531 0.414062 0.191406 C 0.402344 0.242188 0.394531 0.277344 0.390625 0.296875 C 0.394531 0.304688 0.410156 0.316406 0.425781 0.332031 C 0.445312 0.347656 0.46875 0.359375 0.496094 0.371094 C 0.527344 0.386719 0.5625 0.398438 0.597656 0.410156 C 0.628906 0.417969 0.679688 0.421875 0.742188 0.421875 C 0.804688 0.421875 0.859375 0.414062 0.917969 0.390625 C 0.972656 0.371094 1.019531 0.339844 1.0625 0.296875 C 1.105469 0.25 1.140625 0.199219 1.164062 0.136719 C 1.1875 0.0742188 1.203125 -0.00390625 1.203125 -0.105469 C 1.203125 -0.15625 1.195312 -0.210938 1.183594 -0.265625 C 1.171875 -0.316406 1.152344 -0.363281 1.121094 -0.402344 C 1.089844 -0.441406 1.046875 -0.46875 0.992188 -0.492188 C 0.941406 -0.511719 0.875 -0.523438 0.792969 -0.523438 L 0.59375 -0.523438 L 0.59375 -0.695312 L 0.726562 -0.695312 C 0.863281 -0.695312 0.960938 -0.734375 1.023438 -0.808594 C 1.085938 -0.882812 1.113281 -1 1.113281 -1.152344 C 1.113281 -1.273438 1.085938 -1.367188 1.027344 -1.433594 C 0.96875 -1.496094 0.882812 -1.527344 0.777344 -1.527344 C 0.726562 -1.527344 0.683594 -1.519531 0.648438 -1.507812 C 0.617188 -1.496094 0.589844 -1.484375 0.566406 -1.472656 C 0.542969 -1.457031 0.523438 -1.441406 0.507812 -1.425781 C 0.488281 -1.40625 0.476562 -1.394531 0.46875 -1.386719 C 0.476562 -1.355469 0.484375 -1.316406 0.496094 -1.269531 C 0.503906 -1.222656 0.511719 -1.179688 0.511719 -1.136719 C 0.511719 -1.101562 0.496094 -1.070312 0.464844 -1.039062 C 0.433594 -1.011719 0.386719 -0.996094 0.324219 -0.996094 C 0.273438 -0.996094 0.234375 -1.015625 0.210938 -1.050781 C 0.183594 -1.089844 0.171875 -1.132812 0.171875 -1.183594 C 0.171875 -1.234375 0.1875 -1.289062 0.214844 -1.339844 C 0.246094 -1.394531 0.289062 -1.445312 0.34375 -1.492188 C 0.402344 -1.539062 0.46875 -1.578125 0.550781 -1.605469 C 0.632812 -1.632812 0.726562 -1.648438 0.835938 -1.648438 C 0.957031 -1.648438 1.058594 -1.628906 1.136719 -1.59375 C 1.21875 -1.558594 1.28125 -1.515625 1.328125 -1.460938 C 1.371094 -1.410156 1.402344 -1.359375 1.417969 -1.300781 C 1.4375 -1.246094 1.445312 -1.199219 1.445312 -1.160156 C 1.445312 -1.109375 1.4375 -1.058594 1.421875 -1.007812 C 1.410156 -0.960938 1.386719 -0.914062 1.355469 -0.871094 C 1.320312 -0.824219 1.273438 -0.78125 1.21875 -0.742188 C 1.160156 -0.703125 1.085938 -0.671875 1 -0.648438 L 1 -0.625 C 1.058594 -0.621094 1.117188 -0.609375 1.179688 -0.589844 C 1.242188 -0.566406 1.300781 -0.539062 1.351562 -0.5 C 1.402344 -0.460938 1.445312 -0.40625 1.480469 -0.34375 C 1.515625 -0.277344 1.53125 -0.195312 1.53125 -0.0976562 C 1.53125 0.09375 1.453125 0.246094 1.300781 0.367188 C 1.148438 0.484375 0.957031 0.542969 0.726562 0.542969 Z "/>
</g>
<g id="glyph-1-1">
<path d="M 1.53125 -1.394531 C 1.597656 -1.316406 1.644531 -1.226562 1.675781 -1.125 C 1.707031 -1.019531 1.722656 -0.914062 1.722656 -0.800781 C 1.722656 -0.664062 1.703125 -0.542969 1.664062 -0.4375 C 1.625 -0.332031 1.570312 -0.242188 1.503906 -0.171875 C 1.433594 -0.0976562 1.351562 -0.0429688 1.257812 -0.0078125 C 1.160156 0.03125 1.054688 0.046875 0.9375 0.046875 C 0.808594 0.046875 0.695312 0.0273438 0.59375 -0.015625 C 0.492188 -0.0585938 0.410156 -0.117188 0.347656 -0.191406 C 0.285156 -0.269531 0.234375 -0.359375 0.203125 -0.464844 C 0.167969 -0.570312 0.152344 -0.679688 0.152344 -0.800781 C 0.152344 -0.917969 0.167969 -1.027344 0.199219 -1.128906 C 0.230469 -1.226562 0.28125 -1.316406 0.347656 -1.398438 C 0.410156 -1.476562 0.492188 -1.535156 0.59375 -1.582031 C 0.695312 -1.625 0.808594 -1.648438 0.9375 -1.648438 C 1.074219 -1.648438 1.191406 -1.625 1.289062 -1.582031 C 1.386719 -1.535156 1.46875 -1.472656 1.53125 -1.394531 M 1.390625 -0.800781 C 1.390625 -1.039062 1.351562 -1.222656 1.269531 -1.351562 C 1.191406 -1.480469 1.078125 -1.546875 0.941406 -1.546875 C 0.796875 -1.546875 0.6875 -1.480469 0.605469 -1.351562 C 0.523438 -1.222656 0.484375 -1.039062 0.484375 -0.800781 C 0.484375 -0.578125 0.523438 -0.394531 0.601562 -0.257812 C 0.679688 -0.121094 0.789062 -0.0546875 0.9375 -0.0546875 C 1.082031 -0.0546875 1.195312 -0.121094 1.273438 -0.257812 C 1.351562 -0.394531 1.390625 -0.578125 1.390625 -0.800781 Z "/>
</g>
<g id="glyph-1-2">
<path d="M 1.175781 -1.617188 C 1.175781 -1.441406 1.128906 -1.304688 1.035156 -1.207031 C 0.941406 -1.113281 0.816406 -1.0625 0.667969 -1.0625 C 0.519531 -1.0625 0.398438 -1.113281 0.304688 -1.207031 C 0.210938 -1.304688 0.164062 -1.441406 0.164062 -1.617188 C 0.164062 -1.78125 0.207031 -1.914062 0.300781 -2.015625 C 0.394531 -2.117188 0.515625 -2.167969 0.671875 -2.167969 C 0.820312 -2.167969 0.945312 -2.117188 1.035156 -2.015625 C 1.128906 -1.914062 1.175781 -1.78125 1.175781 -1.617188 M 0.921875 -1.617188 C 0.921875 -1.746094 0.902344 -1.851562 0.859375 -1.933594 C 0.816406 -2.019531 0.753906 -2.058594 0.671875 -2.058594 C 0.585938 -2.058594 0.519531 -2.019531 0.476562 -1.933594 C 0.4375 -1.851562 0.414062 -1.746094 0.414062 -1.617188 C 0.414062 -1.484375 0.4375 -1.375 0.480469 -1.292969 C 0.523438 -1.214844 0.585938 -1.171875 0.667969 -1.171875 C 0.753906 -1.171875 0.816406 -1.214844 0.859375 -1.292969 C 0.902344 -1.375 0.921875 -1.484375 0.921875 -1.617188 M 2.335938 -0.503906 C 2.335938 -0.328125 2.289062 -0.195312 2.195312 -0.0976562 C 2.097656 0 1.976562 0.046875 1.828125 0.046875 C 1.679688 0.046875 1.558594 0 1.464844 -0.0976562 C 1.367188 -0.195312 1.320312 -0.328125 1.320312 -0.503906 C 1.320312 -0.667969 1.367188 -0.804688 1.460938 -0.902344 C 1.550781 -1.003906 1.675781 -1.054688 1.828125 -1.054688 C 1.980469 -1.054688 2.105469 -1.003906 2.195312 -0.902344 C 2.289062 -0.804688 2.335938 -0.667969 2.335938 -0.503906 M 2.082031 -0.503906 C 2.082031 -0.632812 2.0625 -0.742188 2.019531 -0.824219 C 1.976562 -0.90625 1.914062 -0.949219 1.828125 -0.949219 C 1.742188 -0.949219 1.679688 -0.90625 1.636719 -0.824219 C 1.59375 -0.742188 1.574219 -0.632812 1.574219 -0.503906 C 1.574219 -0.371094 1.59375 -0.265625 1.636719 -0.183594 C 1.679688 -0.101562 1.746094 -0.0625 1.828125 -0.0625 C 1.910156 -0.0625 1.976562 -0.101562 2.019531 -0.183594 C 2.0625 -0.265625 2.082031 -0.371094 2.082031 -0.503906 M 2.238281 -2.125 L 0.476562 0 L 0.273438 0 L 2.027344 -2.125 Z "/>
</g>
</g>
</defs>
<g fill="rgb(64.705882%, 83.921569%, 65.490196%)" fill-opacity="1">
<use xlink:href="#glyph-0-0" x="30" y="22.801758"/>
<use xlink:href="#glyph-0-1" x="32" y="22.801758"/>
<use xlink:href="#glyph-0-2" x="33" y="22.801758"/>
<use xlink:href="#glyph-0-3" x="36" y="22.801758"/>
<use xlink:href="#glyph-0-4" x="38" y="22.801758"/>
</g>
<g fill="rgb(64.705882%, 83.921569%, 65.490196%)" fill-opacity="1">
<use xlink:href="#glyph-1-0" x="30" y="27.383789"/>
<use xlink:href="#glyph-1-1" x="32" y="27.383789"/>
<use xlink:href="#glyph-1-2" x="34" y="27.383789"/>
</g>
</svg>
