<?xml version="1.0" encoding="UTF-8"?>
<svg xmlns="http://www.w3.org/2000/svg" xmlns:xlink="http://www.w3.org/1999/xlink" width="854" height="480" viewBox="0 0 854 480">
<defs>
<g>
<g id="glyph-0-0">
<path d="M 2.835938 0 L 1.472656 0 L 1.472656 -0.136719 C 1.539062 -0.140625 1.613281 -0.152344 1.699219 -0.171875 C 1.78125 -0.191406 1.824219 -0.210938 1.824219 -0.238281 C 1.824219 -0.25 1.824219 -0.257812 1.824219 -0.273438 C 1.820312 -0.285156 1.816406 -0.300781 1.808594 -0.320312 L 1.59375 -0.835938 L 0.730469 -0.835938 C 0.710938 -0.789062 0.6875 -0.734375 0.664062 -0.667969 C 0.640625 -0.605469 0.621094 -0.546875 0.601562 -0.496094 C 0.582031 -0.429688 0.566406 -0.382812 0.5625 -0.351562 C 0.558594 -0.324219 0.558594 -0.300781 0.558594 -0.289062 C 0.558594 -0.253906 0.585938 -0.222656 0.644531 -0.195312 C 0.699219 -0.167969 0.792969 -0.148438 0.925781 -0.136719 L 0.925781 0 L -0.0976562 0 L -0.0976562 -0.136719 C -0.0585938 -0.140625 -0.015625 -0.144531 0.03125 -0.15625 C 0.0820312 -0.167969 0.121094 -0.179688 0.148438 -0.199219 C 0.195312 -0.226562 0.238281 -0.261719 0.269531 -0.300781 C 0.304688 -0.34375 0.332031 -0.390625 0.355469 -0.449219 C 0.492188 -0.777344 0.628906 -1.109375 0.765625 -1.441406 C 0.902344 -1.773438 1.050781 -2.136719 1.21875 -2.535156 L 1.570312 -2.535156 C 1.800781 -1.96875 1.980469 -1.523438 2.113281 -1.195312 C 2.242188 -0.863281 2.355469 -0.589844 2.445312 -0.375 C 2.460938 -0.339844 2.480469 -0.308594 2.503906 -0.28125 C 2.527344 -0.25 2.558594 -0.222656 2.605469 -0.199219 C 2.636719 -0.179688 2.675781 -0.164062 2.71875 -0.15625 C 2.761719 -0.144531 2.800781 -0.140625 2.835938 -0.136719 L 2.835938 0 M 1.523438 -1.011719 L 1.160156 -1.917969 L 0.804688 -1.011719 Z "/>
</g>
<g id="glyph-0-1">
<path d="M 2.25 -0.859375 C 2.25 -0.609375 2.167969 -0.398438 2 -0.21875 C 1.835938 -0.0429688 1.625 0.046875 1.371094 0.046875 C 1.261719 0.046875 1.167969 0.0351562 1.097656 0.0117188 C 1.027344 -0.0117188 0.96875 -0.0390625 0.921875 -0.0742188 L 0.910156 -0.0742188 L 0.910156 0.421875 C 0.910156 0.464844 0.917969 0.5 0.9375 0.53125 C 0.957031 0.5625 0.980469 0.582031 1.015625 0.597656 C 1.046875 0.609375 1.089844 0.621094 1.148438 0.632812 C 1.207031 0.644531 1.253906 0.648438 1.292969 0.652344 L 1.292969 0.78125 L 0.0195312 0.78125 L 0.0195312 0.652344 C 0.046875 0.648438 0.0859375 0.644531 0.128906 0.640625 C 0.175781 0.632812 0.207031 0.625 0.230469 0.617188 C 0.269531 0.605469 0.292969 0.582031 0.308594 0.550781 C 0.320312 0.523438 0.328125 0.484375 0.328125 0.445312 L 0.328125 -1.359375 C 0.324219 -1.394531 0.316406 -1.429688 0.300781 -1.460938 C 0.285156 -1.488281 0.261719 -1.515625 0.230469 -1.539062 C 0.207031 -1.550781 0.175781 -1.566406 0.136719 -1.574219 C 0.0976562 -1.585938 0.0585938 -1.59375 0.0234375 -1.59375 L 0.0234375 -1.722656 L 0.882812 -1.769531 L 0.910156 -1.746094 L 0.910156 -1.550781 L 0.921875 -1.546875 C 1 -1.625 1.085938 -1.6875 1.183594 -1.730469 C 1.277344 -1.773438 1.371094 -1.796875 1.460938 -1.796875 C 1.707031 -1.796875 1.898438 -1.710938 2.039062 -1.539062 C 2.179688 -1.367188 2.25 -1.140625 2.25 -0.859375 M 1.617188 -0.851562 C 1.617188 -0.941406 1.609375 -1.023438 1.597656 -1.105469 C 1.585938 -1.183594 1.5625 -1.257812 1.527344 -1.320312 C 1.496094 -1.382812 1.457031 -1.433594 1.402344 -1.472656 C 1.351562 -1.507812 1.289062 -1.527344 1.210938 -1.527344 C 1.136719 -1.527344 1.074219 -1.515625 1.03125 -1.488281 C 0.984375 -1.460938 0.945312 -1.429688 0.910156 -1.386719 L 0.910156 -0.386719 C 0.917969 -0.363281 0.929688 -0.332031 0.949219 -0.296875 C 0.96875 -0.257812 0.988281 -0.230469 1.011719 -0.207031 C 1.039062 -0.175781 1.074219 -0.152344 1.109375 -0.136719 C 1.148438 -0.121094 1.1875 -0.113281 1.234375 -0.113281 C 1.347656 -0.113281 1.441406 -0.175781 1.511719 -0.300781 C 1.582031 -0.425781 1.617188 -0.609375 1.617188 -0.851562 Z "/>
</g>
<g id="glyph-0-2">
<path d="M 1.214844 0 L 0.101562 0 L 0.101562 -0.128906 C 0.132812 -0.132812 0.164062 -0.132812 0.191406 -0.136719 C 0.222656 -0.140625 0.246094 -0.148438 0.269531 -0.15625 C 0.304688 -0.167969 0.332031 -0.191406 0.347656 -0.214844 C 0.363281 -0.242188 0.371094 -0.277344 0.371094 -0.320312 L 0.371094 -1.347656 C 0.371094 -1.386719 0.359375 -1.425781 0.34375 -1.457031 C 0.324219 -1.488281 0.300781 -1.511719 0.273438 -1.53125 C 0.25 -1.542969 0.21875 -1.558594 0.175781 -1.570312 C 0.132812 -1.582031 0.09375 -1.59375 0.0585938 -1.59375 L 0.0585938 -1.722656 L 0.921875 -1.769531 L 0.949219 -1.742188 L 0.949219 -0.34375 C 0.949219 -0.300781 0.957031 -0.269531 0.976562 -0.238281 C 0.992188 -0.210938 1.019531 -0.1875 1.050781 -0.175781 C 1.074219 -0.164062 1.101562 -0.15625 1.128906 -0.144531 C 1.15625 -0.136719 1.1875 -0.132812 1.214844 -0.128906 L 1.214844 0 M 0.960938 -2.40625 C 0.960938 -2.316406 0.925781 -2.238281 0.855469 -2.175781 C 0.789062 -2.113281 0.707031 -2.082031 0.613281 -2.082031 C 0.515625 -2.082031 0.433594 -2.113281 0.367188 -2.175781 C 0.296875 -2.238281 0.261719 -2.316406 0.261719 -2.40625 C 0.261719 -2.492188 0.296875 -2.570312 0.367188 -2.632812 C 0.433594 -2.699219 0.515625 -2.730469 0.613281 -2.730469 C 0.707031 -2.730469 0.789062 -2.699219 0.855469 -2.632812 C 0.925781 -2.570312 0.960938 -2.492188 0.960938 -2.40625 Z "/>
</g>
<g id="glyph-0-3">
<path d="M 1.902344 -1.539062 C 1.988281 -1.460938 2.054688 -1.363281 2.101562 -1.25 C 2.148438 -1.136719 2.171875 -1.015625 2.171875 -0.882812 C 2.171875 -0.753906 2.148438 -0.628906 2.101562 -0.515625 C 2.058594 -0.398438 1.992188 -0.300781 1.902344 -0.21875 C 1.8125 -0.128906 1.699219 -0.0625 1.570312 -0.015625 C 1.441406 0.03125 1.296875 0.0546875 1.128906 0.0546875 C 0.988281 0.0546875 0.855469 0.0351562 0.734375 -0.00390625 C 0.613281 -0.046875 0.507812 -0.109375 0.414062 -0.191406 C 0.324219 -0.269531 0.253906 -0.367188 0.203125 -0.480469 C 0.152344 -0.597656 0.125 -0.726562 0.125 -0.871094 C 0.125 -1.011719 0.148438 -1.136719 0.191406 -1.246094 C 0.238281 -1.355469 0.304688 -1.457031 0.398438 -1.539062 C 0.484375 -1.625 0.589844 -1.6875 0.71875 -1.730469 C 0.847656 -1.777344 0.988281 -1.800781 1.144531 -1.800781 C 1.308594 -1.800781 1.457031 -1.777344 1.582031 -1.730469 C 1.707031 -1.6875 1.8125 -1.625 1.902344 -1.539062 M 1.449219 -0.320312 C 1.476562 -0.386719 1.496094 -0.464844 1.507812 -0.558594 C 1.519531 -0.652344 1.527344 -0.761719 1.527344 -0.886719 C 1.527344 -0.96875 1.519531 -1.0625 1.507812 -1.167969 C 1.496094 -1.273438 1.480469 -1.359375 1.457031 -1.417969 C 1.429688 -1.492188 1.390625 -1.550781 1.339844 -1.59375 C 1.289062 -1.636719 1.226562 -1.65625 1.148438 -1.65625 C 1.066406 -1.65625 1 -1.632812 0.949219 -1.589844 C 0.898438 -1.542969 0.859375 -1.484375 0.832031 -1.410156 C 0.808594 -1.34375 0.792969 -1.265625 0.78125 -1.175781 C 0.773438 -1.085938 0.769531 -0.992188 0.769531 -0.894531 C 0.769531 -0.765625 0.773438 -0.660156 0.78125 -0.574219 C 0.789062 -0.492188 0.808594 -0.40625 0.839844 -0.324219 C 0.867188 -0.25 0.90625 -0.191406 0.957031 -0.148438 C 1.007812 -0.109375 1.070312 -0.0859375 1.148438 -0.0859375 C 1.21875 -0.0859375 1.28125 -0.105469 1.332031 -0.144531 C 1.382812 -0.183594 1.421875 -0.242188 1.449219 -0.320312 Z "/>
</g>
</g>
</defs>
<g fill="rgb(5.098039%, 58.039216%, 53.333333%)" fill-opacity="1">
<use xlink:href="#glyph-0-0" x="30" y="23.310547"/>
<use xlink:href="#glyph-0-1" x="33" y="23.310547"/>
<use xlink:href="#glyph-0-2" x="35" y="23.310547"/>
<use xlink:href="#glyph-0-3" x="36" y="23.310547"/>
</g>
</svg>
