<?xml version="1.0" encoding="UTF-8"?>
<svg xmlns="http://www.w3.org/2000/svg" xmlns:xlink="http://www.w3.org/1999/xlink" width="854" height="480" viewBox="0 0 854 480">
<defs>
<g>
<g id="glyph-0-0">
<path d="M 1.796875 0 L 0.230469 0 L 0.230469 -0.144531 C 0.269531 -0.148438 0.328125 -0.152344 0.410156 -0.164062 C 0.492188 -0.171875 0.550781 -0.183594 0.582031 -0.195312 C 0.617188 -0.207031 0.648438 -0.226562 0.671875 -0.257812 C 0.691406 -0.289062 0.703125 -0.332031 0.703125 -0.382812 L 0.703125 -1.585938 L 0.222656 -1.585938 L 0.222656 -1.769531 L 0.328125 -1.769531 C 0.4375 -1.769531 0.53125 -1.78125 0.613281 -1.804688 C 0.691406 -1.828125 0.757812 -1.855469 0.8125 -1.890625 C 0.867188 -1.925781 0.910156 -1.964844 0.945312 -2 C 0.980469 -2.039062 1.007812 -2.074219 1.03125 -2.101562 L 1.363281 -2.101562 C 1.359375 -2.019531 1.355469 -1.921875 1.351562 -1.8125 C 1.347656 -1.703125 1.347656 -1.605469 1.347656 -1.515625 L 1.347656 -0.40625 C 1.347656 -0.359375 1.355469 -0.320312 1.375 -0.285156 C 1.394531 -0.253906 1.421875 -0.226562 1.460938 -0.207031 C 1.492188 -0.195312 1.546875 -0.179688 1.625 -0.167969 C 1.703125 -0.15625 1.761719 -0.148438 1.796875 -0.144531 Z "/>
</g>
<g id="glyph-0-1">
<path d="M 2.265625 0 L 0.207031 0 L 0.207031 -0.34375 C 0.300781 -0.433594 0.398438 -0.519531 0.503906 -0.59375 C 0.613281 -0.667969 0.71875 -0.734375 0.832031 -0.792969 C 0.949219 -0.855469 1.046875 -0.910156 1.128906 -0.960938 C 1.207031 -1.007812 1.269531 -1.058594 1.316406 -1.113281 C 1.363281 -1.164062 1.394531 -1.214844 1.414062 -1.273438 C 1.433594 -1.332031 1.441406 -1.398438 1.441406 -1.46875 C 1.441406 -1.628906 1.40625 -1.746094 1.328125 -1.820312 C 1.253906 -1.894531 1.152344 -1.929688 1.027344 -1.929688 C 0.988281 -1.929688 0.949219 -1.929688 0.914062 -1.921875 C 0.878906 -1.917969 0.84375 -1.90625 0.804688 -1.890625 C 0.824219 -1.835938 0.84375 -1.777344 0.859375 -1.714844 C 0.878906 -1.652344 0.886719 -1.585938 0.886719 -1.511719 C 0.886719 -1.421875 0.855469 -1.351562 0.789062 -1.296875 C 0.726562 -1.242188 0.644531 -1.21875 0.542969 -1.21875 C 0.449219 -1.21875 0.371094 -1.25 0.316406 -1.308594 C 0.261719 -1.371094 0.230469 -1.449219 0.230469 -1.535156 C 0.230469 -1.691406 0.320312 -1.824219 0.5 -1.9375 C 0.679688 -2.050781 0.898438 -2.105469 1.160156 -2.105469 C 1.457031 -2.105469 1.699219 -2.054688 1.882812 -1.953125 C 2.066406 -1.851562 2.160156 -1.683594 2.160156 -1.457031 C 2.160156 -1.339844 2.136719 -1.242188 2.085938 -1.171875 C 2.039062 -1.097656 1.964844 -1.035156 1.871094 -0.980469 C 1.785156 -0.933594 1.691406 -0.890625 1.589844 -0.859375 C 1.484375 -0.828125 1.375 -0.796875 1.257812 -0.769531 C 1.132812 -0.738281 1.023438 -0.703125 0.929688 -0.667969 C 0.835938 -0.632812 0.753906 -0.589844 0.683594 -0.542969 L 0.683594 -0.519531 L 2.265625 -0.519531 Z "/>
</g>
<g id="glyph-0-2">
</g>
<g id="glyph-0-3">
<path d="M 1.523438 -0.0859375 C 1.441406 -0.0507812 1.355469 -0.0195312 1.261719 0.0078125 C 1.171875 0.0351562 1.058594 0.0507812 0.925781 0.0507812 C 0.726562 0.0507812 0.582031 0.00390625 0.484375 -0.09375 C 0.390625 -0.1875 0.34375 -0.328125 0.34375 -0.503906 L 0.34375 -1.667969 L 0 -1.667969 L 0 -1.875 L 0.347656 -1.875 L 0.347656 -2.453125 L 0.964844 -2.453125 L 0.964844 -1.875 L 1.5 -1.875 L 1.5 -1.667969 L 0.96875 -1.667969 L 0.96875 -0.628906 C 0.96875 -0.480469 0.988281 -0.378906 1.03125 -0.316406 C 1.070312 -0.253906 1.144531 -0.222656 1.253906 -0.222656 C 1.285156 -0.222656 1.335938 -0.226562 1.394531 -0.230469 C 1.457031 -0.234375 1.5 -0.242188 1.523438 -0.246094 Z "/>
</g>
<g id="glyph-0-4">
<path d="M 1.707031 -2.890625 L 0.394531 0.804688 L 0.0507812 0.804688 L 1.359375 -2.890625 Z "/>
</g>
<g id="glyph-0-5">
<path d="M 2.578125 0 L 1.4375 0 L 1.4375 -0.136719 C 1.464844 -0.140625 1.492188 -0.144531 1.527344 -0.148438 C 1.5625 -0.152344 1.585938 -0.160156 1.601562 -0.167969 C 1.628906 -0.179688 1.648438 -0.203125 1.660156 -0.226562 C 1.667969 -0.253906 1.675781 -0.292969 1.675781 -0.34375 L 1.675781 -1.234375 C 1.675781 -1.363281 1.652344 -1.460938 1.601562 -1.527344 C 1.554688 -1.589844 1.484375 -1.625 1.394531 -1.625 C 1.34375 -1.625 1.296875 -1.617188 1.253906 -1.601562 C 1.207031 -1.585938 1.167969 -1.5625 1.125 -1.535156 C 1.085938 -1.507812 1.058594 -1.484375 1.035156 -1.457031 C 1.015625 -1.429688 0.996094 -1.40625 0.980469 -1.386719 L 0.980469 -0.367188 C 0.980469 -0.320312 0.984375 -0.28125 0.996094 -0.253906 C 1.007812 -0.226562 1.03125 -0.207031 1.0625 -0.1875 C 1.082031 -0.175781 1.105469 -0.167969 1.136719 -0.15625 C 1.167969 -0.148438 1.199219 -0.140625 1.226562 -0.136719 L 1.226562 0 L 0.0703125 0 L 0.0703125 -0.136719 C 0.101562 -0.140625 0.132812 -0.144531 0.164062 -0.148438 C 0.195312 -0.152344 0.222656 -0.160156 0.25 -0.167969 C 0.289062 -0.183594 0.316406 -0.203125 0.332031 -0.234375 C 0.347656 -0.261719 0.351562 -0.296875 0.351562 -0.34375 L 0.351562 -2.464844 C 0.351562 -2.503906 0.34375 -2.546875 0.324219 -2.59375 C 0.304688 -2.636719 0.277344 -2.671875 0.246094 -2.695312 C 0.21875 -2.710938 0.183594 -2.722656 0.136719 -2.734375 C 0.0859375 -2.742188 0.0429688 -2.75 0.00390625 -2.75 L 0.00390625 -2.890625 L 0.953125 -2.941406 L 0.980469 -2.910156 L 0.980469 -1.601562 L 0.988281 -1.601562 C 1.035156 -1.644531 1.078125 -1.683594 1.117188 -1.71875 C 1.15625 -1.753906 1.203125 -1.789062 1.257812 -1.824219 C 1.304688 -1.855469 1.367188 -1.882812 1.441406 -1.902344 C 1.515625 -1.925781 1.597656 -1.933594 1.683594 -1.933594 C 1.890625 -1.933594 2.042969 -1.875 2.148438 -1.757812 C 2.25 -1.640625 2.300781 -1.484375 2.300781 -1.292969 L 2.300781 -0.363281 C 2.300781 -0.316406 2.308594 -0.277344 2.324219 -0.25 C 2.335938 -0.222656 2.363281 -0.199219 2.402344 -0.183594 C 2.421875 -0.175781 2.449219 -0.164062 2.476562 -0.15625 C 2.503906 -0.148438 2.539062 -0.144531 2.578125 -0.136719 Z "/>
</g>
<g id="glyph-0-6">
<path d="M 2.28125 -0.0390625 C 2.226562 -0.015625 2.160156 0.0078125 2.082031 0.0273438 C 2.007812 0.046875 1.925781 0.0585938 1.84375 0.0585938 C 1.6875 0.0585938 1.574219 0.0351562 1.5 -0.0117188 C 1.425781 -0.0585938 1.375 -0.125 1.351562 -0.210938 L 1.339844 -0.210938 C 1.296875 -0.167969 1.253906 -0.132812 1.214844 -0.101562 C 1.175781 -0.0703125 1.132812 -0.0429688 1.085938 -0.0234375 C 1.027344 0.00390625 0.96875 0.0273438 0.914062 0.0390625 C 0.859375 0.0546875 0.78125 0.0625 0.683594 0.0625 C 0.535156 0.0625 0.410156 0.015625 0.304688 -0.0703125 C 0.203125 -0.15625 0.148438 -0.269531 0.148438 -0.414062 C 0.148438 -0.496094 0.160156 -0.566406 0.183594 -0.625 C 0.207031 -0.683594 0.238281 -0.734375 0.28125 -0.777344 C 0.320312 -0.820312 0.363281 -0.851562 0.414062 -0.878906 C 0.464844 -0.90625 0.519531 -0.929688 0.578125 -0.953125 C 0.691406 -0.996094 0.828125 -1.039062 0.988281 -1.082031 C 1.148438 -1.128906 1.265625 -1.167969 1.339844 -1.203125 L 1.339844 -1.386719 C 1.339844 -1.417969 1.335938 -1.460938 1.332031 -1.511719 C 1.328125 -1.5625 1.316406 -1.605469 1.300781 -1.644531 C 1.28125 -1.683594 1.253906 -1.71875 1.214844 -1.746094 C 1.175781 -1.773438 1.128906 -1.785156 1.066406 -1.785156 C 1.007812 -1.785156 0.964844 -1.777344 0.925781 -1.761719 C 0.886719 -1.746094 0.859375 -1.730469 0.835938 -1.714844 C 0.839844 -1.691406 0.851562 -1.652344 0.867188 -1.597656 C 0.886719 -1.546875 0.894531 -1.496094 0.894531 -1.449219 C 0.894531 -1.425781 0.890625 -1.402344 0.878906 -1.367188 C 0.867188 -1.335938 0.847656 -1.308594 0.828125 -1.292969 C 0.796875 -1.265625 0.765625 -1.246094 0.730469 -1.234375 C 0.695312 -1.21875 0.636719 -1.210938 0.5625 -1.210938 C 0.457031 -1.210938 0.375 -1.238281 0.320312 -1.289062 C 0.265625 -1.339844 0.238281 -1.40625 0.238281 -1.488281 C 0.238281 -1.558594 0.265625 -1.625 0.324219 -1.679688 C 0.378906 -1.734375 0.449219 -1.78125 0.53125 -1.820312 C 0.609375 -1.855469 0.703125 -1.886719 0.804688 -1.90625 C 0.910156 -1.929688 1.003906 -1.9375 1.09375 -1.9375 C 1.214844 -1.9375 1.328125 -1.933594 1.433594 -1.917969 C 1.535156 -1.902344 1.625 -1.871094 1.710938 -1.828125 C 1.789062 -1.78125 1.851562 -1.71875 1.894531 -1.632812 C 1.941406 -1.550781 1.964844 -1.441406 1.964844 -1.304688 C 1.964844 -1.160156 1.960938 -0.992188 1.957031 -0.796875 C 1.953125 -0.597656 1.949219 -0.46875 1.949219 -0.410156 C 1.949219 -0.351562 1.957031 -0.304688 1.972656 -0.273438 C 1.992188 -0.242188 2.015625 -0.214844 2.054688 -0.199219 C 2.074219 -0.1875 2.109375 -0.183594 2.15625 -0.179688 C 2.199219 -0.179688 2.242188 -0.179688 2.28125 -0.179688 L 2.28125 -0.0390625 M 1.339844 -1.03125 C 1.269531 -1.003906 1.195312 -0.976562 1.128906 -0.945312 C 1.058594 -0.914062 1 -0.882812 0.957031 -0.847656 C 0.910156 -0.8125 0.871094 -0.765625 0.84375 -0.710938 C 0.820312 -0.65625 0.804688 -0.59375 0.804688 -0.515625 C 0.804688 -0.417969 0.828125 -0.347656 0.871094 -0.300781 C 0.917969 -0.257812 0.972656 -0.234375 1.039062 -0.234375 C 1.109375 -0.234375 1.167969 -0.25 1.210938 -0.277344 C 1.257812 -0.308594 1.296875 -0.34375 1.332031 -0.382812 Z "/>
</g>
</g>
</defs>
<g fill="rgb(94.117647%, 95.686275%, 97.254902%)" fill-opacity="1">
<use xlink:href="#glyph-0-0" x="30" y="23.56543"/>
<use xlink:href="#glyph-0-1" x="32" y="23.56543"/>
<use xlink:href="#glyph-0-2" x="34" y="23.56543"/>
<use xlink:href="#glyph-0-3" x="35" y="23.56543"/>
<use xlink:href="#glyph-0-4" x="37" y="23.56543"/>
<use xlink:href="#glyph-0-5" x="39" y="23.56543"/>
<use xlink:href="#glyph-0-6" x="42" y="23.56543"/>
</g>
</svg>
