<?xml version="1.0" encoding="UTF-8"?>
<svg xmlns="http://www.w3.org/2000/svg" xmlns:xlink="http://www.w3.org/1999/xlink" width="854" height="480" viewBox="0 0 854 480">
<defs>
<g>
<g id="glyph-0-0">
<path d="M 3.695312 -3.335938 C 3.695312 -3.105469 3.648438 -2.898438 3.558594 -2.722656 C 3.46875 -2.542969 3.34375 -2.398438 3.183594 -2.28125 C 3.023438 -2.164062 2.851562 -2.078125 2.660156 -2.023438 C 2.472656 -1.96875 2.269531 -1.945312 2.058594 -1.945312 L 1.5625 -1.945312 L 1.5625 -0.601562 C 1.5625 -0.53125 1.574219 -0.464844 1.597656 -0.410156 C 1.621094 -0.355469 1.671875 -0.3125 1.746094 -0.285156 C 1.785156 -0.269531 1.851562 -0.253906 1.945312 -0.242188 C 2.039062 -0.230469 2.125 -0.222656 2.207031 -0.222656 L 2.207031 0 L 0.304688 0 L 0.304688 -0.222656 C 0.355469 -0.226562 0.429688 -0.234375 0.523438 -0.242188 C 0.617188 -0.253906 0.683594 -0.265625 0.71875 -0.285156 C 0.78125 -0.3125 0.828125 -0.351562 0.855469 -0.402344 C 0.882812 -0.453125 0.898438 -0.519531 0.898438 -0.601562 L 0.898438 -3.796875 C 0.898438 -3.871094 0.886719 -3.933594 0.867188 -3.992188 C 0.847656 -4.050781 0.796875 -4.09375 0.71875 -4.125 C 0.640625 -4.152344 0.5625 -4.171875 0.484375 -4.183594 C 0.40625 -4.195312 0.339844 -4.203125 0.285156 -4.207031 L 0.285156 -4.425781 L 2.304688 -4.425781 C 2.71875 -4.425781 3.050781 -4.328125 3.308594 -4.128906 C 3.566406 -3.929688 3.695312 -3.664062 3.695312 -3.335938 M 2.746094 -2.578125 C 2.816406 -2.679688 2.863281 -2.785156 2.886719 -2.890625 C 2.910156 -2.996094 2.921875 -3.09375 2.921875 -3.179688 C 2.921875 -3.296875 2.90625 -3.417969 2.878906 -3.539062 C 2.851562 -3.664062 2.800781 -3.769531 2.734375 -3.863281 C 2.660156 -3.960938 2.566406 -4.035156 2.445312 -4.089844 C 2.328125 -4.144531 2.179688 -4.171875 2.003906 -4.171875 L 1.5625 -4.171875 L 1.5625 -2.214844 L 1.882812 -2.214844 C 2.105469 -2.214844 2.289062 -2.25 2.429688 -2.320312 C 2.570312 -2.390625 2.675781 -2.476562 2.746094 -2.578125 Z "/>
</g>
<g id="glyph-0-1">
<path d="M 2.957031 -0.722656 C 2.828125 -0.476562 2.65625 -0.28125 2.441406 -0.136719 C 2.222656 0.0078125 1.976562 0.0820312 1.695312 0.0820312 C 1.445312 0.0820312 1.230469 0.0390625 1.042969 -0.0507812 C 0.855469 -0.136719 0.703125 -0.253906 0.582031 -0.40625 C 0.460938 -0.554688 0.371094 -0.730469 0.3125 -0.929688 C 0.253906 -1.128906 0.226562 -1.339844 0.226562 -1.5625 C 0.226562 -1.761719 0.257812 -1.957031 0.320312 -2.152344 C 0.382812 -2.34375 0.476562 -2.515625 0.597656 -2.671875 C 0.71875 -2.816406 0.863281 -2.9375 1.039062 -3.027344 C 1.214844 -3.117188 1.414062 -3.164062 1.632812 -3.164062 C 1.855469 -3.164062 2.046875 -3.128906 2.207031 -3.058594 C 2.367188 -2.988281 2.5 -2.890625 2.597656 -2.765625 C 2.695312 -2.652344 2.765625 -2.511719 2.8125 -2.355469 C 2.859375 -2.199219 2.882812 -2.027344 2.882812 -1.839844 L 2.882812 -1.636719 L 0.84375 -1.636719 C 0.84375 -1.433594 0.863281 -1.25 0.902344 -1.085938 C 0.941406 -0.917969 1.003906 -0.773438 1.085938 -0.648438 C 1.167969 -0.527344 1.273438 -0.433594 1.402344 -0.363281 C 1.535156 -0.292969 1.691406 -0.257812 1.871094 -0.257812 C 2.058594 -0.257812 2.214844 -0.300781 2.351562 -0.390625 C 2.484375 -0.476562 2.613281 -0.632812 2.738281 -0.859375 L 2.957031 -0.722656 M 2.269531 -1.898438 C 2.269531 -2.011719 2.257812 -2.136719 2.238281 -2.269531 C 2.21875 -2.402344 2.1875 -2.515625 2.144531 -2.601562 C 2.09375 -2.699219 2.03125 -2.777344 1.945312 -2.835938 C 1.863281 -2.894531 1.757812 -2.925781 1.625 -2.925781 C 1.40625 -2.925781 1.226562 -2.835938 1.082031 -2.652344 C 0.9375 -2.472656 0.859375 -2.21875 0.84375 -1.898438 Z "/>
</g>
<g id="glyph-0-2">
<path d="M 2.578125 -2.679688 C 2.578125 -2.574219 2.554688 -2.480469 2.503906 -2.398438 C 2.449219 -2.316406 2.371094 -2.273438 2.261719 -2.273438 C 2.144531 -2.273438 2.054688 -2.304688 1.996094 -2.363281 C 1.933594 -2.425781 1.902344 -2.492188 1.902344 -2.566406 C 1.902344 -2.609375 1.90625 -2.652344 1.914062 -2.6875 C 1.921875 -2.726562 1.929688 -2.765625 1.933594 -2.800781 C 1.835938 -2.800781 1.722656 -2.761719 1.589844 -2.683594 C 1.460938 -2.605469 1.347656 -2.492188 1.257812 -2.347656 L 1.257812 -0.554688 C 1.257812 -0.484375 1.269531 -0.421875 1.300781 -0.378906 C 1.328125 -0.332031 1.371094 -0.296875 1.433594 -0.273438 C 1.484375 -0.253906 1.550781 -0.238281 1.632812 -0.226562 C 1.714844 -0.21875 1.785156 -0.210938 1.847656 -0.207031 L 1.847656 0 L 0.226562 0 L 0.226562 -0.207031 C 0.273438 -0.210938 0.320312 -0.214844 0.371094 -0.21875 C 0.421875 -0.222656 0.46875 -0.230469 0.503906 -0.242188 C 0.5625 -0.261719 0.605469 -0.292969 0.636719 -0.339844 C 0.664062 -0.386719 0.675781 -0.449219 0.675781 -0.523438 L 0.675781 -2.421875 C 0.675781 -2.484375 0.660156 -2.550781 0.632812 -2.613281 C 0.601562 -2.675781 0.558594 -2.722656 0.503906 -2.761719 C 0.464844 -2.785156 0.417969 -2.804688 0.363281 -2.816406 C 0.3125 -2.828125 0.253906 -2.835938 0.191406 -2.839844 L 0.191406 -3.042969 L 1.214844 -3.113281 L 1.257812 -3.070312 L 1.257812 -2.636719 L 1.273438 -2.636719 C 1.402344 -2.804688 1.546875 -2.933594 1.703125 -3.019531 C 1.863281 -3.105469 2.007812 -3.152344 2.136719 -3.152344 C 2.269531 -3.152344 2.375 -3.109375 2.457031 -3.023438 C 2.539062 -2.9375 2.578125 -2.824219 2.578125 -2.679688 Z "/>
</g>
<g id="glyph-0-3">
<path d="M 3.226562 -1.570312 C 3.226562 -1.351562 3.191406 -1.140625 3.121094 -0.929688 C 3.054688 -0.722656 2.957031 -0.546875 2.828125 -0.398438 C 2.6875 -0.234375 2.519531 -0.109375 2.328125 -0.0273438 C 2.140625 0.0546875 1.925781 0.09375 1.691406 0.09375 C 1.496094 0.09375 1.308594 0.0585938 1.132812 -0.015625 C 0.957031 -0.0898438 0.800781 -0.199219 0.660156 -0.339844 C 0.527344 -0.480469 0.417969 -0.648438 0.339844 -0.851562 C 0.257812 -1.050781 0.21875 -1.277344 0.21875 -1.527344 C 0.21875 -2.007812 0.359375 -2.398438 0.636719 -2.703125 C 0.917969 -3.011719 1.285156 -3.164062 1.738281 -3.164062 C 2.171875 -3.164062 2.527344 -3.019531 2.804688 -2.726562 C 3.085938 -2.4375 3.226562 -2.050781 3.226562 -1.570312 M 2.578125 -1.5625 C 2.578125 -1.71875 2.5625 -1.882812 2.53125 -2.058594 C 2.5 -2.230469 2.453125 -2.378906 2.390625 -2.5 C 2.324219 -2.628906 2.238281 -2.730469 2.128906 -2.808594 C 2.023438 -2.886719 1.890625 -2.925781 1.734375 -2.925781 C 1.574219 -2.925781 1.4375 -2.886719 1.320312 -2.808594 C 1.207031 -2.730469 1.117188 -2.621094 1.046875 -2.484375 C 0.980469 -2.355469 0.933594 -2.210938 0.90625 -2.050781 C 0.878906 -1.886719 0.863281 -1.730469 0.863281 -1.578125 C 0.863281 -1.378906 0.878906 -1.195312 0.914062 -1.023438 C 0.945312 -0.855469 0.996094 -0.703125 1.066406 -0.570312 C 1.136719 -0.4375 1.226562 -0.332031 1.335938 -0.257812 C 1.441406 -0.179688 1.574219 -0.144531 1.734375 -0.144531 C 1.992188 -0.144531 2.199219 -0.269531 2.351562 -0.519531 C 2.503906 -0.773438 2.578125 -1.121094 2.578125 -1.5625 Z "/>
</g>
<g id="glyph-0-4">
</g>
<g id="glyph-0-5">
<path d="M 3.1875 0 L 1.777344 0 L 1.777344 -0.207031 C 1.871094 -0.214844 1.953125 -0.226562 2.019531 -0.238281 C 2.082031 -0.246094 2.117188 -0.273438 2.117188 -0.316406 C 2.117188 -0.335938 2.105469 -0.367188 2.085938 -0.40625 C 2.0625 -0.445312 2.042969 -0.480469 2.023438 -0.515625 C 1.96875 -0.597656 1.898438 -0.703125 1.808594 -0.839844 C 1.71875 -0.976562 1.605469 -1.140625 1.476562 -1.328125 C 1.367188 -1.195312 1.265625 -1.0625 1.175781 -0.933594 C 1.085938 -0.808594 0.988281 -0.671875 0.886719 -0.527344 C 0.875 -0.507812 0.859375 -0.480469 0.84375 -0.449219 C 0.828125 -0.417969 0.820312 -0.394531 0.820312 -0.375 C 0.820312 -0.328125 0.847656 -0.289062 0.910156 -0.261719 C 0.96875 -0.230469 1.058594 -0.210938 1.175781 -0.199219 L 1.175781 0 L 0.0390625 0 L 0.0390625 -0.195312 C 0.179688 -0.234375 0.292969 -0.285156 0.378906 -0.34375 C 0.464844 -0.402344 0.542969 -0.476562 0.617188 -0.566406 C 0.683594 -0.648438 0.773438 -0.761719 0.886719 -0.910156 C 1.003906 -1.054688 1.152344 -1.253906 1.335938 -1.503906 C 1.230469 -1.65625 1.101562 -1.839844 0.949219 -2.058594 C 0.792969 -2.277344 0.667969 -2.460938 0.570312 -2.605469 C 0.515625 -2.683594 0.453125 -2.746094 0.382812 -2.796875 C 0.3125 -2.847656 0.214844 -2.871094 0.0859375 -2.871094 L 0.0859375 -3.074219 L 1.425781 -3.074219 L 1.425781 -2.871094 C 1.359375 -2.871094 1.292969 -2.867188 1.230469 -2.859375 C 1.164062 -2.847656 1.132812 -2.832031 1.132812 -2.800781 C 1.132812 -2.78125 1.140625 -2.761719 1.152344 -2.738281 C 1.164062 -2.714844 1.179688 -2.691406 1.199219 -2.664062 C 1.246094 -2.59375 1.316406 -2.484375 1.410156 -2.335938 C 1.507812 -2.1875 1.613281 -2.035156 1.726562 -1.867188 C 1.796875 -1.96875 1.882812 -2.085938 1.980469 -2.21875 C 2.078125 -2.351562 2.164062 -2.476562 2.246094 -2.597656 C 2.253906 -2.613281 2.265625 -2.632812 2.273438 -2.652344 C 2.28125 -2.675781 2.285156 -2.695312 2.285156 -2.71875 C 2.285156 -2.761719 2.25 -2.796875 2.175781 -2.820312 C 2.105469 -2.847656 2.035156 -2.867188 1.972656 -2.875 L 1.972656 -3.074219 L 3.105469 -3.074219 L 3.105469 -2.882812 C 2.945312 -2.839844 2.824219 -2.792969 2.734375 -2.734375 C 2.644531 -2.675781 2.566406 -2.609375 2.503906 -2.535156 C 2.4375 -2.449219 2.355469 -2.347656 2.261719 -2.222656 C 2.164062 -2.097656 2.035156 -1.921875 1.863281 -1.695312 C 2.050781 -1.429688 2.207031 -1.210938 2.324219 -1.042969 C 2.441406 -0.871094 2.5625 -0.695312 2.683594 -0.515625 C 2.742188 -0.421875 2.808594 -0.351562 2.882812 -0.296875 C 2.957031 -0.246094 3.058594 -0.214844 3.1875 -0.207031 Z "/>
</g>
<g id="glyph-0-6">
<path d="M 1.714844 0 L 0.230469 0 L 0.230469 -0.207031 C 0.277344 -0.210938 0.328125 -0.214844 0.378906 -0.21875 C 0.429688 -0.222656 0.472656 -0.230469 0.511719 -0.242188 C 0.570312 -0.261719 0.613281 -0.292969 0.640625 -0.339844 C 0.667969 -0.386719 0.683594 -0.449219 0.683594 -0.523438 L 0.683594 -2.421875 C 0.683594 -2.488281 0.667969 -2.546875 0.636719 -2.605469 C 0.609375 -2.660156 0.566406 -2.703125 0.511719 -2.742188 C 0.472656 -2.765625 0.414062 -2.789062 0.339844 -2.804688 C 0.265625 -2.824219 0.195312 -2.835938 0.132812 -2.839844 L 0.132812 -3.042969 L 1.21875 -3.113281 L 1.261719 -3.070312 L 1.261719 -0.5625 C 1.261719 -0.488281 1.277344 -0.429688 1.304688 -0.378906 C 1.332031 -0.332031 1.378906 -0.296875 1.4375 -0.273438 C 1.484375 -0.253906 1.527344 -0.242188 1.570312 -0.230469 C 1.613281 -0.21875 1.664062 -0.210938 1.714844 -0.207031 L 1.714844 0 M 1.324219 -4.328125 C 1.324219 -4.207031 1.285156 -4.105469 1.207031 -4.015625 C 1.132812 -3.929688 1.035156 -3.882812 0.921875 -3.882812 C 0.8125 -3.882812 0.722656 -3.925781 0.644531 -4.011719 C 0.566406 -4.09375 0.527344 -4.191406 0.527344 -4.300781 C 0.527344 -4.414062 0.566406 -4.511719 0.644531 -4.597656 C 0.722656 -4.683594 0.8125 -4.726562 0.921875 -4.726562 C 1.039062 -4.726562 1.136719 -4.6875 1.210938 -4.605469 C 1.289062 -4.527344 1.324219 -4.433594 1.324219 -4.328125 Z "/>
</g>
<g id="glyph-0-7">
<path d="M 2.253906 -1.507812 C 2.339844 -1.433594 2.40625 -1.34375 2.453125 -1.246094 C 2.496094 -1.148438 2.519531 -1.03125 2.519531 -0.890625 C 2.519531 -0.605469 2.414062 -0.371094 2.199219 -0.191406 C 1.988281 -0.0078125 1.710938 0.0820312 1.371094 0.0820312 C 1.195312 0.0820312 1.027344 0.0507812 0.878906 -0.015625 C 0.726562 -0.078125 0.621094 -0.140625 0.554688 -0.195312 L 0.492188 0.0078125 L 0.257812 0.0078125 L 0.226562 -1.0625 L 0.441406 -1.0625 C 0.460938 -0.980469 0.496094 -0.882812 0.550781 -0.777344 C 0.601562 -0.667969 0.667969 -0.570312 0.746094 -0.480469 C 0.828125 -0.390625 0.925781 -0.3125 1.039062 -0.25 C 1.152344 -0.1875 1.277344 -0.15625 1.417969 -0.15625 C 1.621094 -0.15625 1.773438 -0.203125 1.882812 -0.292969 C 1.988281 -0.382812 2.042969 -0.515625 2.042969 -0.683594 C 2.042969 -0.769531 2.027344 -0.847656 1.992188 -0.910156 C 1.957031 -0.972656 1.90625 -1.027344 1.839844 -1.078125 C 1.773438 -1.125 1.6875 -1.167969 1.589844 -1.207031 C 1.488281 -1.246094 1.375 -1.28125 1.253906 -1.320312 C 1.15625 -1.347656 1.046875 -1.390625 0.929688 -1.441406 C 0.808594 -1.492188 0.707031 -1.550781 0.621094 -1.621094 C 0.53125 -1.691406 0.453125 -1.78125 0.394531 -1.886719 C 0.339844 -1.992188 0.308594 -2.117188 0.308594 -2.261719 C 0.308594 -2.511719 0.402344 -2.726562 0.589844 -2.902344 C 0.777344 -3.074219 1.027344 -3.164062 1.339844 -3.164062 C 1.460938 -3.164062 1.585938 -3.148438 1.710938 -3.117188 C 1.835938 -3.085938 1.941406 -3.046875 2.019531 -3.003906 L 2.089844 -3.167969 L 2.316406 -3.167969 L 2.363281 -2.175781 L 2.144531 -2.175781 C 2.101562 -2.398438 2.007812 -2.578125 1.863281 -2.71875 C 1.71875 -2.855469 1.542969 -2.925781 1.335938 -2.925781 C 1.164062 -2.925781 1.03125 -2.882812 0.933594 -2.796875 C 0.835938 -2.710938 0.785156 -2.609375 0.785156 -2.488281 C 0.785156 -2.394531 0.800781 -2.316406 0.835938 -2.253906 C 0.867188 -2.191406 0.914062 -2.136719 0.980469 -2.09375 C 1.042969 -2.050781 1.121094 -2.011719 1.214844 -1.976562 C 1.308594 -1.941406 1.425781 -1.898438 1.566406 -1.851562 C 1.703125 -1.808594 1.832031 -1.757812 1.953125 -1.699219 C 2.078125 -1.640625 2.175781 -1.578125 2.253906 -1.507812 Z "/>
</g>
<g id="glyph-0-8">
<path d="M 2.125 -0.132812 C 1.988281 -0.078125 1.863281 -0.03125 1.742188 0.0078125 C 1.621094 0.046875 1.472656 0.0664062 1.296875 0.0664062 C 1.039062 0.0664062 0.859375 0 0.753906 -0.128906 C 0.648438 -0.257812 0.597656 -0.441406 0.597656 -0.679688 L 0.597656 -2.765625 L 0.0390625 -2.765625 L 0.0390625 -3.0625 L 0.609375 -3.0625 L 0.609375 -4.019531 L 1.175781 -4.019531 L 1.175781 -3.0625 L 2.058594 -3.0625 L 2.058594 -2.765625 L 1.183594 -2.765625 L 1.183594 -1.046875 C 1.183594 -0.917969 1.1875 -0.808594 1.195312 -0.722656 C 1.207031 -0.636719 1.226562 -0.558594 1.261719 -0.496094 C 1.296875 -0.4375 1.347656 -0.390625 1.414062 -0.359375 C 1.480469 -0.328125 1.570312 -0.3125 1.679688 -0.3125 C 1.734375 -0.3125 1.808594 -0.316406 1.910156 -0.324219 C 2.011719 -0.335938 2.082031 -0.347656 2.125 -0.363281 Z "/>
</g>
<g id="glyph-0-9">
<path d="M 3.136719 -0.0546875 C 3.039062 -0.0195312 2.953125 0.0078125 2.882812 0.03125 C 2.808594 0.0507812 2.722656 0.0625 2.628906 0.0625 C 2.46875 0.0625 2.339844 0.0234375 2.242188 -0.0507812 C 2.144531 -0.128906 2.082031 -0.238281 2.054688 -0.382812 L 2.039062 -0.382812 C 1.902344 -0.234375 1.757812 -0.121094 1.601562 -0.0390625 C 1.445312 0.0390625 1.261719 0.078125 1.042969 0.078125 C 0.8125 0.078125 0.621094 0.0078125 0.472656 -0.132812 C 0.324219 -0.277344 0.25 -0.460938 0.25 -0.691406 C 0.25 -0.808594 0.265625 -0.914062 0.300781 -1.007812 C 0.332031 -1.101562 0.382812 -1.183594 0.449219 -1.261719 C 0.5 -1.324219 0.570312 -1.378906 0.65625 -1.425781 C 0.742188 -1.476562 0.820312 -1.515625 0.894531 -1.542969 C 0.988281 -1.578125 1.179688 -1.644531 1.464844 -1.742188 C 1.75 -1.835938 1.945312 -1.910156 2.042969 -1.964844 L 2.042969 -2.273438 C 2.042969 -2.300781 2.039062 -2.351562 2.027344 -2.429688 C 2.015625 -2.507812 1.992188 -2.578125 1.953125 -2.648438 C 1.910156 -2.726562 1.851562 -2.792969 1.777344 -2.851562 C 1.699219 -2.90625 1.59375 -2.9375 1.453125 -2.9375 C 1.359375 -2.9375 1.269531 -2.917969 1.1875 -2.886719 C 1.105469 -2.855469 1.046875 -2.820312 1.015625 -2.785156 C 1.015625 -2.746094 1.023438 -2.683594 1.042969 -2.601562 C 1.0625 -2.519531 1.074219 -2.445312 1.074219 -2.378906 C 1.074219 -2.304688 1.039062 -2.238281 0.976562 -2.175781 C 0.910156 -2.117188 0.820312 -2.085938 0.703125 -2.085938 C 0.597656 -2.085938 0.523438 -2.125 0.472656 -2.199219 C 0.421875 -2.273438 0.398438 -2.355469 0.398438 -2.445312 C 0.398438 -2.542969 0.433594 -2.632812 0.5 -2.71875 C 0.566406 -2.808594 0.65625 -2.886719 0.765625 -2.953125 C 0.859375 -3.011719 0.972656 -3.0625 1.105469 -3.101562 C 1.238281 -3.144531 1.367188 -3.164062 1.496094 -3.164062 C 1.667969 -3.164062 1.820312 -3.152344 1.953125 -3.128906 C 2.082031 -3.105469 2.199219 -3.050781 2.304688 -2.972656 C 2.410156 -2.894531 2.492188 -2.792969 2.546875 -2.660156 C 2.601562 -2.527344 2.628906 -2.359375 2.628906 -2.148438 C 2.628906 -1.851562 2.625 -1.589844 2.621094 -1.359375 C 2.613281 -1.128906 2.609375 -0.878906 2.609375 -0.605469 C 2.609375 -0.523438 2.625 -0.460938 2.652344 -0.410156 C 2.679688 -0.363281 2.726562 -0.324219 2.78125 -0.289062 C 2.8125 -0.269531 2.863281 -0.261719 2.929688 -0.257812 C 3 -0.257812 3.066406 -0.253906 3.136719 -0.253906 L 3.136719 -0.0546875 M 2.050781 -1.703125 C 1.871094 -1.652344 1.71875 -1.601562 1.585938 -1.550781 C 1.453125 -1.5 1.328125 -1.4375 1.214844 -1.363281 C 1.109375 -1.292969 1.027344 -1.207031 0.96875 -1.109375 C 0.90625 -1.015625 0.875 -0.898438 0.875 -0.765625 C 0.875 -0.59375 0.921875 -0.464844 1.011719 -0.382812 C 1.101562 -0.300781 1.21875 -0.261719 1.355469 -0.261719 C 1.503906 -0.261719 1.636719 -0.296875 1.746094 -0.371094 C 1.859375 -0.441406 1.953125 -0.527344 2.03125 -0.625 Z "/>
</g>
<g id="glyph-0-10">
<path d="M 2.515625 -4.453125 C 2.515625 -4.363281 2.488281 -4.28125 2.441406 -4.21875 C 2.390625 -4.152344 2.3125 -4.121094 2.210938 -4.121094 C 2.148438 -4.121094 2.089844 -4.132812 2.042969 -4.160156 C 1.992188 -4.1875 1.949219 -4.226562 1.90625 -4.269531 C 1.863281 -4.316406 1.824219 -4.367188 1.789062 -4.425781 C 1.753906 -4.484375 1.726562 -4.53125 1.699219 -4.566406 C 1.5625 -4.5625 1.453125 -4.464844 1.378906 -4.277344 C 1.300781 -4.089844 1.261719 -3.789062 1.261719 -3.378906 L 1.261719 -3.0625 L 2.054688 -3.0625 L 2.054688 -2.765625 L 1.261719 -2.765625 L 1.261719 -0.554688 C 1.261719 -0.484375 1.277344 -0.421875 1.304688 -0.378906 C 1.332031 -0.332031 1.378906 -0.296875 1.4375 -0.273438 C 1.488281 -0.253906 1.554688 -0.242188 1.636719 -0.230469 C 1.722656 -0.21875 1.792969 -0.210938 1.851562 -0.207031 L 1.851562 0 L 0.230469 0 L 0.230469 -0.207031 C 0.277344 -0.210938 0.328125 -0.214844 0.378906 -0.21875 C 0.429688 -0.222656 0.472656 -0.230469 0.511719 -0.242188 C 0.570312 -0.261719 0.613281 -0.292969 0.640625 -0.339844 C 0.667969 -0.386719 0.683594 -0.449219 0.683594 -0.523438 L 0.683594 -2.765625 L 0.0742188 -2.765625 L 0.0742188 -3.0625 L 0.683594 -3.0625 L 0.683594 -3.261719 C 0.683594 -3.726562 0.804688 -4.105469 1.046875 -4.394531 C 1.289062 -4.683594 1.59375 -4.828125 1.957031 -4.828125 C 2.140625 -4.828125 2.28125 -4.792969 2.375 -4.71875 C 2.46875 -4.648438 2.515625 -4.558594 2.515625 -4.453125 Z "/>
</g>
<g id="glyph-0-11">
<path d="M 3.523438 -0.0546875 L 2.519531 0.0117188 L 2.472656 -0.03125 L 2.472656 -0.421875 L 2.453125 -0.421875 C 2.402344 -0.371094 2.347656 -0.3125 2.285156 -0.253906 C 2.222656 -0.195312 2.148438 -0.140625 2.070312 -0.09375 C 1.976562 -0.0390625 1.886719 0.00390625 1.796875 0.0351562 C 1.710938 0.0625 1.585938 0.078125 1.425781 0.078125 C 1.15625 0.078125 0.949219 -0.0117188 0.804688 -0.1875 C 0.664062 -0.367188 0.59375 -0.625 0.59375 -0.964844 L 0.59375 -2.433594 C 0.59375 -2.507812 0.578125 -2.570312 0.550781 -2.621094 C 0.523438 -2.671875 0.480469 -2.71875 0.425781 -2.753906 C 0.390625 -2.78125 0.339844 -2.796875 0.285156 -2.808594 C 0.230469 -2.820312 0.167969 -2.828125 0.105469 -2.832031 L 0.105469 -3.039062 L 1.132812 -3.113281 L 1.179688 -3.070312 L 1.179688 -0.933594 C 1.179688 -0.710938 1.230469 -0.542969 1.328125 -0.429688 C 1.429688 -0.316406 1.546875 -0.261719 1.6875 -0.261719 C 1.800781 -0.261719 1.902344 -0.28125 1.992188 -0.316406 C 2.082031 -0.351562 2.15625 -0.390625 2.21875 -0.441406 C 2.273438 -0.484375 2.324219 -0.53125 2.367188 -0.578125 C 2.410156 -0.628906 2.441406 -0.671875 2.464844 -0.714844 L 2.464844 -2.457031 C 2.464844 -2.523438 2.449219 -2.585938 2.421875 -2.636719 C 2.390625 -2.691406 2.351562 -2.734375 2.300781 -2.773438 C 2.261719 -2.796875 2.207031 -2.8125 2.132812 -2.820312 C 2.058594 -2.824219 1.976562 -2.828125 1.882812 -2.832031 L 1.882812 -3.039062 L 3.003906 -3.113281 L 3.050781 -3.070312 L 3.050781 -0.628906 C 3.050781 -0.558594 3.066406 -0.5 3.09375 -0.449219 C 3.125 -0.398438 3.164062 -0.355469 3.214844 -0.320312 C 3.253906 -0.296875 3.296875 -0.285156 3.351562 -0.277344 C 3.402344 -0.269531 3.460938 -0.265625 3.523438 -0.261719 Z "/>
</g>
<g id="glyph-0-12">
<path d="M 3.621094 0 L 2.117188 0 L 2.117188 -0.207031 C 2.167969 -0.210938 2.21875 -0.214844 2.277344 -0.21875 C 2.332031 -0.222656 2.378906 -0.230469 2.417969 -0.242188 C 2.476562 -0.261719 2.519531 -0.292969 2.546875 -0.339844 C 2.574219 -0.386719 2.589844 -0.449219 2.589844 -0.523438 L 2.589844 -2.105469 C 2.589844 -2.324219 2.539062 -2.492188 2.433594 -2.609375 C 2.332031 -2.730469 2.207031 -2.789062 2.058594 -2.789062 C 1.949219 -2.789062 1.847656 -2.773438 1.753906 -2.738281 C 1.664062 -2.703125 1.582031 -2.660156 1.511719 -2.609375 C 1.441406 -2.5625 1.386719 -2.511719 1.347656 -2.457031 C 1.304688 -2.402344 1.277344 -2.359375 1.257812 -2.324219 L 1.257812 -0.554688 C 1.257812 -0.484375 1.273438 -0.425781 1.300781 -0.378906 C 1.328125 -0.335938 1.375 -0.300781 1.433594 -0.273438 C 1.476562 -0.253906 1.523438 -0.238281 1.574219 -0.226562 C 1.625 -0.21875 1.675781 -0.210938 1.730469 -0.207031 L 1.730469 0 L 0.226562 0 L 0.226562 -0.207031 C 0.273438 -0.210938 0.320312 -0.214844 0.371094 -0.21875 C 0.421875 -0.222656 0.46875 -0.230469 0.503906 -0.242188 C 0.5625 -0.261719 0.605469 -0.292969 0.636719 -0.339844 C 0.664062 -0.386719 0.675781 -0.449219 0.675781 -0.523438 L 0.675781 -2.421875 C 0.675781 -2.492188 0.660156 -2.558594 0.632812 -2.617188 C 0.601562 -2.675781 0.558594 -2.722656 0.503906 -2.761719 C 0.464844 -2.785156 0.417969 -2.804688 0.363281 -2.816406 C 0.3125 -2.828125 0.253906 -2.835938 0.191406 -2.839844 L 0.191406 -3.042969 L 1.214844 -3.113281 L 1.257812 -3.070312 L 1.257812 -2.636719 L 1.273438 -2.636719 C 1.324219 -2.6875 1.386719 -2.746094 1.460938 -2.816406 C 1.535156 -2.886719 1.605469 -2.941406 1.671875 -2.984375 C 1.75 -3.035156 1.839844 -3.078125 1.945312 -3.109375 C 2.054688 -3.144531 2.171875 -3.160156 2.304688 -3.160156 C 2.601562 -3.160156 2.820312 -3.066406 2.960938 -2.882812 C 3.105469 -2.699219 3.175781 -2.457031 3.175781 -2.148438 L 3.175781 -0.550781 C 3.175781 -0.476562 3.1875 -0.417969 3.214844 -0.371094 C 3.238281 -0.328125 3.28125 -0.292969 3.339844 -0.269531 C 3.390625 -0.246094 3.433594 -0.234375 3.472656 -0.226562 C 3.507812 -0.214844 3.558594 -0.210938 3.621094 -0.207031 Z "/>
</g>
<g id="glyph-0-13">
<path d="M 3.59375 -0.0546875 L 2.519531 0.0117188 L 2.472656 -0.03125 L 2.472656 -0.316406 L 2.445312 -0.324219 C 2.339844 -0.203125 2.203125 -0.105469 2.046875 -0.0273438 C 1.886719 0.0507812 1.722656 0.0859375 1.554688 0.0859375 C 1.378906 0.0859375 1.210938 0.046875 1.046875 -0.03125 C 0.886719 -0.109375 0.742188 -0.21875 0.625 -0.359375 C 0.5 -0.503906 0.402344 -0.675781 0.332031 -0.875 C 0.261719 -1.078125 0.226562 -1.300781 0.226562 -1.542969 C 0.226562 -1.765625 0.261719 -1.976562 0.339844 -2.175781 C 0.417969 -2.378906 0.523438 -2.550781 0.65625 -2.703125 C 0.785156 -2.839844 0.941406 -2.953125 1.125 -3.035156 C 1.308594 -3.117188 1.496094 -3.160156 1.6875 -3.160156 C 1.828125 -3.160156 1.96875 -3.140625 2.109375 -3.105469 C 2.246094 -3.070312 2.363281 -3.023438 2.464844 -2.96875 L 2.464844 -4.039062 C 2.464844 -4.125 2.449219 -4.207031 2.421875 -4.277344 C 2.390625 -4.351562 2.351562 -4.40625 2.300781 -4.441406 C 2.242188 -4.480469 2.164062 -4.511719 2.0625 -4.527344 C 1.964844 -4.546875 1.859375 -4.558594 1.742188 -4.566406 L 1.742188 -4.761719 L 3.003906 -4.828125 L 3.050781 -4.78125 L 3.050781 -0.636719 C 3.050781 -0.5625 3.066406 -0.5 3.09375 -0.449219 C 3.121094 -0.398438 3.164062 -0.355469 3.214844 -0.320312 C 3.257812 -0.296875 3.3125 -0.28125 3.386719 -0.273438 C 3.464844 -0.269531 3.53125 -0.265625 3.59375 -0.261719 L 3.59375 -0.0546875 M 2.464844 -0.597656 L 2.464844 -2.394531 C 2.449219 -2.449219 2.421875 -2.507812 2.382812 -2.570312 C 2.347656 -2.632812 2.300781 -2.691406 2.242188 -2.742188 C 2.183594 -2.792969 2.113281 -2.835938 2.03125 -2.871094 C 1.949219 -2.90625 1.855469 -2.921875 1.75 -2.921875 C 1.625 -2.921875 1.507812 -2.890625 1.40625 -2.828125 C 1.300781 -2.761719 1.207031 -2.667969 1.125 -2.550781 C 1.050781 -2.433594 0.988281 -2.285156 0.945312 -2.105469 C 0.898438 -1.925781 0.875 -1.726562 0.875 -1.507812 C 0.875 -1.332031 0.894531 -1.171875 0.925781 -1.03125 C 0.960938 -0.886719 1.015625 -0.757812 1.09375 -0.632812 C 1.167969 -0.515625 1.261719 -0.421875 1.375 -0.351562 C 1.488281 -0.28125 1.621094 -0.246094 1.777344 -0.246094 C 1.941406 -0.246094 2.082031 -0.28125 2.1875 -0.355469 C 2.296875 -0.429688 2.390625 -0.507812 2.464844 -0.597656 Z "/>
</g>
<g id="glyph-0-14">
<path d="M 1.648438 0.0820312 C 1.203125 0.0820312 0.855469 -0.0664062 0.601562 -0.363281 C 0.351562 -0.65625 0.226562 -1.054688 0.226562 -1.550781 C 0.226562 -1.765625 0.257812 -1.96875 0.324219 -2.15625 C 0.394531 -2.34375 0.492188 -2.515625 0.621094 -2.671875 C 0.742188 -2.816406 0.898438 -2.9375 1.082031 -3.027344 C 1.269531 -3.117188 1.46875 -3.164062 1.6875 -3.164062 C 1.988281 -3.164062 2.234375 -3.089844 2.425781 -2.945312 C 2.613281 -2.800781 2.707031 -2.605469 2.707031 -2.355469 C 2.707031 -2.25 2.683594 -2.160156 2.632812 -2.078125 C 2.582031 -2 2.5 -1.960938 2.386719 -1.960938 C 2.265625 -1.960938 2.167969 -1.992188 2.101562 -2.050781 C 2.035156 -2.113281 2 -2.183594 2 -2.261719 C 2 -2.355469 2.011719 -2.449219 2.039062 -2.546875 C 2.0625 -2.648438 2.078125 -2.71875 2.082031 -2.765625 C 2.042969 -2.828125 1.988281 -2.871094 1.914062 -2.894531 C 1.839844 -2.914062 1.761719 -2.925781 1.675781 -2.925781 C 1.578125 -2.925781 1.480469 -2.90625 1.390625 -2.863281 C 1.300781 -2.820312 1.214844 -2.742188 1.128906 -2.625 C 1.050781 -2.523438 0.988281 -2.382812 0.941406 -2.207031 C 0.894531 -2.027344 0.871094 -1.816406 0.871094 -1.574219 C 0.871094 -1.183594 0.957031 -0.871094 1.128906 -0.625 C 1.296875 -0.382812 1.523438 -0.257812 1.800781 -0.257812 C 2.003906 -0.257812 2.171875 -0.308594 2.308594 -0.40625 C 2.445312 -0.503906 2.570312 -0.652344 2.6875 -0.847656 L 2.886719 -0.71875 C 2.75 -0.472656 2.566406 -0.277344 2.34375 -0.132812 C 2.117188 0.0078125 1.886719 0.0820312 1.648438 0.0820312 Z "/>
</g>
<g id="glyph-0-15">
<path d="M 5.488281 0 L 3.988281 0 L 3.988281 -0.207031 C 4.039062 -0.210938 4.085938 -0.214844 4.136719 -0.21875 C 4.183594 -0.222656 4.226562 -0.230469 4.265625 -0.242188 C 4.324219 -0.261719 4.367188 -0.292969 4.394531 -0.339844 C 4.421875 -0.386719 4.4375 -0.449219 4.4375 -0.523438 L 4.4375 -2.113281 C 4.4375 -2.328125 4.386719 -2.496094 4.289062 -2.613281 C 4.1875 -2.730469 4.066406 -2.789062 3.917969 -2.789062 C 3.816406 -2.789062 3.722656 -2.773438 3.632812 -2.742188 C 3.542969 -2.710938 3.460938 -2.667969 3.386719 -2.609375 C 3.324219 -2.566406 3.273438 -2.515625 3.234375 -2.464844 C 3.191406 -2.410156 3.164062 -2.367188 3.140625 -2.332031 L 3.140625 -0.554688 C 3.140625 -0.484375 3.152344 -0.421875 3.179688 -0.375 C 3.203125 -0.328125 3.246094 -0.292969 3.308594 -0.269531 C 3.355469 -0.25 3.398438 -0.234375 3.4375 -0.226562 C 3.476562 -0.21875 3.523438 -0.210938 3.585938 -0.207031 L 3.585938 0 L 2.121094 0 L 2.121094 -0.207031 C 2.167969 -0.210938 2.214844 -0.214844 2.261719 -0.21875 C 2.304688 -0.222656 2.347656 -0.230469 2.382812 -0.242188 C 2.441406 -0.261719 2.484375 -0.292969 2.511719 -0.339844 C 2.542969 -0.386719 2.554688 -0.449219 2.554688 -0.523438 L 2.554688 -2.113281 C 2.554688 -2.328125 2.503906 -2.496094 2.40625 -2.613281 C 2.308594 -2.730469 2.183594 -2.789062 2.035156 -2.789062 C 1.933594 -2.789062 1.839844 -2.773438 1.75 -2.742188 C 1.660156 -2.707031 1.578125 -2.664062 1.5 -2.609375 C 1.441406 -2.5625 1.390625 -2.511719 1.347656 -2.453125 C 1.304688 -2.398438 1.273438 -2.351562 1.253906 -2.324219 L 1.253906 -0.5625 C 1.253906 -0.492188 1.269531 -0.429688 1.296875 -0.382812 C 1.328125 -0.335938 1.371094 -0.300781 1.429688 -0.273438 C 1.472656 -0.253906 1.515625 -0.238281 1.5625 -0.226562 C 1.609375 -0.21875 1.660156 -0.210938 1.714844 -0.207031 L 1.714844 0 L 0.222656 0 L 0.222656 -0.207031 C 0.269531 -0.210938 0.320312 -0.214844 0.371094 -0.21875 C 0.421875 -0.222656 0.464844 -0.230469 0.503906 -0.242188 C 0.558594 -0.261719 0.605469 -0.292969 0.632812 -0.339844 C 0.660156 -0.386719 0.675781 -0.449219 0.675781 -0.523438 L 0.675781 -2.433594 C 0.675781 -2.5 0.660156 -2.558594 0.628906 -2.613281 C 0.597656 -2.667969 0.554688 -2.710938 0.503906 -2.75 C 0.460938 -2.773438 0.414062 -2.792969 0.355469 -2.808594 C 0.296875 -2.824219 0.238281 -2.835938 0.175781 -2.839844 L 0.175781 -3.042969 L 1.203125 -3.113281 L 1.246094 -3.070312 L 1.246094 -2.628906 L 1.269531 -2.628906 C 1.320312 -2.683594 1.386719 -2.742188 1.460938 -2.8125 C 1.535156 -2.882812 1.605469 -2.941406 1.667969 -2.984375 C 1.742188 -3.035156 1.832031 -3.078125 1.941406 -3.109375 C 2.050781 -3.144531 2.167969 -3.160156 2.296875 -3.160156 C 2.496094 -3.160156 2.667969 -3.105469 2.8125 -3 C 2.953125 -2.890625 3.058594 -2.761719 3.121094 -2.609375 C 3.195312 -2.683594 3.261719 -2.746094 3.316406 -2.804688 C 3.375 -2.859375 3.449219 -2.917969 3.542969 -2.980469 C 3.621094 -3.035156 3.714844 -3.078125 3.820312 -3.109375 C 3.929688 -3.144531 4.046875 -3.160156 4.179688 -3.160156 C 4.4375 -3.160156 4.644531 -3.074219 4.796875 -2.90625 C 4.945312 -2.734375 5.023438 -2.472656 5.023438 -2.117188 L 5.023438 -0.554688 C 5.023438 -0.484375 5.035156 -0.421875 5.058594 -0.375 C 5.085938 -0.328125 5.128906 -0.292969 5.1875 -0.269531 C 5.234375 -0.25 5.285156 -0.234375 5.332031 -0.226562 C 5.375 -0.21875 5.429688 -0.210938 5.488281 -0.207031 Z "/>
</g>
<g id="glyph-0-16">
<path d="M 3.347656 -1.542969 C 3.347656 -1.078125 3.203125 -0.691406 2.910156 -0.378906 C 2.621094 -0.0625 2.28125 0.09375 1.898438 0.09375 C 1.726562 0.09375 1.5625 0.0664062 1.398438 0.015625 C 1.234375 -0.0351562 1.082031 -0.105469 0.9375 -0.195312 L 0.707031 0.164062 L 0.515625 0.121094 C 0.523438 -0.03125 0.53125 -0.21875 0.535156 -0.433594 C 0.539062 -0.652344 0.542969 -0.859375 0.542969 -1.0625 L 0.542969 -4.109375 C 0.542969 -4.179688 0.527344 -4.25 0.496094 -4.320312 C 0.460938 -4.390625 0.421875 -4.441406 0.371094 -4.472656 C 0.332031 -4.5 0.265625 -4.519531 0.171875 -4.535156 C 0.0820312 -4.546875 0.0078125 -4.558594 -0.0507812 -4.5625 L -0.0507812 -4.761719 L 1.078125 -4.828125 L 1.125 -4.78125 L 1.125 -2.753906 L 1.144531 -2.75 C 1.273438 -2.886719 1.414062 -2.988281 1.566406 -3.058594 C 1.71875 -3.125 1.871094 -3.160156 2.019531 -3.160156 C 2.398438 -3.160156 2.714844 -3.011719 2.96875 -2.710938 C 3.21875 -2.410156 3.347656 -2.023438 3.347656 -1.542969 M 2.695312 -1.519531 C 2.695312 -1.671875 2.679688 -1.832031 2.644531 -1.992188 C 2.613281 -2.152344 2.558594 -2.289062 2.488281 -2.410156 C 2.417969 -2.527344 2.328125 -2.625 2.210938 -2.703125 C 2.097656 -2.777344 1.960938 -2.8125 1.800781 -2.8125 C 1.65625 -2.8125 1.527344 -2.785156 1.417969 -2.726562 C 1.308594 -2.671875 1.210938 -2.59375 1.125 -2.496094 L 1.125 -0.703125 C 1.136719 -0.65625 1.160156 -0.597656 1.195312 -0.53125 C 1.234375 -0.464844 1.28125 -0.398438 1.34375 -0.339844 C 1.40625 -0.28125 1.476562 -0.234375 1.558594 -0.199219 C 1.636719 -0.160156 1.734375 -0.144531 1.847656 -0.144531 C 2.101562 -0.144531 2.304688 -0.265625 2.460938 -0.511719 C 2.617188 -0.757812 2.695312 -1.09375 2.695312 -1.519531 Z "/>
</g>
<g id="glyph-0-17">
<path d="M 1.292969 -0.359375 C 1.292969 -0.242188 1.253906 -0.144531 1.167969 -0.0625 C 1.085938 0.0195312 0.984375 0.0625 0.867188 0.0625 C 0.75 0.0625 0.652344 0.0195312 0.566406 -0.0625 C 0.480469 -0.144531 0.441406 -0.242188 0.441406 -0.359375 C 0.441406 -0.476562 0.480469 -0.574219 0.566406 -0.660156 C 0.652344 -0.742188 0.75 -0.785156 0.867188 -0.785156 C 0.984375 -0.785156 1.085938 -0.742188 1.167969 -0.660156 C 1.253906 -0.574219 1.292969 -0.476562 1.292969 -0.359375 Z "/>
</g>
</g>
</defs>
<g fill="rgb(54.509804%, 60.392157%, 69.019608%)" fill-opacity="1">
<use xlink:href="#glyph-0-0" x="30" y="25.858398"/>
<use xlink:href="#glyph-0-1" x="34" y="25.858398"/>
<use xlink:href="#glyph-0-2" x="37" y="25.858398"/>
<use xlink:href="#glyph-0-3" x="40" y="25.858398"/>
<use xlink:href="#glyph-0-4" x="43" y="25.858398"/>
<use xlink:href="#glyph-0-1" x="45" y="25.858398"/>
<use xlink:href="#glyph-0-5" x="48" y="25.858398"/>
<use xlink:href="#glyph-0-6" x="51" y="25.858398"/>
<use xlink:href="#glyph-0-7" x="53" y="25.858398"/>
<use xlink:href="#glyph-0-8" x="56" y="25.858398"/>
<use xlink:href="#glyph-0-1" x="58" y="25.858398"/>
<use xlink:href="#glyph-0-4" x="61" y="25.858398"/>
<use xlink:href="#glyph-0-3" x="63" y="25.858398"/>
<use xlink:href="#glyph-0-8" x="66" y="25.858398"/>
<use xlink:href="#glyph-0-2" x="68" y="25.858398"/>
<use xlink:href="#glyph-0-9" x="71" y="25.858398"/>
<use xlink:href="#glyph-0-4" x="74" y="25.858398"/>
<use xlink:href="#glyph-0-10" x="76" y="25.858398"/>
<use xlink:href="#glyph-0-11" x="78" y="25.858398"/>
<use xlink:href="#glyph-0-1" x="82" y="25.858398"/>
<use xlink:href="#glyph-0-12" x="85" y="25.858398"/>
<use xlink:href="#glyph-0-8" x="89" y="25.858398"/>
<use xlink:href="#glyph-0-1" x="91" y="25.858398"/>
<use xlink:href="#glyph-0-4" x="94" y="25.858398"/>
<use xlink:href="#glyph-0-13" x="96" y="25.858398"/>
<use xlink:href="#glyph-0-1" x="100" y="25.858398"/>
<use xlink:href="#glyph-0-4" x="103" y="25.858398"/>
<use xlink:href="#glyph-0-6" x="105" y="25.858398"/>
<use xlink:href="#glyph-0-12" x="107" y="25.858398"/>
<use xlink:href="#glyph-0-14" x="111" y="25.858398"/>
<use xlink:href="#glyph-0-1" x="114" y="25.858398"/>
<use xlink:href="#glyph-0-2" x="117" y="25.858398"/>
<use xlink:href="#glyph-0-8" x="120" y="25.858398"/>
<use xlink:href="#glyph-0-6" x="122" y="25.858398"/>
<use xlink:href="#glyph-0-13" x="124" y="25.858398"/>
<use xlink:href="#glyph-0-11" x="128" y="25.858398"/>
<use xlink:href="#glyph-0-15" x="132" y="25.858398"/>
<use xlink:href="#glyph-0-16" x="138" y="25.858398"/>
<use xlink:href="#glyph-0-2" x="142" y="25.858398"/>
<use xlink:href="#glyph-0-1" x="145" y="25.858398"/>
<use xlink:href="#glyph-0-17" x="148" y="25.858398"/>
</g>
</svg>
