<?xml version="1.0" encoding="UTF-8"?>
<svg xmlns="http://www.w3.org/2000/svg" xmlns:xlink="http://www.w3.org/1999/xlink" width="854" height="480" viewBox="0 0 854 480">
<defs>
<g>
<g id="glyph-0-0">
<path d="M 1.40625 -0.0234375 L 0.984375 0.00390625 L 0.96875 -0.0117188 L 0.96875 -0.125 L 0.957031 -0.125 C 0.914062 -0.078125 0.863281 -0.0429688 0.800781 -0.0117188 C 0.738281 0.0195312 0.675781 0.0351562 0.609375 0.0351562 C 0.539062 0.0351562 0.472656 0.0195312 0.410156 -0.0117188 C 0.347656 -0.0429688 0.292969 -0.0859375 0.242188 -0.140625 C 0.195312 -0.195312 0.15625 -0.265625 0.128906 -0.34375 C 0.101562 -0.421875 0.0859375 -0.507812 0.0859375 -0.605469 C 0.0859375 -0.691406 0.101562 -0.773438 0.132812 -0.851562 C 0.164062 -0.929688 0.203125 -1 0.257812 -1.058594 C 0.308594 -1.113281 0.367188 -1.15625 0.441406 -1.1875 C 0.511719 -1.21875 0.585938 -1.238281 0.660156 -1.238281 C 0.714844 -1.238281 0.769531 -1.230469 0.824219 -1.214844 C 0.878906 -1.199219 0.925781 -1.183594 0.964844 -1.160156 L 0.964844 -1.582031 C 0.964844 -1.613281 0.957031 -1.644531 0.945312 -1.675781 C 0.9375 -1.703125 0.921875 -1.722656 0.898438 -1.738281 C 0.875 -1.753906 0.847656 -1.765625 0.808594 -1.773438 C 0.769531 -1.777344 0.726562 -1.785156 0.683594 -1.789062 L 0.683594 -1.863281 L 1.175781 -1.890625 L 1.195312 -1.871094 L 1.195312 -0.25 C 1.195312 -0.21875 1.199219 -0.195312 1.210938 -0.175781 C 1.222656 -0.15625 1.238281 -0.140625 1.257812 -0.125 C 1.273438 -0.117188 1.296875 -0.109375 1.324219 -0.109375 C 1.355469 -0.105469 1.382812 -0.101562 1.40625 -0.101562 L 1.40625 -0.0234375 M 0.964844 -0.234375 L 0.964844 -0.9375 C 0.957031 -0.957031 0.949219 -0.980469 0.933594 -1.007812 C 0.917969 -1.03125 0.898438 -1.050781 0.878906 -1.074219 C 0.855469 -1.09375 0.828125 -1.109375 0.796875 -1.125 C 0.761719 -1.136719 0.726562 -1.144531 0.683594 -1.144531 C 0.636719 -1.144531 0.589844 -1.132812 0.550781 -1.105469 C 0.507812 -1.082031 0.472656 -1.042969 0.441406 -0.996094 C 0.410156 -0.953125 0.386719 -0.894531 0.371094 -0.824219 C 0.351562 -0.753906 0.34375 -0.675781 0.34375 -0.589844 C 0.34375 -0.519531 0.347656 -0.460938 0.363281 -0.402344 C 0.375 -0.347656 0.398438 -0.296875 0.429688 -0.246094 C 0.457031 -0.203125 0.492188 -0.164062 0.539062 -0.136719 C 0.582031 -0.109375 0.632812 -0.0976562 0.695312 -0.0976562 C 0.761719 -0.0976562 0.8125 -0.109375 0.855469 -0.140625 C 0.898438 -0.167969 0.933594 -0.199219 0.964844 -0.234375 Z "/>
</g>
<g id="glyph-0-1">
<path d="M 0.671875 0 L 0.0898438 0 L 0.0898438 -0.0820312 C 0.109375 -0.0820312 0.128906 -0.0820312 0.148438 -0.0859375 C 0.167969 -0.0859375 0.1875 -0.0898438 0.199219 -0.09375 C 0.222656 -0.101562 0.238281 -0.117188 0.25 -0.132812 C 0.261719 -0.152344 0.265625 -0.175781 0.265625 -0.203125 L 0.265625 -0.949219 C 0.265625 -0.972656 0.261719 -0.996094 0.25 -1.019531 C 0.238281 -1.039062 0.222656 -1.058594 0.199219 -1.074219 C 0.183594 -1.082031 0.164062 -1.089844 0.132812 -1.097656 C 0.105469 -1.105469 0.078125 -1.109375 0.0507812 -1.109375 L 0.0507812 -1.191406 L 0.476562 -1.21875 L 0.496094 -1.203125 L 0.496094 -0.21875 C 0.496094 -0.191406 0.5 -0.167969 0.511719 -0.148438 C 0.523438 -0.128906 0.539062 -0.117188 0.5625 -0.109375 C 0.578125 -0.101562 0.597656 -0.09375 0.613281 -0.0898438 C 0.632812 -0.0859375 0.648438 -0.0820312 0.671875 -0.0820312 L 0.671875 0 M 0.519531 -1.691406 C 0.519531 -1.648438 0.503906 -1.605469 0.472656 -1.570312 C 0.441406 -1.535156 0.40625 -1.519531 0.359375 -1.519531 C 0.320312 -1.519531 0.28125 -1.535156 0.253906 -1.570312 C 0.222656 -1.601562 0.207031 -1.640625 0.207031 -1.683594 C 0.207031 -1.726562 0.222656 -1.765625 0.253906 -1.800781 C 0.28125 -1.832031 0.320312 -1.847656 0.359375 -1.847656 C 0.40625 -1.847656 0.445312 -1.832031 0.472656 -1.800781 C 0.503906 -1.769531 0.519531 -1.734375 0.519531 -1.691406 Z "/>
</g>
<g id="glyph-0-2">
<path d="M 1.226562 -0.0234375 C 1.191406 -0.0078125 1.15625 0.00390625 1.128906 0.0117188 C 1.097656 0.0195312 1.066406 0.0234375 1.027344 0.0234375 C 0.964844 0.0234375 0.914062 0.0078125 0.878906 -0.0195312 C 0.839844 -0.0507812 0.816406 -0.09375 0.804688 -0.148438 L 0.796875 -0.148438 C 0.746094 -0.0898438 0.6875 -0.046875 0.625 -0.015625 C 0.566406 0.015625 0.492188 0.03125 0.40625 0.03125 C 0.316406 0.03125 0.242188 0.00390625 0.183594 -0.0507812 C 0.125 -0.109375 0.0976562 -0.179688 0.0976562 -0.269531 C 0.0976562 -0.316406 0.105469 -0.359375 0.117188 -0.394531 C 0.128906 -0.429688 0.148438 -0.464844 0.175781 -0.492188 C 0.195312 -0.515625 0.222656 -0.539062 0.257812 -0.558594 C 0.289062 -0.578125 0.320312 -0.59375 0.351562 -0.605469 C 0.386719 -0.617188 0.460938 -0.644531 0.574219 -0.679688 C 0.683594 -0.71875 0.761719 -0.746094 0.800781 -0.769531 L 0.800781 -0.890625 C 0.800781 -0.902344 0.796875 -0.921875 0.792969 -0.949219 C 0.789062 -0.980469 0.777344 -1.007812 0.765625 -1.035156 C 0.746094 -1.066406 0.726562 -1.09375 0.695312 -1.113281 C 0.664062 -1.136719 0.625 -1.148438 0.570312 -1.148438 C 0.53125 -1.148438 0.496094 -1.140625 0.464844 -1.128906 C 0.433594 -1.117188 0.410156 -1.105469 0.398438 -1.089844 C 0.398438 -1.074219 0.402344 -1.050781 0.410156 -1.019531 C 0.417969 -0.984375 0.421875 -0.957031 0.421875 -0.929688 C 0.421875 -0.902344 0.40625 -0.875 0.382812 -0.851562 C 0.355469 -0.828125 0.320312 -0.816406 0.273438 -0.816406 C 0.234375 -0.816406 0.203125 -0.832031 0.183594 -0.859375 C 0.164062 -0.890625 0.15625 -0.921875 0.15625 -0.957031 C 0.15625 -0.996094 0.167969 -1.03125 0.195312 -1.0625 C 0.222656 -1.097656 0.257812 -1.128906 0.300781 -1.15625 C 0.335938 -1.179688 0.378906 -1.199219 0.433594 -1.214844 C 0.484375 -1.230469 0.535156 -1.238281 0.585938 -1.238281 C 0.652344 -1.238281 0.710938 -1.234375 0.761719 -1.222656 C 0.8125 -1.214844 0.859375 -1.195312 0.902344 -1.164062 C 0.945312 -1.132812 0.976562 -1.09375 0.996094 -1.039062 C 1.019531 -0.988281 1.027344 -0.921875 1.027344 -0.839844 C 1.027344 -0.726562 1.027344 -0.621094 1.023438 -0.53125 C 1.023438 -0.441406 1.023438 -0.34375 1.023438 -0.238281 C 1.023438 -0.203125 1.027344 -0.179688 1.039062 -0.160156 C 1.050781 -0.140625 1.066406 -0.125 1.089844 -0.113281 C 1.101562 -0.105469 1.121094 -0.101562 1.148438 -0.101562 C 1.171875 -0.101562 1.199219 -0.101562 1.226562 -0.101562 L 1.226562 -0.0234375 M 0.800781 -0.667969 C 0.734375 -0.644531 0.671875 -0.625 0.621094 -0.605469 C 0.566406 -0.585938 0.519531 -0.5625 0.476562 -0.53125 C 0.433594 -0.503906 0.402344 -0.472656 0.378906 -0.433594 C 0.355469 -0.398438 0.34375 -0.351562 0.34375 -0.300781 C 0.34375 -0.230469 0.359375 -0.183594 0.394531 -0.148438 C 0.429688 -0.117188 0.476562 -0.101562 0.53125 -0.101562 C 0.589844 -0.101562 0.640625 -0.117188 0.683594 -0.144531 C 0.726562 -0.171875 0.765625 -0.207031 0.792969 -0.246094 Z "/>
</g>
<g id="glyph-0-3">
<path d="M 0.882812 -0.589844 C 0.914062 -0.558594 0.941406 -0.527344 0.960938 -0.488281 C 0.976562 -0.449219 0.984375 -0.402344 0.984375 -0.347656 C 0.984375 -0.238281 0.945312 -0.144531 0.859375 -0.0742188 C 0.777344 -0.00390625 0.667969 0.03125 0.539062 0.03125 C 0.46875 0.03125 0.402344 0.0195312 0.34375 -0.0078125 C 0.285156 -0.03125 0.242188 -0.0546875 0.21875 -0.0742188 L 0.191406 0.00390625 L 0.101562 0.00390625 L 0.0898438 -0.414062 L 0.171875 -0.414062 C 0.179688 -0.382812 0.195312 -0.347656 0.214844 -0.304688 C 0.234375 -0.261719 0.261719 -0.222656 0.292969 -0.1875 C 0.324219 -0.152344 0.363281 -0.121094 0.40625 -0.0976562 C 0.449219 -0.0742188 0.5 -0.0625 0.554688 -0.0625 C 0.632812 -0.0625 0.695312 -0.078125 0.734375 -0.113281 C 0.777344 -0.148438 0.800781 -0.199219 0.800781 -0.265625 C 0.800781 -0.300781 0.792969 -0.332031 0.78125 -0.355469 C 0.765625 -0.378906 0.746094 -0.402344 0.71875 -0.421875 C 0.695312 -0.441406 0.660156 -0.457031 0.621094 -0.472656 C 0.582031 -0.488281 0.539062 -0.5 0.492188 -0.515625 C 0.453125 -0.527344 0.410156 -0.542969 0.363281 -0.5625 C 0.316406 -0.582031 0.277344 -0.605469 0.242188 -0.632812 C 0.207031 -0.660156 0.179688 -0.695312 0.15625 -0.738281 C 0.132812 -0.78125 0.121094 -0.828125 0.121094 -0.886719 C 0.121094 -0.984375 0.15625 -1.066406 0.230469 -1.136719 C 0.304688 -1.203125 0.402344 -1.238281 0.523438 -1.238281 C 0.570312 -1.238281 0.621094 -1.230469 0.667969 -1.21875 C 0.71875 -1.207031 0.757812 -1.191406 0.789062 -1.175781 L 0.816406 -1.238281 L 0.90625 -1.238281 L 0.925781 -0.851562 L 0.839844 -0.851562 C 0.824219 -0.9375 0.785156 -1.007812 0.730469 -1.0625 C 0.671875 -1.117188 0.605469 -1.144531 0.523438 -1.144531 C 0.457031 -1.144531 0.402344 -1.128906 0.363281 -1.09375 C 0.328125 -1.0625 0.308594 -1.019531 0.308594 -0.972656 C 0.308594 -0.9375 0.3125 -0.90625 0.328125 -0.882812 C 0.339844 -0.855469 0.359375 -0.835938 0.382812 -0.820312 C 0.40625 -0.804688 0.4375 -0.789062 0.476562 -0.773438 C 0.511719 -0.757812 0.558594 -0.742188 0.613281 -0.726562 C 0.667969 -0.707031 0.71875 -0.6875 0.765625 -0.664062 C 0.8125 -0.640625 0.851562 -0.617188 0.882812 -0.589844 Z "/>
</g>
<g id="glyph-0-4">
</g>
<g id="glyph-0-5">
<path d="M 1.15625 -0.28125 C 1.105469 -0.1875 1.039062 -0.109375 0.953125 -0.0546875 C 0.871094 0.00390625 0.773438 0.03125 0.664062 0.03125 C 0.566406 0.03125 0.480469 0.015625 0.410156 -0.0195312 C 0.335938 -0.0546875 0.277344 -0.101562 0.226562 -0.160156 C 0.179688 -0.21875 0.144531 -0.285156 0.121094 -0.363281 C 0.0976562 -0.441406 0.0859375 -0.523438 0.0859375 -0.613281 C 0.0859375 -0.691406 0.101562 -0.765625 0.125 -0.839844 C 0.148438 -0.917969 0.1875 -0.984375 0.234375 -1.046875 C 0.28125 -1.101562 0.339844 -1.148438 0.40625 -1.183594 C 0.476562 -1.21875 0.554688 -1.238281 0.636719 -1.238281 C 0.726562 -1.238281 0.800781 -1.222656 0.863281 -1.195312 C 0.925781 -1.167969 0.976562 -1.128906 1.015625 -1.082031 C 1.054688 -1.039062 1.082031 -0.984375 1.101562 -0.921875 C 1.117188 -0.859375 1.128906 -0.792969 1.128906 -0.71875 L 1.128906 -0.640625 L 0.332031 -0.640625 C 0.332031 -0.558594 0.339844 -0.488281 0.351562 -0.425781 C 0.367188 -0.359375 0.390625 -0.304688 0.425781 -0.253906 C 0.457031 -0.207031 0.496094 -0.167969 0.550781 -0.140625 C 0.601562 -0.113281 0.660156 -0.101562 0.734375 -0.101562 C 0.804688 -0.101562 0.867188 -0.117188 0.917969 -0.152344 C 0.972656 -0.1875 1.023438 -0.246094 1.070312 -0.335938 L 1.15625 -0.28125 M 0.886719 -0.742188 C 0.886719 -0.789062 0.882812 -0.835938 0.875 -0.886719 C 0.867188 -0.941406 0.855469 -0.984375 0.839844 -1.019531 C 0.820312 -1.054688 0.792969 -1.085938 0.761719 -1.109375 C 0.730469 -1.132812 0.6875 -1.144531 0.636719 -1.144531 C 0.550781 -1.144531 0.480469 -1.109375 0.421875 -1.039062 C 0.367188 -0.96875 0.335938 -0.867188 0.332031 -0.742188 Z "/>
</g>
<g id="glyph-0-6">
<path d="M 0.832031 -0.0507812 C 0.777344 -0.03125 0.726562 -0.0117188 0.679688 0.00390625 C 0.632812 0.0195312 0.578125 0.0273438 0.507812 0.0273438 C 0.40625 0.0273438 0.335938 0 0.292969 -0.0507812 C 0.253906 -0.101562 0.234375 -0.171875 0.234375 -0.265625 L 0.234375 -1.082031 L 0.015625 -1.082031 L 0.015625 -1.199219 L 0.238281 -1.199219 L 0.238281 -1.574219 L 0.460938 -1.574219 L 0.460938 -1.199219 L 0.804688 -1.199219 L 0.804688 -1.082031 L 0.460938 -1.082031 L 0.460938 -0.410156 C 0.460938 -0.359375 0.464844 -0.316406 0.46875 -0.28125 C 0.472656 -0.25 0.480469 -0.21875 0.496094 -0.195312 C 0.507812 -0.171875 0.527344 -0.152344 0.554688 -0.140625 C 0.578125 -0.128906 0.613281 -0.121094 0.65625 -0.121094 C 0.679688 -0.121094 0.707031 -0.125 0.746094 -0.128906 C 0.789062 -0.132812 0.816406 -0.136719 0.832031 -0.140625 Z "/>
</g>
<g id="glyph-0-7">
<path d="M 1.007812 -1.046875 C 1.007812 -1.007812 1 -0.96875 0.980469 -0.9375 C 0.957031 -0.90625 0.925781 -0.890625 0.886719 -0.890625 C 0.839844 -0.890625 0.804688 -0.902344 0.78125 -0.925781 C 0.757812 -0.949219 0.746094 -0.976562 0.746094 -1.003906 C 0.746094 -1.019531 0.746094 -1.039062 0.75 -1.050781 C 0.75 -1.066406 0.753906 -1.082031 0.757812 -1.097656 C 0.71875 -1.097656 0.671875 -1.082031 0.621094 -1.050781 C 0.570312 -1.019531 0.527344 -0.976562 0.492188 -0.917969 L 0.492188 -0.21875 C 0.492188 -0.1875 0.496094 -0.164062 0.507812 -0.148438 C 0.519531 -0.128906 0.535156 -0.117188 0.558594 -0.109375 C 0.582031 -0.0976562 0.605469 -0.09375 0.640625 -0.0898438 C 0.671875 -0.0859375 0.699219 -0.0820312 0.722656 -0.0820312 L 0.722656 0 L 0.0859375 0 L 0.0859375 -0.0820312 C 0.105469 -0.0820312 0.125 -0.0820312 0.144531 -0.0859375 C 0.164062 -0.0859375 0.183594 -0.0898438 0.199219 -0.09375 C 0.21875 -0.101562 0.238281 -0.117188 0.25 -0.132812 C 0.257812 -0.152344 0.265625 -0.175781 0.265625 -0.203125 L 0.265625 -0.949219 C 0.265625 -0.972656 0.257812 -0.996094 0.246094 -1.023438 C 0.234375 -1.046875 0.21875 -1.066406 0.199219 -1.082031 C 0.183594 -1.089844 0.164062 -1.097656 0.144531 -1.101562 C 0.121094 -1.105469 0.0976562 -1.109375 0.0742188 -1.109375 L 0.0742188 -1.191406 L 0.476562 -1.21875 L 0.492188 -1.203125 L 0.492188 -1.03125 L 0.5 -1.03125 C 0.546875 -1.097656 0.605469 -1.148438 0.667969 -1.179688 C 0.726562 -1.214844 0.785156 -1.234375 0.835938 -1.234375 C 0.886719 -1.234375 0.929688 -1.214844 0.960938 -1.183594 C 0.992188 -1.148438 1.007812 -1.105469 1.007812 -1.046875 Z "/>
</g>
</g>
</defs>
<g fill="rgb(86.27451%, 14.901961%, 14.901961%)" fill-opacity="1">
<use xlink:href="#glyph-0-0" x="30" y="22.292969"/>
<use xlink:href="#glyph-0-1" x="31" y="22.292969"/>
<use xlink:href="#glyph-0-2" x="32" y="22.292969"/>
<use xlink:href="#glyph-0-3" x="33" y="22.292969"/>
<use xlink:href="#glyph-0-4" x="34" y="22.292969"/>
<use xlink:href="#glyph-0-0" x="35" y="22.292969"/>
<use xlink:href="#glyph-0-5" x="36" y="22.292969"/>
<use xlink:href="#glyph-0-4" x="37" y="22.292969"/>
<use xlink:href="#glyph-0-5" x="38" y="22.292969"/>
<use xlink:href="#glyph-0-3" x="39" y="22.292969"/>
<use xlink:href="#glyph-0-6" x="40" y="22.292969"/>
<use xlink:href="#glyph-0-7" x="41" y="22.292969"/>
<use xlink:href="#glyph-0-5" x="42" y="22.292969"/>
<use xlink:href="#glyph-0-3" x="43" y="22.292969"/>
</g>
</svg>
