<?xml version="1.0" encoding="UTF-8"?>
<svg xmlns="http://www.w3.org/2000/svg" xmlns:xlink="http://www.w3.org/1999/xlink" width="854" height="480" viewBox="0 0 854 480">
<defs>
<g>
<g id="glyph-0-0">
<path d="M 1.800781 0.105469 C 1.566406 0.105469 1.347656 0.078125 1.144531 0.0195312 C 0.941406 -0.0429688 0.769531 -0.109375 0.625 -0.191406 L 0.441406 0 L 0.207031 0 L 0.171875 -1.390625 L 0.40625 -1.390625 C 0.460938 -1.257812 0.527344 -1.121094 0.609375 -0.972656 C 0.6875 -0.828125 0.78125 -0.695312 0.890625 -0.578125 C 1 -0.457031 1.125 -0.359375 1.261719 -0.28125 C 1.398438 -0.207031 1.554688 -0.167969 1.738281 -0.167969 C 1.984375 -0.167969 2.171875 -0.226562 2.304688 -0.347656 C 2.4375 -0.46875 2.5 -0.621094 2.5 -0.804688 C 2.5 -0.953125 2.445312 -1.078125 2.335938 -1.183594 C 2.222656 -1.285156 2.050781 -1.371094 1.816406 -1.449219 C 1.664062 -1.496094 1.527344 -1.542969 1.398438 -1.582031 C 1.269531 -1.625 1.152344 -1.667969 1.039062 -1.710938 C 0.78125 -1.816406 0.589844 -1.960938 0.460938 -2.15625 C 0.335938 -2.347656 0.273438 -2.5625 0.273438 -2.796875 C 0.273438 -2.949219 0.304688 -3.09375 0.371094 -3.230469 C 0.4375 -3.371094 0.53125 -3.496094 0.65625 -3.605469 C 0.777344 -3.707031 0.929688 -3.792969 1.113281 -3.859375 C 1.300781 -3.921875 1.503906 -3.957031 1.722656 -3.957031 C 1.9375 -3.957031 2.136719 -3.925781 2.320312 -3.867188 C 2.507812 -3.804688 2.65625 -3.746094 2.761719 -3.6875 L 2.925781 -3.847656 L 3.164062 -3.847656 L 3.183594 -2.535156 L 2.953125 -2.535156 C 2.898438 -2.679688 2.832031 -2.824219 2.761719 -2.96875 C 2.6875 -3.117188 2.609375 -3.242188 2.527344 -3.339844 C 2.441406 -3.445312 2.335938 -3.527344 2.222656 -3.589844 C 2.105469 -3.652344 1.96875 -3.683594 1.816406 -3.683594 C 1.621094 -3.683594 1.460938 -3.628906 1.335938 -3.519531 C 1.210938 -3.40625 1.148438 -3.269531 1.148438 -3.109375 C 1.148438 -2.953125 1.203125 -2.828125 1.3125 -2.730469 C 1.417969 -2.632812 1.585938 -2.546875 1.816406 -2.472656 C 1.949219 -2.425781 2.085938 -2.382812 2.222656 -2.335938 C 2.363281 -2.292969 2.488281 -2.246094 2.597656 -2.207031 C 2.859375 -2.105469 3.058594 -1.964844 3.195312 -1.785156 C 3.332031 -1.609375 3.398438 -1.386719 3.398438 -1.121094 C 3.398438 -0.957031 3.359375 -0.792969 3.28125 -0.636719 C 3.203125 -0.484375 3.101562 -0.351562 2.96875 -0.25 C 2.824219 -0.136719 2.65625 -0.046875 2.464844 0.0117188 C 2.277344 0.0742188 2.054688 0.105469 1.800781 0.105469 Z "/>
</g>
<g id="glyph-0-1">
<path d="M 3.074219 -0.648438 C 3.011719 -0.546875 2.933594 -0.449219 2.84375 -0.355469 C 2.753906 -0.265625 2.652344 -0.1875 2.539062 -0.121094 C 2.417969 -0.0546875 2.296875 0 2.171875 0.0351562 C 2.046875 0.0703125 1.90625 0.0859375 1.746094 0.0859375 C 1.476562 0.0859375 1.246094 0.0507812 1.050781 -0.0273438 C 0.855469 -0.101562 0.695312 -0.207031 0.570312 -0.332031 C 0.441406 -0.460938 0.347656 -0.613281 0.285156 -0.789062 C 0.222656 -0.960938 0.191406 -1.152344 0.191406 -1.355469 C 0.191406 -1.539062 0.226562 -1.71875 0.292969 -1.886719 C 0.363281 -2.054688 0.457031 -2.207031 0.582031 -2.339844 C 0.707031 -2.46875 0.863281 -2.570312 1.046875 -2.652344 C 1.234375 -2.730469 1.445312 -2.769531 1.675781 -2.769531 C 1.929688 -2.769531 2.136719 -2.738281 2.300781 -2.675781 C 2.464844 -2.617188 2.597656 -2.53125 2.703125 -2.421875 C 2.808594 -2.320312 2.882812 -2.199219 2.929688 -2.058594 C 2.976562 -1.917969 3 -1.769531 3 -1.617188 L 3 -1.441406 L 1.167969 -1.441406 C 1.167969 -1.070312 1.238281 -0.789062 1.378906 -0.59375 C 1.523438 -0.402344 1.75 -0.304688 2.0625 -0.304688 C 2.230469 -0.304688 2.382812 -0.351562 2.519531 -0.445312 C 2.65625 -0.535156 2.773438 -0.65625 2.867188 -0.796875 L 3.074219 -0.648438 M 2.039062 -1.679688 C 2.039062 -1.789062 2.03125 -1.898438 2.019531 -2.011719 C 2.011719 -2.125 1.992188 -2.21875 1.964844 -2.292969 C 1.933594 -2.378906 1.890625 -2.441406 1.839844 -2.484375 C 1.785156 -2.527344 1.71875 -2.550781 1.636719 -2.550781 C 1.496094 -2.550781 1.386719 -2.480469 1.300781 -2.339844 C 1.21875 -2.199219 1.171875 -1.972656 1.167969 -1.667969 Z "/>
</g>
<g id="glyph-0-2">
<path d="M 3.460938 -1.320312 C 3.460938 -0.941406 3.335938 -0.613281 3.078125 -0.339844 C 2.824219 -0.0664062 2.503906 0.0703125 2.113281 0.0703125 C 1.9375 0.0703125 1.796875 0.0546875 1.691406 0.0195312 C 1.582031 -0.0195312 1.492188 -0.0625 1.421875 -0.109375 L 1.398438 -0.109375 L 1.398438 0.652344 C 1.398438 0.714844 1.414062 0.769531 1.441406 0.816406 C 1.46875 0.863281 1.507812 0.898438 1.558594 0.917969 C 1.609375 0.941406 1.679688 0.957031 1.765625 0.972656 C 1.855469 0.988281 1.929688 1 1.992188 1.003906 L 1.992188 1.203125 L 0.03125 1.203125 L 0.03125 1.003906 C 0.0742188 1 0.132812 0.992188 0.199219 0.984375 C 0.269531 0.972656 0.320312 0.964844 0.355469 0.953125 C 0.414062 0.933594 0.453125 0.898438 0.472656 0.851562 C 0.496094 0.800781 0.503906 0.746094 0.503906 0.6875 L 0.503906 -2.089844 C 0.5 -2.148438 0.484375 -2.199219 0.460938 -2.246094 C 0.441406 -2.292969 0.402344 -2.332031 0.355469 -2.367188 C 0.320312 -2.390625 0.269531 -2.410156 0.210938 -2.425781 C 0.152344 -2.4375 0.09375 -2.449219 0.0351562 -2.457031 L 0.0351562 -2.652344 L 1.359375 -2.722656 L 1.398438 -2.6875 L 1.398438 -2.386719 L 1.421875 -2.382812 C 1.539062 -2.503906 1.671875 -2.597656 1.820312 -2.664062 C 1.964844 -2.730469 2.109375 -2.765625 2.25 -2.765625 C 2.625 -2.765625 2.917969 -2.632812 3.136719 -2.367188 C 3.351562 -2.101562 3.460938 -1.753906 3.460938 -1.320312 M 2.488281 -1.308594 C 2.488281 -1.445312 2.476562 -1.574219 2.457031 -1.699219 C 2.4375 -1.824219 2.402344 -1.933594 2.351562 -2.03125 C 2.304688 -2.128906 2.238281 -2.207031 2.160156 -2.265625 C 2.078125 -2.324219 1.980469 -2.351562 1.867188 -2.351562 C 1.746094 -2.351562 1.652344 -2.332031 1.582031 -2.292969 C 1.511719 -2.25 1.453125 -2.199219 1.398438 -2.132812 L 1.398438 -0.59375 C 1.410156 -0.558594 1.429688 -0.511719 1.460938 -0.453125 C 1.492188 -0.398438 1.523438 -0.351562 1.554688 -0.316406 C 1.597656 -0.269531 1.652344 -0.230469 1.707031 -0.207031 C 1.765625 -0.183594 1.828125 -0.171875 1.898438 -0.171875 C 2.078125 -0.171875 2.21875 -0.269531 2.328125 -0.460938 C 2.433594 -0.65625 2.488281 -0.9375 2.488281 -1.308594 Z "/>
</g>
<g id="glyph-0-3">
<path d="M 2.175781 -0.125 C 2.058594 -0.0742188 1.9375 -0.0273438 1.804688 0.0117188 C 1.671875 0.0546875 1.511719 0.0742188 1.320312 0.0742188 C 1.039062 0.0742188 0.828125 0.00390625 0.691406 -0.132812 C 0.554688 -0.269531 0.488281 -0.464844 0.488281 -0.722656 L 0.488281 -2.382812 L 0 -2.382812 L 0 -2.679688 L 0.5 -2.679688 L 0.5 -3.503906 L 1.378906 -3.503906 L 1.378906 -2.679688 L 2.140625 -2.679688 L 2.140625 -2.382812 L 1.382812 -2.382812 L 1.382812 -0.898438 C 1.382812 -0.6875 1.414062 -0.539062 1.472656 -0.449219 C 1.53125 -0.363281 1.636719 -0.316406 1.789062 -0.316406 C 1.839844 -0.316406 1.90625 -0.320312 1.992188 -0.328125 C 2.082031 -0.335938 2.140625 -0.34375 2.175781 -0.351562 Z "/>
</g>
<g id="glyph-0-4">
<path d="M 1.871094 0 L 0.15625 0 L 0.15625 -0.199219 C 0.203125 -0.203125 0.25 -0.207031 0.296875 -0.210938 C 0.339844 -0.21875 0.378906 -0.226562 0.414062 -0.238281 C 0.46875 -0.261719 0.511719 -0.292969 0.535156 -0.332031 C 0.558594 -0.371094 0.570312 -0.425781 0.570312 -0.492188 L 0.570312 -2.074219 C 0.570312 -2.136719 0.554688 -2.191406 0.527344 -2.238281 C 0.496094 -2.289062 0.460938 -2.324219 0.417969 -2.355469 C 0.386719 -2.375 0.335938 -2.398438 0.269531 -2.417969 C 0.203125 -2.4375 0.144531 -2.449219 0.0898438 -2.457031 L 0.0898438 -2.652344 L 1.417969 -2.722656 L 1.460938 -2.683594 L 1.460938 -0.527344 C 1.460938 -0.464844 1.472656 -0.410156 1.5 -0.367188 C 1.527344 -0.324219 1.566406 -0.289062 1.617188 -0.269531 C 1.652344 -0.253906 1.691406 -0.238281 1.734375 -0.226562 C 1.78125 -0.210938 1.824219 -0.203125 1.871094 -0.199219 L 1.871094 0 M 1.476562 -3.699219 C 1.476562 -3.5625 1.421875 -3.445312 1.316406 -3.347656 C 1.210938 -3.253906 1.085938 -3.203125 0.941406 -3.203125 C 0.792969 -3.203125 0.667969 -3.253906 0.5625 -3.347656 C 0.457031 -3.445312 0.402344 -3.5625 0.402344 -3.699219 C 0.402344 -3.835938 0.457031 -3.957031 0.5625 -4.054688 C 0.667969 -4.152344 0.792969 -4.199219 0.941406 -4.199219 C 1.085938 -4.199219 1.214844 -4.152344 1.320312 -4.054688 C 1.421875 -3.957031 1.476562 -3.835938 1.476562 -3.699219 Z "/>
</g>
<g id="glyph-0-5">
<path d="M 5.546875 0 L 3.933594 0 L 3.933594 -0.199219 C 3.972656 -0.203125 4.015625 -0.207031 4.058594 -0.210938 C 4.101562 -0.214844 4.136719 -0.222656 4.164062 -0.238281 C 4.203125 -0.257812 4.230469 -0.289062 4.242188 -0.328125 C 4.25 -0.371094 4.257812 -0.425781 4.257812 -0.492188 L 4.257812 -1.761719 C 4.257812 -1.945312 4.222656 -2.085938 4.15625 -2.179688 C 4.089844 -2.273438 3.996094 -2.320312 3.871094 -2.320312 C 3.792969 -2.320312 3.726562 -2.308594 3.664062 -2.28125 C 3.605469 -2.257812 3.546875 -2.226562 3.496094 -2.191406 C 3.445312 -2.152344 3.402344 -2.117188 3.375 -2.078125 C 3.347656 -2.039062 3.320312 -2.007812 3.300781 -1.980469 L 3.300781 -0.523438 C 3.300781 -0.457031 3.308594 -0.40625 3.324219 -0.363281 C 3.339844 -0.324219 3.367188 -0.292969 3.410156 -0.269531 C 3.4375 -0.253906 3.46875 -0.238281 3.507812 -0.226562 C 3.542969 -0.210938 3.582031 -0.203125 3.625 -0.199219 L 3.625 0 L 2.082031 0 L 2.082031 -0.199219 C 2.117188 -0.203125 2.160156 -0.207031 2.207031 -0.210938 C 2.253906 -0.21875 2.292969 -0.226562 2.316406 -0.238281 C 2.351562 -0.257812 2.378906 -0.289062 2.390625 -0.324219 C 2.402344 -0.363281 2.40625 -0.417969 2.40625 -0.492188 L 2.40625 -1.761719 C 2.40625 -1.945312 2.375 -2.085938 2.308594 -2.179688 C 2.242188 -2.273438 2.144531 -2.320312 2.023438 -2.320312 C 1.945312 -2.320312 1.875 -2.308594 1.816406 -2.28125 C 1.753906 -2.257812 1.699219 -2.226562 1.648438 -2.191406 C 1.59375 -2.152344 1.554688 -2.117188 1.523438 -2.078125 C 1.496094 -2.039062 1.472656 -2.007812 1.453125 -1.980469 L 1.453125 -0.523438 C 1.453125 -0.460938 1.460938 -0.40625 1.476562 -0.367188 C 1.492188 -0.324219 1.519531 -0.292969 1.5625 -0.269531 C 1.589844 -0.253906 1.625 -0.238281 1.660156 -0.226562 C 1.699219 -0.210938 1.738281 -0.203125 1.78125 -0.199219 L 1.78125 0 L 0.15625 0 L 0.15625 -0.199219 C 0.203125 -0.203125 0.246094 -0.207031 0.292969 -0.210938 C 0.339844 -0.21875 0.378906 -0.226562 0.410156 -0.238281 C 0.46875 -0.261719 0.507812 -0.292969 0.527344 -0.332031 C 0.550781 -0.371094 0.5625 -0.425781 0.5625 -0.492188 L 0.5625 -2.074219 C 0.5625 -2.128906 0.546875 -2.1875 0.515625 -2.242188 C 0.484375 -2.296875 0.449219 -2.339844 0.402344 -2.371094 C 0.371094 -2.394531 0.332031 -2.410156 0.28125 -2.425781 C 0.230469 -2.441406 0.175781 -2.449219 0.117188 -2.457031 L 0.117188 -2.652344 L 1.410156 -2.722656 L 1.453125 -2.683594 L 1.453125 -2.300781 L 1.460938 -2.300781 C 1.511719 -2.347656 1.574219 -2.398438 1.644531 -2.460938 C 1.710938 -2.523438 1.777344 -2.574219 1.839844 -2.613281 C 1.90625 -2.65625 1.992188 -2.691406 2.097656 -2.722656 C 2.203125 -2.75 2.316406 -2.765625 2.441406 -2.765625 C 2.648438 -2.765625 2.820312 -2.71875 2.957031 -2.628906 C 3.097656 -2.539062 3.195312 -2.421875 3.253906 -2.273438 L 3.277344 -2.273438 C 3.328125 -2.320312 3.394531 -2.378906 3.46875 -2.445312 C 3.546875 -2.511719 3.617188 -2.566406 3.679688 -2.605469 C 3.75 -2.648438 3.839844 -2.6875 3.949219 -2.71875 C 4.058594 -2.75 4.175781 -2.765625 4.300781 -2.765625 C 4.574219 -2.765625 4.785156 -2.683594 4.929688 -2.523438 C 5.078125 -2.363281 5.152344 -2.132812 5.152344 -1.835938 L 5.152344 -0.519531 C 5.152344 -0.453125 5.160156 -0.398438 5.179688 -0.355469 C 5.203125 -0.316406 5.238281 -0.285156 5.289062 -0.261719 C 5.320312 -0.25 5.355469 -0.238281 5.398438 -0.226562 C 5.441406 -0.210938 5.488281 -0.203125 5.546875 -0.199219 Z "/>
</g>
<g id="glyph-0-6">
<path d="M 3.394531 -1.328125 C 3.394531 -0.917969 3.257812 -0.582031 2.992188 -0.316406 C 2.722656 -0.046875 2.382812 0.0859375 1.96875 0.0859375 C 1.808594 0.0859375 1.671875 0.0742188 1.558594 0.0546875 C 1.445312 0.03125 1.347656 0.00390625 1.265625 -0.03125 C 1.183594 -0.0625 1.117188 -0.0976562 1.066406 -0.132812 C 1.019531 -0.164062 0.976562 -0.191406 0.949219 -0.214844 L 0.5625 0.136719 L 0.402344 0.0742188 C 0.410156 -0.0546875 0.417969 -0.199219 0.425781 -0.355469 C 0.429688 -0.507812 0.433594 -0.71875 0.433594 -0.980469 L 0.433594 -3.519531 C 0.433594 -3.585938 0.421875 -3.652344 0.390625 -3.710938 C 0.363281 -3.769531 0.328125 -3.8125 0.28125 -3.84375 C 0.246094 -3.867188 0.195312 -3.886719 0.128906 -3.902344 C 0.0625 -3.917969 0 -3.925781 -0.0546875 -3.929688 L -0.0546875 -4.128906 L 1.289062 -4.199219 L 1.328125 -4.15625 L 1.328125 -2.394531 L 1.34375 -2.394531 C 1.476562 -2.519531 1.613281 -2.613281 1.75 -2.675781 C 1.890625 -2.734375 2.03125 -2.765625 2.167969 -2.765625 C 2.546875 -2.765625 2.847656 -2.636719 3.066406 -2.375 C 3.285156 -2.117188 3.394531 -1.769531 3.394531 -1.328125 M 2.417969 -1.292969 C 2.417969 -1.429688 2.410156 -1.5625 2.390625 -1.691406 C 2.367188 -1.820312 2.332031 -1.929688 2.285156 -2.027344 C 2.234375 -2.125 2.171875 -2.207031 2.09375 -2.265625 C 2.011719 -2.324219 1.914062 -2.351562 1.796875 -2.351562 C 1.6875 -2.351562 1.597656 -2.335938 1.523438 -2.296875 C 1.453125 -2.261719 1.386719 -2.207031 1.328125 -2.136719 L 1.328125 -0.558594 C 1.339844 -0.523438 1.359375 -0.476562 1.390625 -0.417969 C 1.421875 -0.359375 1.449219 -0.3125 1.480469 -0.28125 C 1.523438 -0.230469 1.570312 -0.195312 1.617188 -0.171875 C 1.667969 -0.148438 1.734375 -0.136719 1.824219 -0.136719 C 2.007812 -0.136719 2.152344 -0.238281 2.261719 -0.4375 C 2.367188 -0.640625 2.417969 -0.925781 2.417969 -1.292969 Z "/>
</g>
<g id="glyph-0-7">
<path d="M 2.859375 -2.195312 C 2.859375 -2.058594 2.816406 -1.9375 2.730469 -1.832031 C 2.648438 -1.730469 2.535156 -1.675781 2.394531 -1.675781 C 2.261719 -1.675781 2.152344 -1.710938 2.058594 -1.777344 C 1.96875 -1.84375 1.921875 -1.941406 1.921875 -2.070312 C 1.921875 -2.132812 1.929688 -2.183594 1.9375 -2.21875 C 1.945312 -2.253906 1.953125 -2.285156 1.960938 -2.316406 C 1.878906 -2.3125 1.789062 -2.285156 1.699219 -2.230469 C 1.605469 -2.175781 1.523438 -2.105469 1.453125 -2.015625 L 1.453125 -0.527344 C 1.453125 -0.464844 1.464844 -0.410156 1.484375 -0.367188 C 1.503906 -0.328125 1.539062 -0.292969 1.585938 -0.269531 C 1.625 -0.25 1.6875 -0.234375 1.777344 -0.222656 C 1.867188 -0.207031 1.933594 -0.199219 1.972656 -0.199219 L 1.972656 0 L 0.15625 0 L 0.15625 -0.199219 C 0.203125 -0.203125 0.25 -0.207031 0.292969 -0.214844 C 0.339844 -0.21875 0.378906 -0.226562 0.414062 -0.238281 C 0.46875 -0.257812 0.511719 -0.289062 0.53125 -0.332031 C 0.554688 -0.371094 0.5625 -0.425781 0.5625 -0.492188 L 0.5625 -2.074219 C 0.5625 -2.136719 0.550781 -2.195312 0.519531 -2.246094 C 0.488281 -2.300781 0.449219 -2.339844 0.40625 -2.371094 C 0.375 -2.394531 0.332031 -2.410156 0.285156 -2.425781 C 0.234375 -2.441406 0.179688 -2.449219 0.121094 -2.457031 L 0.121094 -2.652344 L 1.414062 -2.722656 L 1.453125 -2.683594 L 1.453125 -2.289062 L 1.464844 -2.289062 C 1.589844 -2.433594 1.722656 -2.546875 1.863281 -2.628906 C 2.003906 -2.710938 2.148438 -2.753906 2.300781 -2.753906 C 2.46875 -2.753906 2.605469 -2.703125 2.707031 -2.597656 C 2.808594 -2.492188 2.859375 -2.359375 2.859375 -2.195312 Z "/>
</g>
</g>
</defs>
<g fill="rgb(97.647059%, 65.882353%, 14.509804%)" fill-opacity="1">
<use xlink:href="#glyph-0-0" x="30" y="25.094727"/>
<use xlink:href="#glyph-0-1" x="34" y="25.094727"/>
<use xlink:href="#glyph-0-2" x="37" y="25.094727"/>
<use xlink:href="#glyph-0-3" x="41" y="25.094727"/>
<use xlink:href="#glyph-0-4" x="43" y="25.094727"/>
<use xlink:href="#glyph-0-1" x="45" y="25.094727"/>
<use xlink:href="#glyph-0-5" x="48" y="25.094727"/>
<use xlink:href="#glyph-0-6" x="54" y="25.094727"/>
<use xlink:href="#glyph-0-7" x="58" y="25.094727"/>
<use xlink:href="#glyph-0-1" x="61" y="25.094727"/>
</g>
</svg>
