<?xml version="1.0" encoding="UTF-8"?>
<svg xmlns="http://www.w3.org/2000/svg" xmlns:xlink="http://www.w3.org/1999/xlink" width="854" height="480" viewBox="0 0 854 480">
<defs>
<g>
<g id="glyph-0-0">
<path d="M 1.960938 0 L 0.144531 0 L 0.144531 -0.179688 C 0.1875 -0.183594 0.246094 -0.1875 0.328125 -0.195312 C 0.410156 -0.199219 0.464844 -0.210938 0.496094 -0.222656 C 0.550781 -0.246094 0.589844 -0.273438 0.613281 -0.3125 C 0.632812 -0.351562 0.644531 -0.398438 0.644531 -0.457031 L 0.644531 -2.777344 C 0.644531 -2.828125 0.632812 -2.875 0.613281 -2.914062 C 0.59375 -2.953125 0.554688 -2.988281 0.496094 -3.011719 C 0.457031 -3.027344 0.40625 -3.042969 0.332031 -3.058594 C 0.261719 -3.074219 0.199219 -3.085938 0.144531 -3.09375 L 0.144531 -3.273438 L 1.960938 -3.273438 L 1.960938 -3.09375 C 1.914062 -3.085938 1.855469 -3.082031 1.789062 -3.074219 C 1.71875 -3.0625 1.660156 -3.050781 1.613281 -3.035156 C 1.550781 -3.015625 1.511719 -2.984375 1.492188 -2.945312 C 1.472656 -2.902344 1.460938 -2.851562 1.460938 -2.800781 L 1.460938 -0.480469 C 1.460938 -0.425781 1.472656 -0.378906 1.492188 -0.339844 C 1.515625 -0.300781 1.554688 -0.269531 1.613281 -0.246094 C 1.644531 -0.230469 1.699219 -0.21875 1.773438 -0.203125 C 1.847656 -0.191406 1.910156 -0.183594 1.960938 -0.179688 Z "/>
</g>
<g id="glyph-0-1">
<path d="M 3.175781 0 L 1.792969 0 L 1.792969 -0.167969 C 1.820312 -0.171875 1.855469 -0.175781 1.898438 -0.179688 C 1.9375 -0.183594 1.972656 -0.191406 1.992188 -0.203125 C 2.023438 -0.21875 2.046875 -0.246094 2.0625 -0.277344 C 2.074219 -0.308594 2.082031 -0.355469 2.082031 -0.417969 L 2.082031 -1.5 C 2.082031 -1.65625 2.054688 -1.773438 1.996094 -1.851562 C 1.9375 -1.933594 1.851562 -1.972656 1.738281 -1.972656 C 1.679688 -1.972656 1.621094 -1.960938 1.566406 -1.945312 C 1.515625 -1.925781 1.460938 -1.898438 1.410156 -1.863281 C 1.367188 -1.832031 1.332031 -1.800781 1.304688 -1.769531 C 1.277344 -1.738281 1.253906 -1.707031 1.234375 -1.683594 L 1.234375 -0.445312 C 1.234375 -0.390625 1.242188 -0.347656 1.257812 -0.308594 C 1.273438 -0.273438 1.300781 -0.246094 1.335938 -0.226562 C 1.359375 -0.214844 1.390625 -0.203125 1.425781 -0.191406 C 1.464844 -0.179688 1.5 -0.171875 1.535156 -0.167969 L 1.535156 0 L 0.132812 0 L 0.132812 -0.167969 C 0.171875 -0.171875 0.210938 -0.175781 0.25 -0.179688 C 0.289062 -0.1875 0.324219 -0.195312 0.351562 -0.203125 C 0.398438 -0.21875 0.433594 -0.246094 0.453125 -0.28125 C 0.46875 -0.316406 0.480469 -0.363281 0.480469 -0.417969 L 0.480469 -1.761719 C 0.480469 -1.808594 0.46875 -1.855469 0.441406 -1.902344 C 0.417969 -1.949219 0.386719 -1.984375 0.347656 -2.015625 C 0.316406 -2.035156 0.285156 -2.050781 0.242188 -2.0625 C 0.199219 -2.074219 0.152344 -2.082031 0.101562 -2.085938 L 0.101562 -2.253906 L 1.203125 -2.316406 L 1.234375 -2.28125 L 1.234375 -1.945312 L 1.246094 -1.945312 C 1.289062 -1.984375 1.339844 -2.03125 1.402344 -2.085938 C 1.464844 -2.136719 1.519531 -2.183594 1.574219 -2.214844 C 1.628906 -2.253906 1.703125 -2.285156 1.796875 -2.3125 C 1.886719 -2.335938 1.988281 -2.351562 2.089844 -2.351562 C 2.34375 -2.351562 2.53125 -2.277344 2.65625 -2.136719 C 2.78125 -1.996094 2.84375 -1.804688 2.84375 -1.570312 L 2.84375 -0.441406 C 2.84375 -0.382812 2.851562 -0.339844 2.867188 -0.304688 C 2.886719 -0.269531 2.917969 -0.242188 2.964844 -0.222656 C 2.988281 -0.214844 3.019531 -0.203125 3.054688 -0.191406 C 3.089844 -0.179688 3.132812 -0.171875 3.175781 -0.167969 Z "/>
</g>
<g id="glyph-0-2">
<path d="M 2.714844 -2.027344 L 2.210938 -2.027344 C 2.269531 -1.960938 2.3125 -1.890625 2.34375 -1.816406 C 2.375 -1.742188 2.390625 -1.664062 2.390625 -1.582031 C 2.390625 -1.476562 2.359375 -1.375 2.304688 -1.285156 C 2.246094 -1.191406 2.171875 -1.113281 2.078125 -1.054688 C 1.984375 -0.996094 1.875 -0.949219 1.75 -0.914062 C 1.625 -0.882812 1.488281 -0.863281 1.339844 -0.863281 L 0.964844 -0.863281 C 0.945312 -0.851562 0.925781 -0.828125 0.902344 -0.796875 C 0.878906 -0.769531 0.871094 -0.738281 0.871094 -0.710938 C 0.871094 -0.644531 0.894531 -0.597656 0.949219 -0.570312 C 1.003906 -0.542969 1.101562 -0.527344 1.242188 -0.527344 C 1.382812 -0.523438 1.523438 -0.515625 1.667969 -0.507812 C 1.808594 -0.5 1.914062 -0.496094 1.972656 -0.492188 C 2.0625 -0.488281 2.152344 -0.472656 2.238281 -0.4375 C 2.328125 -0.40625 2.402344 -0.367188 2.46875 -0.316406 C 2.539062 -0.261719 2.597656 -0.191406 2.644531 -0.109375 C 2.6875 -0.0273438 2.710938 0.0703125 2.710938 0.179688 C 2.710938 0.296875 2.683594 0.40625 2.628906 0.507812 C 2.570312 0.613281 2.484375 0.703125 2.371094 0.777344 C 2.25 0.855469 2.101562 0.917969 1.933594 0.960938 C 1.765625 1.003906 1.554688 1.023438 1.304688 1.023438 C 0.898438 1.023438 0.589844 0.976562 0.378906 0.875 C 0.167969 0.777344 0.0664062 0.628906 0.0664062 0.433594 C 0.0664062 0.3125 0.121094 0.210938 0.234375 0.132812 C 0.347656 0.0546875 0.523438 0.0117188 0.765625 0.00390625 L 0.765625 -0.0234375 C 0.625 -0.0703125 0.511719 -0.132812 0.433594 -0.214844 C 0.355469 -0.292969 0.316406 -0.386719 0.316406 -0.488281 C 0.316406 -0.554688 0.332031 -0.609375 0.363281 -0.652344 C 0.394531 -0.699219 0.433594 -0.738281 0.484375 -0.773438 C 0.527344 -0.800781 0.578125 -0.828125 0.640625 -0.847656 C 0.703125 -0.867188 0.753906 -0.882812 0.796875 -0.898438 L 0.796875 -0.921875 C 0.589844 -1 0.433594 -1.09375 0.335938 -1.203125 C 0.238281 -1.3125 0.191406 -1.449219 0.191406 -1.609375 C 0.191406 -1.835938 0.296875 -2.015625 0.503906 -2.152344 C 0.710938 -2.285156 0.976562 -2.355469 1.296875 -2.355469 C 1.402344 -2.355469 1.5 -2.34375 1.597656 -2.328125 C 1.695312 -2.308594 1.769531 -2.292969 1.820312 -2.28125 L 2.714844 -2.28125 L 2.714844 -2.027344 M 1.636719 -1.589844 C 1.636719 -1.769531 1.605469 -1.914062 1.550781 -2.019531 C 1.492188 -2.121094 1.40625 -2.175781 1.285156 -2.175781 C 1.226562 -2.175781 1.171875 -2.160156 1.128906 -2.132812 C 1.082031 -2.101562 1.046875 -2.0625 1.019531 -2.007812 C 0.992188 -1.957031 0.976562 -1.894531 0.964844 -1.824219 C 0.957031 -1.753906 0.953125 -1.683594 0.953125 -1.609375 C 0.953125 -1.441406 0.980469 -1.304688 1.039062 -1.195312 C 1.097656 -1.089844 1.183594 -1.035156 1.289062 -1.035156 C 1.402344 -1.035156 1.488281 -1.082031 1.546875 -1.179688 C 1.605469 -1.277344 1.636719 -1.414062 1.636719 -1.589844 M 2.019531 0.347656 C 2.019531 0.296875 2.003906 0.242188 1.976562 0.191406 C 1.945312 0.140625 1.882812 0.0976562 1.78125 0.0664062 C 1.726562 0.0585938 1.632812 0.0507812 1.507812 0.046875 C 1.382812 0.046875 1.207031 0.0429688 0.988281 0.0429688 C 0.933594 0.0898438 0.886719 0.144531 0.851562 0.207031 C 0.816406 0.269531 0.796875 0.347656 0.796875 0.4375 C 0.796875 0.472656 0.808594 0.515625 0.832031 0.5625 C 0.851562 0.609375 0.886719 0.652344 0.929688 0.691406 C 0.984375 0.738281 1.042969 0.769531 1.109375 0.796875 C 1.175781 0.820312 1.277344 0.835938 1.410156 0.835938 C 1.609375 0.835938 1.757812 0.796875 1.863281 0.71875 C 1.96875 0.644531 2.019531 0.519531 2.019531 0.347656 Z "/>
</g>
<g id="glyph-0-3">
<path d="M 2.429688 -1.867188 C 2.429688 -1.75 2.394531 -1.644531 2.320312 -1.558594 C 2.25 -1.46875 2.15625 -1.425781 2.035156 -1.425781 C 1.925781 -1.425781 1.828125 -1.453125 1.75 -1.511719 C 1.671875 -1.566406 1.636719 -1.648438 1.636719 -1.761719 C 1.636719 -1.8125 1.640625 -1.855469 1.644531 -1.886719 C 1.652344 -1.914062 1.660156 -1.941406 1.667969 -1.96875 C 1.597656 -1.964844 1.523438 -1.941406 1.445312 -1.894531 C 1.363281 -1.851562 1.296875 -1.789062 1.234375 -1.714844 L 1.234375 -0.449219 C 1.234375 -0.394531 1.246094 -0.347656 1.261719 -0.3125 C 1.277344 -0.277344 1.308594 -0.25 1.347656 -0.230469 C 1.378906 -0.214844 1.433594 -0.199219 1.511719 -0.1875 C 1.585938 -0.175781 1.644531 -0.167969 1.675781 -0.167969 L 1.675781 0 L 0.132812 0 L 0.132812 -0.167969 C 0.171875 -0.171875 0.210938 -0.175781 0.25 -0.179688 C 0.289062 -0.1875 0.324219 -0.195312 0.351562 -0.203125 C 0.398438 -0.21875 0.433594 -0.246094 0.453125 -0.28125 C 0.46875 -0.316406 0.480469 -0.363281 0.480469 -0.417969 L 0.480469 -1.761719 C 0.480469 -1.816406 0.464844 -1.867188 0.441406 -1.910156 C 0.414062 -1.953125 0.382812 -1.988281 0.347656 -2.015625 C 0.316406 -2.035156 0.285156 -2.050781 0.242188 -2.0625 C 0.199219 -2.074219 0.152344 -2.082031 0.101562 -2.085938 L 0.101562 -2.253906 L 1.203125 -2.316406 L 1.234375 -2.28125 L 1.234375 -1.945312 L 1.246094 -1.945312 C 1.351562 -2.070312 1.464844 -2.164062 1.582031 -2.234375 C 1.703125 -2.304688 1.828125 -2.339844 1.957031 -2.339844 C 2.097656 -2.339844 2.214844 -2.296875 2.300781 -2.207031 C 2.386719 -2.121094 2.429688 -2.003906 2.429688 -1.867188 Z "/>
</g>
<g id="glyph-0-4">
<path d="M 2.613281 -0.550781 C 2.558594 -0.464844 2.492188 -0.382812 2.417969 -0.304688 C 2.339844 -0.226562 2.253906 -0.160156 2.160156 -0.105469 C 2.054688 -0.046875 1.953125 0 1.847656 0.0273438 C 1.742188 0.0585938 1.621094 0.0742188 1.484375 0.0742188 C 1.253906 0.0742188 1.058594 0.0429688 0.894531 -0.0234375 C 0.726562 -0.0859375 0.59375 -0.175781 0.484375 -0.285156 C 0.375 -0.394531 0.296875 -0.523438 0.242188 -0.667969 C 0.191406 -0.816406 0.164062 -0.980469 0.164062 -1.152344 C 0.164062 -1.308594 0.191406 -1.460938 0.25 -1.605469 C 0.308594 -1.746094 0.390625 -1.875 0.496094 -1.988281 C 0.601562 -2.097656 0.730469 -2.183594 0.890625 -2.253906 C 1.050781 -2.320312 1.226562 -2.355469 1.425781 -2.355469 C 1.640625 -2.355469 1.816406 -2.328125 1.957031 -2.277344 C 2.09375 -2.222656 2.207031 -2.152344 2.300781 -2.058594 C 2.386719 -1.972656 2.449219 -1.867188 2.492188 -1.75 C 2.53125 -1.628906 2.550781 -1.503906 2.550781 -1.375 L 2.550781 -1.222656 L 0.992188 -1.222656 C 0.992188 -0.910156 1.050781 -0.667969 1.171875 -0.503906 C 1.296875 -0.339844 1.488281 -0.257812 1.753906 -0.257812 C 1.898438 -0.257812 2.027344 -0.296875 2.140625 -0.378906 C 2.257812 -0.457031 2.355469 -0.554688 2.4375 -0.679688 L 2.613281 -0.550781 M 1.730469 -1.425781 C 1.730469 -1.519531 1.726562 -1.613281 1.71875 -1.710938 C 1.707031 -1.808594 1.691406 -1.886719 1.667969 -1.949219 C 1.644531 -2.019531 1.609375 -2.074219 1.5625 -2.113281 C 1.515625 -2.148438 1.460938 -2.167969 1.390625 -2.167969 C 1.273438 -2.167969 1.175781 -2.109375 1.105469 -1.988281 C 1.035156 -1.867188 0.996094 -1.679688 0.992188 -1.417969 Z "/>
</g>
<g id="glyph-0-5">
<path d="M 1.203125 0.078125 C 1.050781 0.078125 0.90625 0.0546875 0.765625 0.0117188 C 0.621094 -0.03125 0.511719 -0.078125 0.433594 -0.125 L 0.363281 0.03125 L 0.183594 0.03125 L 0.15625 -0.832031 L 0.324219 -0.832031 C 0.347656 -0.761719 0.382812 -0.683594 0.4375 -0.597656 C 0.492188 -0.507812 0.554688 -0.429688 0.621094 -0.363281 C 0.695312 -0.292969 0.777344 -0.234375 0.871094 -0.1875 C 0.964844 -0.140625 1.0625 -0.117188 1.167969 -0.117188 C 1.308594 -0.117188 1.414062 -0.144531 1.480469 -0.195312 C 1.550781 -0.25 1.585938 -0.335938 1.585938 -0.449219 C 1.585938 -0.511719 1.570312 -0.5625 1.539062 -0.601562 C 1.507812 -0.640625 1.464844 -0.675781 1.410156 -0.707031 C 1.351562 -0.738281 1.285156 -0.761719 1.214844 -0.785156 C 1.144531 -0.804688 1.054688 -0.832031 0.949219 -0.863281 C 0.84375 -0.894531 0.757812 -0.925781 0.679688 -0.957031 C 0.605469 -0.988281 0.53125 -1.035156 0.449219 -1.105469 C 0.378906 -1.164062 0.324219 -1.238281 0.285156 -1.320312 C 0.242188 -1.40625 0.222656 -1.507812 0.222656 -1.625 C 0.222656 -1.839844 0.3125 -2.015625 0.496094 -2.148438 C 0.675781 -2.28125 0.914062 -2.351562 1.210938 -2.351562 C 1.351562 -2.351562 1.480469 -2.335938 1.597656 -2.308594 C 1.714844 -2.277344 1.8125 -2.246094 1.894531 -2.214844 L 1.941406 -2.351562 L 2.117188 -2.351562 L 2.152344 -1.5625 L 1.992188 -1.5625 C 1.9375 -1.722656 1.847656 -1.859375 1.714844 -1.976562 C 1.585938 -2.09375 1.445312 -2.152344 1.292969 -2.152344 C 1.175781 -2.152344 1.082031 -2.125 1.015625 -2.078125 C 0.945312 -2.027344 0.914062 -1.960938 0.914062 -1.871094 C 0.914062 -1.753906 0.960938 -1.671875 1.0625 -1.617188 C 1.160156 -1.566406 1.300781 -1.515625 1.476562 -1.472656 C 1.75 -1.402344 1.953125 -1.304688 2.082031 -1.183594 C 2.207031 -1.058594 2.269531 -0.902344 2.269531 -0.714844 C 2.269531 -0.460938 2.171875 -0.265625 1.976562 -0.128906 C 1.777344 0.0078125 1.519531 0.078125 1.203125 0.078125 Z "/>
</g>
<g id="glyph-0-6">
<path d="M 2.488281 -2.015625 C 2.601562 -1.910156 2.6875 -1.78125 2.75 -1.636719 C 2.808594 -1.488281 2.839844 -1.328125 2.839844 -1.15625 C 2.839844 -0.984375 2.808594 -0.824219 2.75 -0.671875 C 2.691406 -0.519531 2.605469 -0.390625 2.492188 -0.285156 C 2.367188 -0.167969 2.222656 -0.078125 2.054688 -0.0195312 C 1.886719 0.0429688 1.695312 0.0742188 1.476562 0.0742188 C 1.289062 0.0742188 1.117188 0.046875 0.960938 -0.0078125 C 0.804688 -0.0625 0.664062 -0.140625 0.542969 -0.25 C 0.425781 -0.351562 0.332031 -0.480469 0.265625 -0.628906 C 0.199219 -0.78125 0.164062 -0.953125 0.164062 -1.140625 C 0.164062 -1.324219 0.191406 -1.488281 0.253906 -1.632812 C 0.3125 -1.773438 0.402344 -1.902344 0.519531 -2.015625 C 0.632812 -2.121094 0.773438 -2.207031 0.941406 -2.265625 C 1.105469 -2.324219 1.292969 -2.355469 1.5 -2.355469 C 1.714844 -2.355469 1.902344 -2.324219 2.066406 -2.265625 C 2.230469 -2.207031 2.371094 -2.121094 2.488281 -2.015625 M 1.898438 -0.417969 C 1.933594 -0.503906 1.957031 -0.609375 1.972656 -0.730469 C 1.988281 -0.855469 1.996094 -0.996094 1.996094 -1.160156 C 1.996094 -1.265625 1.988281 -1.390625 1.972656 -1.527344 C 1.957031 -1.667969 1.933594 -1.777344 1.90625 -1.855469 C 1.867188 -1.953125 1.816406 -2.027344 1.75 -2.085938 C 1.6875 -2.140625 1.601562 -2.167969 1.503906 -2.167969 C 1.394531 -2.167969 1.308594 -2.136719 1.242188 -2.078125 C 1.175781 -2.019531 1.125 -1.941406 1.089844 -1.84375 C 1.058594 -1.757812 1.035156 -1.65625 1.023438 -1.535156 C 1.011719 -1.417969 1.003906 -1.296875 1.003906 -1.167969 C 1.003906 -1 1.011719 -0.863281 1.023438 -0.753906 C 1.03125 -0.644531 1.058594 -0.53125 1.101562 -0.421875 C 1.136719 -0.328125 1.1875 -0.25 1.253906 -0.195312 C 1.316406 -0.140625 1.402344 -0.113281 1.503906 -0.113281 C 1.597656 -0.113281 1.675781 -0.140625 1.742188 -0.191406 C 1.808594 -0.242188 1.859375 -0.316406 1.898438 -0.417969 Z "/>
</g>
</g>
</defs>
<g fill="rgb(8.627451%, 63.921569%, 29.019608%)" fill-opacity="1">
<use xlink:href="#glyph-0-0" x="30" y="24.331055"/>
<use xlink:href="#glyph-0-1" x="32" y="24.331055"/>
<use xlink:href="#glyph-0-2" x="35" y="24.331055"/>
<use xlink:href="#glyph-0-3" x="38" y="24.331055"/>
<use xlink:href="#glyph-0-4" x="40" y="24.331055"/>
<use xlink:href="#glyph-0-5" x="43" y="24.331055"/>
<use xlink:href="#glyph-0-6" x="45" y="24.331055"/>
</g>
</svg>
